<?xml version="1.0" standalone="no"?>
<!DOCTYPE svg PUBLIC "-//W3C//DTD SVG 1.1//EN" "http://www.w3.org/Graphics/SVG/1.1/DTD/svg11.dtd" >
<svg>
<metadata>
Created by FontForge 20090622 at Fri Nov 20 14:32:33 2015
 By deploy user
Copyright (c) 2012 by Kimberly Geswein. All rights reserved.
</metadata>
<defs>
<font id="KGLuckoftheIrish" horiz-adv-x="360" >
  <font-face 
    font-family="KG Luck of the Irish"
    font-weight="400"
    font-stretch="normal"
    units-per-em="1024"
    panose-1="3 0 5 8 0 0 0 2 0 4"
    ascent="819"
    descent="-205"
    x-height="775"
    cap-height="783"
    bbox="-95 -264 736.429 1025.8"
    underline-thickness="0"
    underline-position="0"
    unicode-range="U+0020-U+2212"
  />
<missing-glyph horiz-adv-x="753" 
 />
    <glyph glyph-name=".notdef" horiz-adv-x="753" 
 />
    <glyph glyph-name=".null" horiz-adv-x="0" 
 />
    <glyph glyph-name="nonmarkingreturn" horiz-adv-x="753" 
 />
    <glyph glyph-name="space" unicode=" " horiz-adv-x="252" 
 />
    <glyph glyph-name="space" unicode="&#xa0;" horiz-adv-x="252" 
 />
    <glyph glyph-name="percent" unicode="%" horiz-adv-x="328" 
d="M102 18q-25 6 -32.5 30t-4 61t17 84t31 99l37.5 106.5t37 106.5t29.5 98t14.5 82q-15 7 -29 1t-29 -18.5l-31 -27t-33 -24t-36 -10t-40 15.5q-20 24 -14.5 48t25.5 43.5t51.5 33t64.5 18t63 -2.5t48 -29t19 -60t-23 -96q-4 -10 -13.5 -43t-21 -77.5l-24 -94.5l-24.5 -95
l-21 -80t-14 -48q53 12 87 6t48.5 -22t9.5 -37.5t-28 -39t-64.5 -27t-100.5 -1.5zM164 71q1 -9 13 -11t25.5 1.5t25.5 10.5t15 15q4 4 -9 9t-29 5.5t-29.5 -6t-11.5 -24.5zM71 663q1 -9 8 -9t15.5 5.5t15.5 14.5t10 17q4 4 -4 7t-19 1.5t-19.5 -10t-6.5 -26.5z" />
    <glyph glyph-name="ampersand" unicode="&#x26;" horiz-adv-x="289" 
d="M209 16q-17 -5 -23.5 -0.5t-7 14.5t2.5 24t5.5 29.5t2 31t-8.5 27.5q-37 -7 -68.5 5.5t-48.5 40t-14.5 68t35.5 90.5q3 8 -4 20.5l-16 30t-15.5 38.5t-2 46.5t23.5 55t62 62.5q12 19 10.5 36t-9.5 32t-18.5 28.5t-17 24.5t-6 20t16.5 16q22 10 38 -0.5t27.5 -31t18 -48
t10 -52t4 -42t-0.5 -19.5q-15 -15 -29 -23t-25.5 -16t-20.5 -20.5t-13 -36.5t11.5 -36t35 -21t34 -20t7.5 -32q-35 -29 -56.5 -56t-21.5 -49t24 -36.5t81 -17.5q6 4 10 -8t5.5 -31.5t0.5 -43.5t-5.5 -45.5t-13 -37t-20.5 -17.5z" />
    <glyph glyph-name="quotesingle" unicode="'" horiz-adv-x="158" 
d="M77 630l-6.5 35t-6 27t-8.5 26t-15 33q-5 10 0.5 16t16.5 6t24.5 -6.5t24.5 -22t17 -40.5t1 -62q-1 -9 -8 -16t-15 -9.5t-15.5 0t-9.5 13.5z" />
    <glyph glyph-name="parenleft" unicode="(" horiz-adv-x="193" 
d="M114 12q-91 197 -95 379t95 356q10 17 20.5 21.5t18 -0.5t11 -17t-0.5 -28q-57 -84 -77 -172.5t-14 -178t32.5 -178.5t62.5 -175q-8 -17 -15.5 -23.5t-14.5 -6.5t-13 6.5t-10 16.5z" />
    <glyph glyph-name="parenright" unicode=")" horiz-adv-x="180" 
d="M59 11q-4 -10 -10 -16.5t-13 -6.5t-14.5 6.5t-15.5 23.5q36 86 62.5 175t32.5 178.5t-14 178t-77 172.5q-4 16 -0.5 28t11 17t18 0.5t20.5 -21.5q99 -174 95 -356t-95 -379z" />
    <glyph glyph-name="asterisk" unicode="*" horiz-adv-x="390" 
d="M82 160q0 1 6 15t14 30.5t14 30.5t6 15q-1 2 -6.5 7l-11.5 11l-11.5 11t-6.5 7q-22 17 -26 27t3 15.5t22 7.5t30 1.5t27.5 -1.5t15.5 -1q1 0 5.5 16l10 35l10 35t5.5 17q11 17 17.5 18.5t10.5 -6.5t7 -23l6 -31.5t8 -31t13 -22.5q21 3 41 7t35 4t22 -5.5t1 -21.5
q-9 -17 -21.5 -27.5t-23 -17.5t-17 -10.5t-4.5 -6.5q3 -3 6.5 -18t5.5 -33t0.5 -34t-9.5 -20q-2 -9 -15.5 -1t-29.5 20.5l-30.5 24.5t-17.5 11q-6 -2 -22.5 -18t-35 -31t-34.5 -20.5t-20 14.5z" />
    <glyph glyph-name="plus" unicode="+" horiz-adv-x="393" 
d="M183 159q-2 18 -1.5 35.5t0.5 34.5t-2 33.5t-10 32.5q-18 6 -35.5 0t-33.5 -10t-28.5 0.5t-19.5 31.5q-5 9 2 15.5t20.5 10.5t30 6.5t31 5t24.5 5.5t9 8q-12 42 -11 66t8 35.5t17 11.5t16 -6q12 -9 16 -27.5t6.5 -37.5t6 -33t14.5 -15q42 11 63.5 9.5t29.5 -10.5t8 -24
t-1 -31q-5 -1 -18.5 -2.5t-29 -3t-30.5 -4.5t-22 -7q-2 -1 -0.5 -15.5t3 -34t1.5 -40.5t-6 -35t-19.5 -17.5t-38.5 12.5z" />
    <glyph glyph-name="comma" unicode="," horiz-adv-x="136" 
d="M53 -83q-11 11 -10 27.5t3.5 35t1.5 37.5t-16 35q3 29 20 33t33.5 -13t24 -54t-8.5 -89q-3 -14 -8.5 -19t-12 -5t-13.5 4z" />
    <glyph glyph-name="hyphen" unicode="-" horiz-adv-x="308" 
d="M63 276q-7 4 -10 13.5t-1.5 20t8 18.5t17.5 8h193q2 1 10.5 -8t12 -20.5t-5 -22t-39.5 -11.5q-7 0 -34.5 0.5t-58.5 0.5h-58t-34 1z" />
    <glyph glyph-name="period" unicode="." horiz-adv-x="147" 
d="M55 21q-11 16 -3 30.5t23.5 22t32 5.5t23.5 -19q5 -10 -1 -23t-18 -21.5t-27.5 -9t-29.5 14.5z" />
    <glyph glyph-name="slash" unicode="/" horiz-adv-x="262" 
d="M6 24q0 1 0.5 6t5.5 27.5t16.5 67.5l32 126l52.5 204l79 301q1 6 11 10t20.5 5t18.5 -2.5t6 -12.5l-182 -732q-3 -15 -12 -21t-18.5 -5.5t-18 7.5t-11.5 19z" />
    <glyph glyph-name="zero" unicode="0" horiz-adv-x="344" 
d="M114 12q-51 51 -72.5 128t-25 165t5.5 178t20 168q10 45 34.5 74.5t54 44t58 15t46.5 -13.5q31 -18 50 -64t28.5 -107.5t10 -131.5t-6 -136.5t-18.5 -122.5t-28 -89q-5 -18 -20.5 -44.5t-37.5 -47.5t-48 -28.5t-51 12.5zM90 217q18 -78 37.5 -106t38.5 -20t36.5 44.5
t31.5 88.5t23.5 111.5t12.5 112.5q5 44 -1.5 90t-20 84t-32.5 63t-40.5 27.5t-43.5 -23t-42 -87.5q-8 -34 -11 -85.5t-2.5 -107t4 -107.5t9.5 -85z" />
    <glyph glyph-name="one" unicode="1" horiz-adv-x="218" 
d="M120 24q1 70 4 156.5t4.5 175.5t0 173.5t-10.5 150.5q-43 -23 -64.5 -28t-27 1.5t2.5 21t23.5 32t35 34t38.5 26.5t34 10t20 -15l13 -726q2 -17 -6.5 -24.5t-21 -8.5t-25.5 4.5t-20 16.5z" />
    <glyph glyph-name="two" unicode="2" horiz-adv-x="289" 
d="M254 33q-62 -17 -104 -23.5t-68 -5t-38.5 8.5t-16.5 16.5t-2 19.5t5 18q74 192 110 333.5t36 220t-35 88.5t-103 -62l-40 24q7 32 29.5 56.5t51.5 36.5t60.5 8.5t56.5 -28t39.5 -73t9.5 -126t-33 -186.5t-89 -255q-11 -19 5 -23t41 -0.5t50 11t33 11.5q15 -5 19.5 -13
t2.5 -18t-8 -20t-12 -19z" />
    <glyph glyph-name="three" unicode="3" horiz-adv-x="333" 
d="M71 2q-16 8 -24.5 25t-9.5 34t6 28.5t22 8.5q2 0 7 -3.5l11 -8l11 -8.5t7 -4q37 -11 64.5 10t45.5 59.5t27 89t9.5 99t-7 88.5t-21.5 58l-14 13.5t-26 16t-44.5 13t-69.5 5.5q-6 0 -8.5 5t-3 11t0 12t1.5 8l101 161q5 3 -8.5 1l-35 -5t-45.5 -4.5t-41 2t-21 15t15 35.5
q21 10 43 12.5t46 2.5t49 -0.5t51 1.5q13 -5 14.5 -22.5t-7 -42t-24.5 -53t-37 -55.5q63 -28 102.5 -75.5t53.5 -116.5q4 -39 2.5 -86.5t-11 -95.5t-28 -92.5t-46.5 -78t-67 -51.5t-90 -12z" />
    <glyph glyph-name="four" unicode="4" horiz-adv-x="355" 
d="M164 19q0 2 0.5 3.5t2.5 13t4 36.5t4 73t3.5 123.5t2.5 187.5q-14 1 -35 -4t-42.5 -11t-42 -9.5t-33.5 2.5q-3 1 -6 7t-5 13.5t-3 14.5t0 11q8 26 11.5 60t5 70t2 71.5t0.5 63.5q2 19 9 25t16 4t18.5 -10.5t16.5 -18.5q2 -21 0.5 -52t-3.5 -64t-3.5 -63.5t0.5 -49.5
l86 24q2 45 5 81q2 31 3.5 56.5t1.5 27.5q3 18 15 27.5t25 10t24 -8t14 -25.5q0 -1 -0.5 -12.5t-2 -29.5t-3 -38.5t-2.5 -38t-1.5 -29.5t0.5 -12q25 6 44 14t30 8t15 -13.5t1 -50.5q-2 0 -15.5 -4l-29 -9l-29 -9t-14.5 -5q-6 -60 -7 -118.5t-1 -116.5t-1.5 -116t-8.5 -117
q-18 -15 -30.5 -19.5t-20.5 -2.5t-12.5 10t-8.5 19z" />
    <glyph glyph-name="five" unicode="5" horiz-adv-x="331" 
d="M44 22q-20 10 -27 28.5t-5.5 33.5t8.5 21t14 -7q39 -32 72.5 -36t59.5 11.5t45 47.5t30.5 72t14 84.5t-3.5 85.5q-10 42 -31.5 62.5t-47 27t-52 4t-47.5 -6t-33.5 -4t-10.5 11.5l-12 309l238 4q13 0 19 -10.5t5.5 -23t-7 -23t-17.5 -10.5h-168l-3 -180q33 3 68.5 3
t66 -10.5t54 -35t33.5 -71.5q6 -103 -2.5 -175.5t-27.5 -121t-46.5 -74.5t-59 -34.5t-64.5 -3t-63 20.5z" />
    <glyph glyph-name="six" unicode="6" horiz-adv-x="344" 
d="M207 -2q-56 -4 -93.5 20t-60 68t-31.5 103t-8 124t10.5 132.5t24.5 127.5t34 109t38 78q7 10 20 16.5t24 6t17.5 -8.5t-0.5 -26q-13 -32 -28.5 -77t-30.5 -97.5t-26.5 -109.5t-17.5 -111.5t-4.5 -104.5t14 -88.5t37.5 -63.5t66 -29q2 2 -0.5 17t-5.5 37t-4 48t3.5 51
t17 45t37.5 31q28 9 47.5 -6.5t29.5 -44t9.5 -66t-13.5 -73.5t-39 -65.5t-67 -42.5zM240 164q0 -2 1 -11t2 -19t2.5 -18.5t2.5 -9.5q21 10 27 30t3 40t-11.5 36t-16.5 19t-12 -11.5t2 -55.5z" />
    <glyph glyph-name="seven" unicode="7" horiz-adv-x="380" 
d="M102 24l0.5 4l2.5 19.5t6.5 47l12.5 86.5l20.5 139l30.5 204h-133q-10 -1 -14.5 7t-5.5 19t1.5 21t6.5 13h157q5 3 9.5 20.5t8 39.5t5 42.5t0.5 28.5q-59 -9 -97 -10.5t-60 1t-31 9.5t-10 16t4 19t11 20l244 1q11 1 12.5 -17t-3 -46t-11.5 -60l-13 -58q2 -2 14.5 0
t28.5 4t32.5 2t26.5 -6t11 -20t-14 -40h-108l-84 -506q-2 -18 -10.5 -22.5t-18.5 -1.5t-19.5 10.5t-12.5 13.5z" />
    <glyph glyph-name="eight" unicode="8" horiz-adv-x="259" 
d="M201 19q-48 -24 -81 -23.5t-53.5 19.5t-30 52.5t-11.5 74.5t3 86.5t13.5 88t19.5 79.5t21 60q-48 79 -63.5 136.5t-9 97t30 62t53 30.5t59.5 3t51 -20q18 -34 21.5 -63.5t-2 -56t-16 -51l-20.5 -48t-16.5 -46.5t-2.5 -46q9 -20 23 -55t27 -77t23 -88t11 -88t-10 -75.5
t-40 -51.5zM97 93q5 -12 16.5 -19.5t24 -8t24.5 5.5t19 20q3 14 3.5 38t-1 52.5t-6 59t-11.5 57t-17 46t-23 26.5q-15 -28 -26.5 -63.5t-16 -73.5t-2 -74.5t15.5 -65.5zM158 622q7 41 2 64.5t-16.5 32t-27 4t-29 -18t-22.5 -34t-8 -45t14.5 -51t45.5 -50.5q1 0 6 10l12 25
t13.5 32t9.5 31z" />
    <glyph glyph-name="nine" unicode="9" horiz-adv-x="292" 
d="M208 434q-52 -17 -90 -7t-62 37t-34 66t-7.5 79.5t18 78.5t42.5 63.5t65.5 33.5t88.5 -12q18 -10 27 -58t11.5 -117.5t1 -152t-4 -162.5t-4 -148.5t1.5 -109.5q-4 -4 -13 -10.5t-18.5 -10.5t-18.5 -3t-12 12zM85 524q12 -23 29.5 -33.5t35.5 -10.5t34.5 9t25.5 24
l-13 191q-13 24 -29.5 26.5t-33 -9.5t-30.5 -35.5t-22.5 -51.5t-8.5 -57t12 -53z" />
    <glyph glyph-name="colon" unicode=":" horiz-adv-x="218" 
d="M97 200q-8 15 0 27.5t21.5 18t28.5 1t22 -22.5q9 -21 1.5 -33.5t-21 -16t-29 3t-23.5 22.5zM85 429q-12 17 -8 33t15.5 24.5t26.5 7.5t26 -17t7 -31.5t-15.5 -24.5t-26.5 -8.5t-25 16.5z" />
    <glyph glyph-name="semicolon" unicode=";" horiz-adv-x="139" 
d="M78 -157q-15 11 -23 18.5t-8.5 18.5t5.5 29t19 50q-1 12 -7.5 18.5l-12.5 12.5t-9.5 13.5t0.5 20.5q5 21 16.5 23t24.5 -9t23.5 -32.5t13 -48.5t-6.5 -57t-35 -57zM24 253q-12 17 -8 33t15.5 24.5t26.5 7.5t26 -17t7 -31.5t-15.5 -24.5t-26.5 -8.5t-25 16.5z" />
    <glyph glyph-name="less" unicode="&#x3c;" horiz-adv-x="325" 
d="M227 115q-15 -5 -36 12.5t-43.5 44.5t-44.5 57.5l-38 51.5q-13 17 -8.5 38.5t21 44t41 44.5t50 39.5t50 29t40.5 12.5q21 -20 11.5 -40t-35 -40.5t-59 -43t-59.5 -48.5q24 -40 50 -72.5t44 -57.5t24.5 -43t-8.5 -29z" />
    <glyph glyph-name="equal" unicode="=" horiz-adv-x="322" 
d="M81 207q-9 0 -16 6.5t-9.5 16.5t0.5 21t13 19h193q18 0 22.5 -9.5t0.5 -20.5t-14 -20.5t-21 -9.5zM57 330q-9 0 -11.5 9t1 20t12 20.5t22.5 11.5h169q7 0 14 -9.5t9.5 -21t-2.5 -21t-21 -9.5h-193z" />
    <glyph glyph-name="greater" unicode="&#x3e;" horiz-adv-x="278" 
d="M65 96q-15 11 -8.5 29t24.5 43t44 57.5t50 72.5q-26 26 -59.5 48.5t-59 43t-35 40.5t11.5 40q16 -1 40.5 -12.5t50 -29t50 -39.5t41 -44.5t21 -44t-8.5 -38.5q-17 -21 -38.5 -51.5t-44 -57.5t-43.5 -44.5t-36 -12.5z" />
    <glyph glyph-name="question" unicode="?" horiz-adv-x="276" 
d="M116 13q-12 18 -8.5 32t14 21t23.5 4t19 -21q3 -11 -1 -22.5t-12 -18.5t-17.5 -7t-17.5 12zM105 488q33 25 53 57.5t27 63t2 54.5t-21.5 31.5t-44.5 -5.5t-66 -56q-33 10 -35 30t15.5 40t49 37t64 21t60.5 -9t40 -51q6 -26 1.5 -59.5t-17 -68t-30 -66.5t-36.5 -54
l17 -224q0 -8 -8 -13t-18 -6t-20 3t-14 13z" />
    <glyph glyph-name="at" unicode="@" horiz-adv-x="502" 
d="M73 345q0 7 -1 -18t4.5 -65t20.5 -85.5t47.5 -80.5t85 -50.5t133.5 5.5q10 -23 1 -37t-29 -20.5t-48 -6.5t-55.5 4t-51.5 11t-36 16q-23 16 -42.5 38t-34.5 47.5t-25.5 52.5t-14.5 53q-17 105 -4.5 195t44.5 158t78 112.5t95 60t96.5 -1.5t82.5 -71t51.5 -148t4.5 -234
q-1 -52 -19 -81.5t-42.5 -42.5t-51 -11.5t-45.5 11.5t-26 25t9 31q-38 -38 -70.5 -43.5t-55.5 13.5t-33.5 58t-5.5 89.5t28 108.5t69 115q39 22 59 18t28 -27t8 -61.5t0.5 -84t4 -95t19.5 -95.5q6 -12 15.5 -12.5t18.5 5t16.5 15t9.5 16.5q1 1 2.5 12.5l3.5 27t3.5 31
l2.5 25.5q7 63 -3 129t-33 124q-19 50 -42.5 74t-49 27t-52 -11.5t-51 -40.5t-46 -61.5t-37.5 -74t-25.5 -77t-10.5 -72.5zM265 501q-6 7 -16.5 -5.5t-22.5 -37t-23.5 -56t-18 -63t-6 -59t11.5 -43t34 -14.5t63 25l0.5 17t0 43t-2 57t-4 59t-6.5 49t-10 28z" />
    <glyph glyph-name="A" unicode="A" horiz-adv-x="426" 
d="M128 740q10 21 27.5 31t38 11.5t42 -3.5t38.5 -14.5t27.5 -21t9.5 -22.5l91 -711q2 -7 -8 -10.5t-23.5 -3.5t-25.5 3.5t-15 12.5l-46 458l-132 3l-69 -459q0 -6 -8.5 -12t-19.5 -7.5t-22 5t-15 26.5zM161 536q5 -3 21.5 -4.5t35 -2.5t34 0t20.5 4q4 13 3 37t-6 50
t-13.5 50.5t-18 39.5t-20 16t-20.5 -19q-6 -12 -12 -38.5t-11.5 -54.5t-9 -50.5t-3.5 -27.5z" />
    <glyph glyph-name="B" unicode="B" horiz-adv-x="352" 
d="M34 10q-5 45 -9 104.5t-5.5 127t-2 139.5t0 141.5t2 132t3.5 112.5q62 12 103.5 2.5t64.5 -37t28 -72t-7 -102.5l-7.5 -18.5t-8.5 -18.5q41 -16 70 -49.5t45.5 -77t21 -93t-4.5 -97t-31.5 -89t-59 -70t-87 -39t-116.5 3.5zM94 68q54 3 88.5 29t53 64.5t23 84.5t-3 88.5
t-24.5 76.5t-41 47.5t-53.5 2.5t-60.5 -58q-5 -91 -2 -180t20 -155zM90 707q-6 -23 -7 -49.5t1 -54t5.5 -54.5l6.5 -50q20 1 35.5 18.5t24 43t10 53.5t-6 51t-24.5 35.5t-45 6.5z" />
    <glyph glyph-name="C" unicode="C" horiz-adv-x="319" 
d="M135 24q-29 18 -50.5 67t-35.5 115.5t-19.5 143.5t-0.5 149.5t20.5 134t43.5 97t69 39t96 -39.5q5 -34 -2.5 -42.5t-23 -6.5t-35.5 8.5t-38.5 2t-33.5 -26.5t-20 -76q-3 -26 -6 -67t-3.5 -89.5t2.5 -100t10 -98.5t19.5 -84t31.5 -57t46 -17.5t63 34.5q26 -5 31 -18.5
t-3 -29t-27 -30t-42 -22t-48 -5.5t-44 19z" />
    <glyph glyph-name="D" unicode="D" horiz-adv-x="322" 
d="M19 759q13 13 37 16t51 -0.5t51 -12t37 -17.5q27 -23 48.5 -66.5t34.5 -99.5t17.5 -120.5t-2 -128t-24.5 -122.5t-49 -104t-76.5 -72t-107.5 -27zM90 79q28 -2 52.5 27t43 76t30 107t14 122t-4.5 120t-26 100.5t-50.5 64.5t-77.5 11q3 -19 5.5 -62t4.5 -100.5t3.5 -123
t2.5 -129.5t1.5 -120t1.5 -93z" />
    <glyph glyph-name="E" unicode="E" 
d="M25 764q0 3 19 5.5t48.5 4.5t65 3t68 1t57.5 -1.5t34 -3.5q6 -2 10 -12t4 -21t-4 -20t-13 -10l-228 -5l8 -211l178 2q9 0 17 -10.5t11.5 -23t1 -23t-14.5 -10.5l-185 -2q-1 -9 -1.5 -35.5t0 -61.5t1 -75t2 -75.5t3.5 -63t5 -37.5l217 -1q10 0 15.5 -8.5t5.5 -19t-5.5 -20
t-15.5 -11.5q-13 -1 -45 -2.5t-68 -3.5t-68.5 -3.5t-45.5 -2.5h-17t-19.5 2.5t-17 7.5t-9.5 14z" />
    <glyph glyph-name="F" unicode="F" horiz-adv-x="358" 
d="M131 40q-7 -22 -25.5 -21t-39.5 8q-11 159 -18.5 287.5t-12.5 224.5t-8.5 157t-4.5 84q11 -2 35.5 -2.5t55.5 -1t65.5 0t66 0t55.5 -1t35 -2.5q11 -3 15 -9.5t3.5 -13.5t-6 -14.5t-12.5 -11.5q-39 -6 -76.5 -8.5t-70 -3.5t-57.5 -1t-40 -1q2 -13 5 -36l6 -46q4 -27 8 -57
h193q20 0 23.5 -9.5t-2 -21t-14.5 -21.5t-15 -11l-178 -4z" />
    <glyph glyph-name="G" unicode="G" horiz-adv-x="415" 
d="M383 23q-28 -18 -40 -6.5t-17 39.5t-6.5 65.5t-7.5 71.5q-11 -62 -29 -99.5t-37.5 -57.5t-36.5 -27t-24 -8q-59 4 -96.5 41t-56.5 95.5t-20 130.5t12.5 145.5t41 142t65 118t84.5 74t101 10.5q37 -10 41.5 -23.5t-29.5 -41.5q-39 16 -73 4t-62 -43t-50 -77t-37 -99
t-22.5 -108.5t-7.5 -106.5t7.5 -92t24.5 -65q27 -32 51.5 -35t45 13.5t35.5 47.5t23 66t8.5 70t-8.5 59l-99 3q-12 0 -15 9t-2 20t4.5 20.5t4.5 10.5l177 -5q12 -5 21.5 -35t16 -71.5t11 -87.5t6 -84.5t0.5 -62.5t-5 -21z" />
    <glyph glyph-name="H" unicode="H" horiz-adv-x="388" 
d="M366 44q0 -22 -8 -34t-18.5 -14t-21.5 7.5t-16 31.5l-19 467l-177 3l7 -472q0 -14 -10 -22.5t-22 -10.5t-22 1.5t-10 12.5q-4 146 -9 254.5t-9 186.5t-7 129.5t-4 84t0.5 49.5t6.5 26q7 15 17.5 20t21 3.5t18 -10t9.5 -20.5l17 -174h163q1 7 -1.5 27.5t-4.5 46t-2 52.5
t7 48t22.5 32t44.5 5l27 -730v0z" />
    <glyph glyph-name="I" unicode="I" horiz-adv-x="347" 
d="M49 8q-11 3 -17 11t-7.5 17t2.5 17.5t14 12.5q6 2 18 2t26 -0.5t26.5 -1t18.5 1.5l-2 655h-83q-17 9 -18.5 25t22.5 29l234 6q22 -4 31.5 -21t-7.5 -34l-115 -5l8 -656h101q13 -6 20 -14.5t6.5 -17t-9.5 -15t-27 -9.5z" />
    <glyph glyph-name="J" unicode="J" horiz-adv-x="317" 
d="M97 12q-41 17 -56.5 40.5t-14.5 42t13.5 27t28.5 -4.5q26 -40 49 -36t39 40.5t25 100t7.5 144t-14.5 172.5t-40 184l-106 7q-6 3 -11.5 10.5t-6 16t5 16.5t20.5 14l227 6q15 -7 22 -17.5t6.5 -20.5t-8 -17t-20.5 -6q0 -1 -10 -1.5t-22.5 -1.5t-22.5 -1.5t-10 -1.5
q19 -69 30 -141.5t15.5 -146.5t2 -147.5t-11.5 -142.5q-3 -22 -14.5 -48.5t-29.5 -48.5t-42 -34t-51 -4z" />
    <glyph glyph-name="K" unicode="K" horiz-adv-x="317" 
d="M82 527l1 -511q-3 -6 -12 -10t-18.5 -4t-17.5 3.5t-8 11.5l-15 730q0 11 7.5 21t17.5 15.5t20 3t14 -16.5l13 -165q-1 -14 10 -6.5t29.5 26.5l42 44.5l46 48.5t41 38.5t28.5 13.5q24 -7 28.5 -18.5t-3.5 -27t-27 -35l-42 -43.5l-48 -52.5t-46 -61.5l163 -489
q3 -22 -7 -31t-22.5 -10t-23.5 3.5t-10 10.5z" />
    <glyph glyph-name="L" unicode="L" horiz-adv-x="292" 
d="M275 65q14 -18 2 -30t-37.5 -19t-59.5 -9t-65.5 -0.5t-53.5 6.5t-24 12l-21 684q-3 19 5.5 34.5t21.5 22t26 1.5t18 -26l12 -652q8 -13 30 -14.5t49 0t53.5 1t43.5 -10.5z" />
    <glyph glyph-name="M" unicode="M" horiz-adv-x="439" 
d="M322 655q-11 -14 -19 -35t-20.5 -39t-32.5 -29t-56 -3q-3 0 -16.5 16.5l-28.5 36.5l-28 38.5t-16 22.5q-9 -107 -9.5 -208t2.5 -186t6 -150t1 -100q-1 -7 -7 -11.5t-15 -6.5t-19 -0.5t-19 7.5q-2 42 -4 101t-3.5 126t-2 136t-0.5 132v114.5t1 82.5q-1 9 3.5 22.5t14.5 23
t24.5 11.5t34.5 -12l102 -127q3 8 18 29l32 44l32 43.5l20 27.5q6 11 16 13.5t19.5 -0.5t18.5 -10t14 -14q6 -12 7.5 -64.5l4 -141.5t7.5 -214t17 -281q2 -13 -8 -23.5t-23 -15.5t-25 -2t-13 17z" />
    <glyph glyph-name="N" unicode="N" horiz-adv-x="410" 
d="M15 757q-1 10 8 19t20.5 11.5t23.5 -2.5t17 -21q27 -33 49 -89.5t41 -124t35.5 -140t34 -137t36.5 -115t42 -73.5q-1 9 -2.5 40t-4 76t-5 99.5l-5 111.5l-5 111.5l-4.5 99.5l-3.5 76t-2.5 40q2 24 12.5 36.5t23 12.5t23.5 -13t14 -41q-2 -45 1 -104.5t7 -125l8.5 -133
t6.5 -129t0 -112.5t-10 -84.5t-23.5 -44t-41.5 9.5q-46 39 -73.5 99t-49 135.5t-43 164.5t-55.5 185l3 -560q0 -6 -9.5 -10.5t-20.5 -5.5t-20.5 1.5t-9.5 10.5z" />
    <glyph glyph-name="O" unicode="O" horiz-adv-x="328" 
d="M128 17q-28 12 -50.5 53t-38 99.5t-23.5 128t-7 139.5t11.5 134t31.5 111t53 71t77 14q43 -14 71 -59t43 -108t18 -137t-4 -146.5t-23.5 -137.5t-40 -108.5t-53.5 -60t-65 6.5zM142 82q14 -14 29.5 3.5t29.5 55t25.5 90t18 111t6.5 117t-9 107t-28 82.5t-51 43
q-25 7 -42 -14.5t-27 -62t-14 -95t-3 -112.5t6.5 -115t14.5 -102.5t20 -75t24 -32.5z" />
    <glyph glyph-name="P" unicode="P" horiz-adv-x="277" 
d="M27 700q-9 35 7 57t44.5 29t63 -2t63 -36t44 -73.5t5.5 -114.5q-7 -37 -20 -60.5t-29.5 -38t-34.5 -21t-34.5 -9t-30.5 -3t-21 -2.5q0 -46 1 -98t1.5 -105.5t-1 -106t-5.5 -98.5q-4 -8 -12 -11t-15.5 -1.5t-13.5 7t-6 16.5zM87 494q41 -6 68 12.5t40.5 49t12.5 65.5
t-15.5 61.5t-43 37.5t-71.5 -7q1 -17 3 -45.5t3.5 -60.5t2.5 -62.5t0 -50.5z" />
    <glyph glyph-name="Q" unicode="Q" horiz-adv-x="390" 
d="M290 115q-43 -67 -80 -95t-67.5 -24.5t-54 33.5t-40 77.5t-25 109t-9 127.5t7.5 132.5t25 125t43.5 104.5t62.5 70q55 21 92 2.5t60.5 -63t34 -108.5t12 -135t-3.5 -142.5t-14 -129.5l58 -157q-7 -29 -17 -38t-20.5 -5.5t-21.5 17.5t-19.5 31.5t-15 36t-8.5 31.5z
M253 235l-63 180q-5 11 -4 23.5t7 22t15.5 14t23.5 0.5q9 -18 16 -39t13 -42l12 -41t13 -36q0 25 0.5 68t-2 90.5t-9.5 94t-20.5 79t-35.5 45.5t-55 -6q-30 -25 -49.5 -77t-29 -117t-9.5 -134.5t8 -129t24 -101.5t38.5 -51t51.5 22t64 118z" />
    <glyph glyph-name="R" unicode="R" horiz-adv-x="355" 
d="M300 7q-5 1 -11.5 26l-16.5 64t-24.5 86.5t-36.5 94t-53 87.5t-73 67l1 -411q-5 -18 -14 -26.5t-18.5 -9t-17 5t-9.5 16.5l-8 747q-1 12 8 18.5t20.5 8t22 -3t13.5 -13.5q1 -2 0 -8t-2.5 -13.5t-2.5 -14t0 -7.5q1 -2 14 7.5t33 21.5t44.5 22.5t47 11t40.5 -13t26 -49.5
q6 -36 -2.5 -71.5t-27.5 -68t-46.5 -60.5t-59.5 -49q9 -1 26 -20t37 -51t41.5 -74.5t40 -90t32.5 -98t20 -97.5q4 -33 -10.5 -40.5t-33.5 6.5zM90 528q30 -3 55 11.5t43 38.5t28.5 53t11.5 54t-9.5 31t-26.5 1t-35 -18t-35.5 -28t-27 -28.5t-10.5 -18.5z" />
    <glyph glyph-name="S" unicode="S" horiz-adv-x="287" 
d="M107 16q-11 5 -31 18t-33.5 29t-12 32.5t33.5 29.5q59 -45 90.5 -43t41.5 35t2.5 89t-26 118t-44.5 121.5t-52 100.5q-44 64 -58 115t3 80.5t65.5 31t131.5 -33.5q6 -4 12 -17t3.5 -24.5t-17.5 -14.5t-52 13q-41 14 -59.5 12t-22.5 -15t3.5 -33t19 -41.5t24 -42
t19.5 -33.5q14 -24 32 -63.5t35 -86.5t31 -98t20 -99t2.5 -88.5t-21 -67t-51.5 -34.5t-89 10z" />
    <glyph glyph-name="T" unicode="T" 
d="M208 29q-8 -15 -21 -19.5t-25 -1.5t-20 12t-6 21l-2 677h-123q-6 2 -10.5 10.5t-5.5 18.5t2.5 19t14.5 12h301q21 -4 30 -16t9 -24t-7.5 -20t-19.5 -4l-120 -2l3 -683v0z" />
    <glyph glyph-name="U" unicode="U" horiz-adv-x="393" 
d="M88 23q-13 20 -23 42t-17.5 55t-12.5 80t-8 117.5t-4 167.5t0 229q3 50 12 66t18.5 11t17 -24.5t8.5 -40.5l14 -529q15 -74 44 -84t59 55.5t55 213t34 390.5q14 13 33 8t27 -25q-20 -179 -14 -367.5t38 -365.5q-15 -25 -27 -24.5t-21.5 15t-16.5 38.5t-12.5 48l-10 42.5
t-8.5 22.5q-5 -12 -16 -31t-26 -40t-33 -40t-37 -31t-38 -13t-35 14z" />
    <glyph glyph-name="V" unicode="V" horiz-adv-x="420" 
d="M265 30q1 -7 -9 -17.5t-23.5 -15.5t-27.5 -0.5t-21 28.5l-160 713q-2 16 2 27.5t12 15.5t18 0t20 -19l148 -661l124 653q3 17 14 23.5t22.5 4t19.5 -13t5 -26.5z" />
    <glyph glyph-name="W" unicode="W" horiz-adv-x="568" 
d="M22 718q-2 17 1 33t10.5 24t19.5 5.5t29 -21.5l99 -602q18 14 33 45.5l29 59t28.5 39t31.5 -13.5l68 -170l130 653q3 13 13.5 16t20.5 -4.5t15.5 -25.5t-1.5 -46l-130 -677q0 -4 -5 -11t-14.5 -11.5t-22.5 -2.5t-28 16q-7 11 -18 34l-22.5 48l-21.5 46.5l-14 30.5
l-76 -156q-3 -6 -11.5 -11t-18.5 -7t-19 0.5t-14 12.5z" />
    <glyph glyph-name="X" unicode="X" horiz-adv-x="470" 
d="M398 12q-30 30 -49.5 69.5t-33.5 83t-25.5 88t-24.5 84.5q-2 7 -6 17l-8 20l-7 17l-3 7h-12l-145 -338q-8 -18 -22 -25.5t-27.5 -6.5t-21 9.5t-1.5 22.5l186 434l-114 253q-6 12 -0.5 25t16 19t23.5 2.5t22 -22.5l72 -157l12 -12q6 3 14 20t17 40.5l19.5 49t23 46t27 32
t31.5 5.5q8 -2 11.5 -9t0.5 -15l-108 -265q0 -1 7.5 -22l20 -54.5l28 -75.5l31.5 -84.5l31.5 -82l26.5 -67.5q1 -3 6.5 -13.5l11.5 -22.5l11.5 -22.5t6.5 -13.5q4 -14 1.5 -25t-10 -17t-18 -5.5t-21.5 11.5z" />
    <glyph glyph-name="Y" unicode="Y" horiz-adv-x="343" 
d="M131 552l-113 183q-8 12 -5 21.5t11 13.5t20 2t22 -13q4 -5 19.5 -26.5l33 -46.5l32.5 -46.5l19 -27.5l103 158q32 20 46 6.5t0 -51.5l-122 -179l14 -534q-4 -15 -13 -19t-19 -0.5t-18 13t-10 21.5z" />
    <glyph glyph-name="Z" unicode="Z" horiz-adv-x="325" 
d="M115 522q-12 1 -28.5 -0.5l-31.5 -3t-25 0t-9 10.5q-11 19 -6 30.5t18.5 17.5t32.5 8.5t35.5 2.5t27.5 -1t10 0l12.5 29.5t16 41.5l13 37.5l5.5 16.5q-12 2 -30 1.5t-37.5 -0.5t-37.5 1t-31.5 6.5t-20.5 16.5t-2 30q19 12 46.5 14t57.5 -0.5t60.5 -6t54.5 -2.5
q12 -3 14 -17.5t-2.5 -35t-12.5 -44t-16 -43.5l-14 -34.5t-5 -16.5q50 6 72 -0.5t28 -18.5t2.5 -25t-4.5 -21h-120l-110 -442q8 -1 32 2t54 5.5t61 2.5t53.5 -6.5t32 -21t-4.5 -40.5q-24 -1 -57.5 -4.5t-68.5 -6t-68.5 -2.5t-57.5 5.5t-35.5 19t-2.5 37.5z" />
    <glyph glyph-name="grave" unicode="`" horiz-adv-x="109" 
d="M42 846q-8 10 -15 28t-7 33.5t9.5 23.5t33.5 0q23 -24 33 -52t7.5 -46t-18 -18.5t-43.5 31.5z" />
    <glyph glyph-name="bracketleft" unicode="[" horiz-adv-x="235" 
d="M54 24q-21 14 -29.5 42t-10 60.5t1 63.5t2.5 51q0 21 1 64t2.5 98t2.5 115t2.5 115t2 98t1.5 64q7 23 28 39t47.5 25t54 10t46.5 -5.5t25.5 -20.5t-8.5 -36q-32 3 -62 2.5t-59 -14.5q-2 -2 -7 -6t-5 -6v-711h109q14 0 15.5 -8t-6.5 -18.5t-24 -21t-37 -16t-45 -3
t-48 18.5z" />
    <glyph glyph-name="backslash" unicode="\" horiz-adv-x="259" 
d="M60 446q-26 40 -40.5 92.5t-19.5 100.5q2 7 8.5 10t14.5 4t15 0t10 -2q1 -1 5.5 -10t6.5 -14q27 -72 49.5 -140.5l43.5 -136.5l42 -136.5t46 -141.5q6 -35 -0.5 -52.5t-18 -20.5t-23.5 7t-18 30z" />
    <glyph glyph-name="bracketright" unicode="]" horiz-adv-x="283" 
d="M139 12q-3 0 -12 0.5t-18.5 0.5t-18.5 -0.5t-12 -0.5q-10 21 -5 31t19 14.5t32.5 6.5t35.5 5.5t28.5 12t10.5 26.5q-2 51 -6 122l-8 147l-8 150.5l-7 134l-5 96t-2 37.5l-12 42h-145q-8 0 -10.5 8.5t-2 19t4 19t8.5 8.5h169q11 0 18.5 -18t13.5 -45.5t10 -61t7 -64.5
l5.5 -55.5t5.5 -33.5l3 -62.5t4 -96t5 -112.5t5 -112.5t4 -96l3 -62.5q1 -27 -11.5 -40t-31 -18.5t-40 -4.5t-37.5 3z" />
    <glyph glyph-name="asciicircum" unicode="^" horiz-adv-x="358" 
d="M290 352q-14 -27 -24.5 -34t-19 -2.5t-15.5 18.5l-15.5 30.5t-18 32t-22.5 23.5q-25 -43 -37 -69t-20 -35t-16.5 -2t-27.5 30q4 18 16 38.5t26.5 41l30 40.5t26.5 38q13 4 27 -12t28.5 -40.5l30 -52t31.5 -45.5z" />
    <glyph glyph-name="underscore" unicode="_" horiz-adv-x="373" 
d="M12 24q-4 9 -1.5 20.5t13.5 15.5q11 0 33.5 1t51 2.5t60 2.5t60 2.5t51 2t33.5 1.5q31 1 37 -9.5t-4.5 -24t-32.5 -25.5t-48 -13q-13 0 -45.5 -0.5t-69 -0.5t-69 0.5t-45.5 0.5q-4 2 -13 11t-11 13z" />
    <glyph glyph-name="a" unicode="a" horiz-adv-x="377" 
d="M114 12q-23 24 -41 65t-31 93.5t-20 112t-8 120t5.5 118t20.5 106t36.5 83.5t54.5 51q35 17 65 11t52.5 -29t36.5 -61t18 -84q1 -115 2.5 -188.5t4.5 -120t8.5 -74t15 -50.5t23.5 -48.5t34 -68.5q-11 -22 -23.5 -26t-25 3.5t-24.5 22.5t-21.5 32t-16.5 31.5t-9 21.5
q-5 -23 -19.5 -53t-35 -52.5t-47 -30t-55.5 14.5zM136 60q19 -14 36 5.5t31 62t24 101.5t15.5 123t5.5 127.5t-6.5 114.5t-20 84.5t-35.5 36.5q-25 6 -43.5 -9.5t-29.5 -38.5q-15 -32 -24 -82t-12 -107.5t-0.5 -119.5t10 -118.5t20 -103.5t29.5 -76z" />
    <glyph glyph-name="b" unicode="b" horiz-adv-x="369" 
d="M14 762q5 18 14.5 23t19 2.5t17.5 -10.5t11 -17q1 -8 1.5 -32.5t0.5 -52.5t0.5 -52.5t1.5 -31.5q17 18 39.5 31t47 19t49.5 3t48 -19q39 -27 58 -69.5t24.5 -90.5t1 -96.5t-12.5 -87.5q-3 -29 -19 -64t-41 -70t-56.5 -66t-64.5 -51.5t-65.5 -27t-58.5 7.5zM79 493
q0 -13 0.5 -46t0.5 -76t0.5 -91t1 -91t1.5 -76t2 -46q56 13 95.5 51.5t65 90t36 110.5t8 111t-17.5 92t-42 54.5t-65 -3.5t-86 -80z" />
    <glyph glyph-name="c" unicode="c" horiz-adv-x="289" 
d="M239 3q-56 -21 -97.5 4.5t-68 80t-39.5 130.5t-12.5 157.5t14.5 159t41 136t65.5 88.5t89.5 16q15 -4 24.5 -16.5t10.5 -25t-8 -22t-30 -7.5q-30 20 -55 -1t-44 -67.5t-31 -112t-14.5 -135t4 -135t25.5 -113t50 -69.5t76 -3q28 -19 24 -37.5t-25 -27.5z" />
    <glyph glyph-name="d" unicode="d" horiz-adv-x="374" 
d="M109 11q-32 21 -52 62.5t-28.5 94.5t-7.5 112.5t11.5 116.5t29.5 106.5t44.5 82t58 43.5t69.5 -9q-2 8 -2.5 28.5t1 44t5.5 46.5t12 38.5t20 18t30 -14.5q-5 -162 -4 -275t6 -190t14 -124t20.5 -75.5t25.5 -45t30 -33.5q5 -9 2.5 -20t-9 -19t-16 -10t-19.5 6
q-12 10 -20 25l-15.5 30t-16 28.5t-21.5 21.5q-4 3 -11.5 -7l-18 -25t-25 -31.5t-32 -27.5t-38 -12t-43.5 14zM129 69q26 -10 45 0t32 34t21.5 59.5t13 76t5.5 83t0.5 81.5t-2.5 71t-4 51q-20 34 -40.5 36t-39.5 -17.5t-35 -57t-27 -84t-16 -97t-2.5 -96.5t14.5 -83.5
t35 -56.5z" />
    <glyph glyph-name="e" unicode="e" horiz-adv-x="338" 
d="M152 11q-41 23 -67 64.5t-40 92.5t-19 107.5t-4.5 109.5t4.5 98.5t7 75.5q10 93 39.5 140.5t66.5 62t75.5 1t66 -43t38 -69.5t-8.5 -79q-51 -2 -103.5 -5.5t-103.5 -18.5q-5 -36 -10 -89t-4.5 -110t8 -111t26.5 -92.5t51.5 -54.5t82.5 3q23 19 36.5 18.5t16.5 -11.5
t-4.5 -29t-26.5 -33t-50.5 -24t-76.5 -3zM245 626q8 12 2.5 27t-19 26.5t-32 17t-36 -0.5t-31 -26t-16.5 -60z" />
    <glyph glyph-name="f" unicode="f" horiz-adv-x="278" 
d="M100 654q1 24 2.5 55t6.5 63.5t15.5 63.5t28.5 55q18 22 43.5 36t54 15.5t58.5 -10.5t57 -40q5 -5 4 -18t-6.5 -25t-13.5 -17.5t-17 3.5q-18 19 -39 29t-41 10t-37 -10t-29 -29q-9 -15 -13.5 -37t-6.5 -46.5t-2.5 -48.5t-3.5 -44q34 -3 51 -2.5t25.5 2.5t10.5 3.5t6 -1.5
q22 -16 23.5 -35t-21.5 -28q-6 -3 -17.5 -5t-24.5 -3t-26.5 -1t-23.5 1l-4 -560q-2 -21 -9 -29t-16 -7t-18.5 9.5t-16.5 20.5l5 569l-99 3q-17 -5 -25.5 0.5t-9 15.5t7 20.5t22.5 16.5q2 1 17 2t32.5 1.5t32.5 1t17 0.5z" />
    <glyph glyph-name="g" unicode="g" horiz-adv-x="322" 
d="M41 92q-7 16 -3 28t13 18.5t19 6.5t16 -6q42 -50 71.5 -65t48.5 -3.5t28 46t11 83.5t-2 109.5t-11 124.5q-45 -21 -88.5 -13.5t-75.5 36.5t-47.5 76t-5.5 106q6 36 26.5 65t47.5 48.5t58 26.5t58.5 -0.5t47 -32.5t25.5 -70q9 -129 16 -242t6 -201t-13 -147.5t-41.5 -81.5
t-79 -2t-125.5 90zM106 497q43 -22 67 -12.5t35.5 35.5t12 61.5t-4.5 66.5t-12.5 49.5t-12.5 10.5q-41 10 -68.5 -9t-39 -53t-6.5 -75t29 -74z" />
    <glyph glyph-name="h" unicode="h" horiz-adv-x="336" 
d="M12 767q-2 9 6.5 15t20.5 8t22.5 -1t12.5 -11l-4 -180q54 36 99.5 39.5t78.5 -18.5t51.5 -66t17.5 -102l5 -400q3 -26 -7 -38.5t-23.5 -15.5t-24.5 3.5t-9 18.5l-2 434q0 19 -8 39t-21.5 36.5t-30.5 26.5t-34.5 9.5t-33.5 -15t-27 -47.5q-8 -57 -10.5 -99.5t-1 -78
t4.5 -68t5 -68.5t2.5 -80t-4.5 -102q-2 -4 -11 -11t-20 -10.5t-20 1t-9 22.5z" />
    <glyph glyph-name="i" unicode="i" horiz-adv-x="136" 
d="M36 663q0 19 10 26t21.5 5.5t21 -10t9.5 -18.5l-4 -644q-6 -12 -16 -18t-20 -5t-17.5 7.5t-8.5 19.5zM30 751q-13 12 -11 32t14 35t31.5 17t41.5 -22q10 -7 10 -24.5t-9.5 -31.5t-29 -19t-47.5 13z" />
    <glyph glyph-name="j" unicode="j" horiz-adv-x="218" 
d="M4 -160q-12 11 -15 26.5t0.5 28t13 18t23.5 -1.5q27 -27 45.5 -23.5t30 29.5t18 71.5t8.5 102.5t1 122t-4 131l-6 129t-5 115.5t-2 90.5t3 55q5 15 14.5 18t18.5 -1t16 -13t8 -17q19 -285 22 -473t-15 -291.5t-60.5 -129.5t-114.5 13zM96 828q-13 12 -11 32t14 35
t31.5 17t41.5 -22q10 -7 10 -24.5t-9.5 -31.5t-29 -19t-47.5 13z" />
    <glyph glyph-name="k" unicode="k" horiz-adv-x="330" 
d="M19 758q-4 22 6 29.5t23.5 5t24.5 -12t10 -21.5q1 -11 1.5 -35t1 -51t0.5 -51v-35l111 80q10 7 19 0t14 -19.5t4.5 -26.5t-9.5 -21l-92 -76l171 -462q12 -17 7.5 -29.5t-15 -19t-24 -7t-19.5 5.5l-169 463q-1 -131 -0.5 -216.5t0.5 -137.5v-77t-2 -34t-7 -8.5t-13 -0.5
q-4 0 -10 -0.5t-11.5 -0.5t-9.5 0.5t-4 1.5l-8 756v0z" />
    <glyph glyph-name="l" unicode="l" horiz-adv-x="131" 
d="M39 757q0 13 9 19.5t20.5 6.5t21 -6.5t9.5 -19.5l2 -735q0 -8 -10 -15t-21.5 -10t-21.5 -0.5t-10 13.5z" />
    <glyph glyph-name="m" unicode="m" horiz-adv-x="557" 
d="M19 762q-1 10 7 17t18.5 9t20 -1t11.5 -12l6 -96q8 22 21 43t29.5 35.5t34.5 19.5t37 -4.5t37.5 -37t34.5 -77.5q21 39 44.5 70t47.5 47t47.5 13.5t44 -29.5t36.5 -82t25 -144.5t10.5 -217t-7.5 -299.5q-13 -15 -24.5 -17.5t-20 1.5t-13.5 9.5t-5 6.5q-1 30 -1.5 76.5
t-1 102t-2 116.5t-4 119.5t-6.5 110.5t-11 89.5t-16.5 57.5t-22.5 14q-17 -8 -30.5 -25t-23.5 -48t-16.5 -77t-8.5 -110q-19 -5 -30 -3.5t-19 14.5l-19.5 81.5t-22.5 80.5t-24.5 60t-24.5 21q-17 -3 -36 -49t-32.5 -132.5t-16.5 -213t12 -290.5q-1 -8 -11.5 -11.5
t-22.5 -3.5t-22.5 4.5t-12.5 13.5z" />
    <glyph glyph-name="n" unicode="n" horiz-adv-x="385" 
d="M352 30q-3 -15 -12.5 -22.5t-20 -8.5t-19.5 4t-10 15l5 558q3 60 -10.5 95t-36 47.5t-49 4t-49.5 -36t-38.5 -73.5t-15.5 -107v-479q-4 -13 -15.5 -16t-23.5 -0.5t-20 8.5t-5 11l-19 718q-3 19 9 30.5t26.5 9.5t23 -20t-2.5 -57q15 26 41.5 45t57 27.5t63 7t60 -16
t47.5 -43t27 -71.5l-13 -630v0z" />
    <glyph glyph-name="o" unicode="o" horiz-adv-x="367" 
d="M114 24q-26 21 -45 60t-32 89.5t-19.5 109t-7 119.5t4.5 120.5t16 112.5q6 21 21 45t36 44.5t46 34.5t51 16t50.5 -11t45.5 -46q27 -51 43 -113.5t22 -129.5t2.5 -134t-15.5 -126.5t-32 -106.5t-48 -75t-63 -32t-76 23zM85 579q-12 -124 -9 -214t16 -150.5t33 -94
t40.5 -45t39.5 -3t30 31.5q8 8 16.5 38.5t14.5 75.5t9.5 100.5t2.5 113.5t-7.5 113t-19.5 99q-13 39 -37 52t-49.5 3.5t-47.5 -40.5t-32 -80z" />
    <glyph glyph-name="p" unicode="p" horiz-adv-x="287" 
d="M28 14q-1 3 -0.5 15.5t0.5 42v81t-1.5 133t-4.5 197t-8 274.5q60 20 106 16.5t78 -22.5t50.5 -50.5t23.5 -68t-4.5 -73.5t-33 -67t-60.5 -50t-89 -22l-2 -408q-4 -7 -12 -14.5t-16.5 -10t-16 3t-10.5 23.5zM82 484q28 -9 52 2.5t41 34.5t26.5 53t8.5 58t-13 50.5
t-38 29.5q-17 3 -32 4.5t-27 1t-19 -4t-7 -10.5z" />
    <glyph glyph-name="q" unicode="q" horiz-adv-x="410" 
d="M246 5q-7 55 -11.5 107.5t-7.5 105l-6 106.5t-8 113q-44 -49 -79 -58.5t-60.5 7t-41 53.5t-19.5 82t3 92.5t27 85t53.5 59t80.5 14.5q13 -4 29.5 -12t31 -39.5t24 -97.5t8.5 -186q20 -12 38 -30t32.5 -40.5t24.5 -47.5t14 -51q7 -67 -1 -119.5t-27.5 -87.5t-47 -50
t-57.5 -6zM289 85q19 22 27.5 57t7 72.5t-12 71.5t-29.5 55zM68 531q5 -38 17.5 -58.5t28.5 -26.5t33.5 1t32 23.5t24 42t9.5 55.5q4 61 -7 93.5t-29 41.5t-39.5 -1.5t-39 -35t-27 -60t-3.5 -75.5z" />
    <glyph glyph-name="r" unicode="r" horiz-adv-x="347" 
d="M46 8q-2 31 -2 82.5t0.5 115.5t0.5 137t-2.5 148t-8.5 147.5t-17 135.5q1 3 8 9t15 10t15.5 3.5t9.5 -10.5l24 -108q15 15 35.5 37.5t48.5 40.5t65.5 25.5t86.5 -7.5q3 0 9.5 -7t10.5 -16.5t1.5 -19.5t-16.5 -17q-20 1 -42 3.5t-45.5 -2.5t-47 -21t-45.5 -52
q-23 -38 -33 -88.5t-12.5 -107t0.5 -115l6 -112.5t4 -99.5t-4.5 -75t-20.5 -40.5t-44 4z" />
    <glyph glyph-name="s" unicode="s" horiz-adv-x="292" 
d="M157 -4q-25 -2 -47 6.5t-39 20t-27.5 22.5t-12.5 14q-7 15 -2.5 26t14.5 17t22.5 5t22.5 -10q18 -19 36 -28t34 -6t28.5 18.5t17.5 46.5q-1 16 -3 34.5t-8 43.5t-17 59.5t-30 81t-48 107.5l-70 141q-13 29 -12 57.5t13 52t34 41.5t49.5 25.5t60 3t66.5 -24.5
q10 -10 10 -21.5t-7 -20.5t-17 -14t-19 -1q-17 7 -41.5 12.5t-45 1t-31.5 -22.5t-1 -59q6 -26 23.5 -63.5l39.5 -82l46 -93.5t42 -98t27.5 -95t2.5 -85t-33 -68t-78 -44z" />
    <glyph glyph-name="t" unicode="t" horiz-adv-x="279" 
d="M256 -30q4 5 9 -9t7 -31.5t-1.5 -32t-17.5 -9.5q-31 10 -57.5 21.5t-47.5 38.5t-36 74.5t-24 129.5t-11 204.5t4 298.5h-102q-15 3 -16.5 20t8.5 46h110l3 125q4 20 21 20t43 -8l-2 -134l123 3q7 0 10.5 -9.5t2.5 -20.5t-7 -20.5t-17 -9.5l-111 -6q-4 -153 -5.5 -261
t1 -181.5t10 -118t21 -70t33.5 -38t49 -22.5z" />
    <glyph glyph-name="u" unicode="u" horiz-adv-x="371" 
d="M18 734q2 17 12 27t21 12t20.5 -4t10.5 -21l-5 -538q-2 -21 2 -45.5t13 -45t22.5 -33t30.5 -9.5t36 24.5t40 70.5q7 19 11 55.5t5.5 84t1.5 103v112.5t-0.5 112t1.5 103q6 29 25 33t37 -22q6 -62 5 -131.5t-3 -139.5t-2.5 -137.5t5 -126t20 -104t43.5 -71.5
q6 -11 0.5 -19t-15.5 -11.5t-21.5 -3.5t-17.5 5q-11 2 -20 13.5t-16.5 26t-13.5 29t-10 21.5q-5 -22 -22.5 -44.5t-42 -37.5t-52 -20t-52 8t-43 47t-23.5 97z" />
    <glyph glyph-name="v" unicode="v" horiz-adv-x="459" 
d="M230 29l-10 33l-10.5 35.5l-18 62l-33.5 112.5l-57 187l-88 285q-8 17 0 27t22 11.5t28 -7.5t19 -30q0 -1 3 -8t10 -29l19.5 -62l33 -106.5l49 -164l68.5 -233.5l115 616q4 20 15 26t22.5 2.5t20 -13.5t8.5 -20l-140 -726q-5 -13 -13.5 -20t-19.5 -7.5t-22.5 7
t-20.5 22.5z" />
    <glyph glyph-name="w" unicode="w" horiz-adv-x="647" 
d="M94 4q-23 17 -38 60.5t-23 103.5t-11 133t-3 150t1 154t1 145q0 9 8.5 16t19 9.5t20 -1t9.5 -15.5q0 -175 3.5 -295.5t8 -197t9 -115t7.5 -48.5q19 -37 42 -35.5t43.5 57.5t36 174.5t19.5 315.5q1 13 10 16.5t20 1t20 -8t11 -10.5l7 -94t11 -115t17 -119.5t23 -108.5
t30 -81.5t38 -38t47 21t58 95.5q20 76 24 145t-0.5 135t-13 132.5t-13.5 139.5q-1 16 5.5 26.5t17 13.5t21.5 -2t19 -19q6 -47 12 -111.5t9 -135t0 -143.5t-16 -138.5t-37.5 -118t-65.5 -82.5q-56 -26 -87.5 -16.5t-52.5 45.5t-38 95.5t-42 135.5q-8 -59 -22 -115t-35.5 -97
t-53.5 -59.5t-76 -0.5z" />
    <glyph glyph-name="x" unicode="x" horiz-adv-x="446" 
d="M71 14q-6 -9 -17.5 -9.5t-21.5 4t-16 13t-2 18.5l150 519q-3 5 -12.5 19l-21.5 32l-25.5 38.5l-25.5 38.5l-21 31.5t-12 19.5q-11 21 -0.5 34.5t39.5 0.5q15 -7 29.5 -26.5t28 -42l27 -43.5t26.5 -31l86 146q3 7 11 8t17.5 -2t17.5 -9.5t10 -13.5l-101 -202l38 -123
t43.5 -128.5t51 -126.5t61.5 -116q7 -12 8 -24.5t-4 -21.5t-16.5 -13t-29.5 1q-24 43 -49.5 97.5t-49.5 113.5t-46 119t-40 114l-133 -435v0z" />
    <glyph glyph-name="y" unicode="y" horiz-adv-x="298" 
d="M46 -105q-12 9 -18 23.5t-4 26t12.5 15.5t31.5 -6q35 -29 60.5 -25.5t43.5 29.5t29.5 70.5t17.5 97.5t8 110.5t1 109.5t-4.5 94t-7.5 65q-31 -28 -59.5 -32t-52.5 9t-43 39.5t-31.5 60.5t-17.5 71.5t-2 72.5q5 28 16.5 39t23.5 10.5t20.5 -10t8.5 -23.5
q-7 -12 -8.5 -37.5t2 -54.5t13 -56.5t24.5 -42.5t36.5 -13t49.5 32q8 4 11 25t3.5 49.5t0 58.5t0.5 51q1 12 8 24t16 15.5t18 -4.5t12 -35q13 -133 19.5 -261.5t2.5 -239.5t-19 -198.5t-44 -138.5t-73 -59.5t-105 38.5z" />
    <glyph glyph-name="z" unicode="z" horiz-adv-x="386" 
d="M24 11q-1 1 0 7.5t6 26l14 55l25.5 96l40.5 148.5l59 213h-101q-9 0 -12 7.5t-1 17.5t8.5 18.5t16.5 10.5q6 1 21.5 3t33 4t33 3.5t21.5 1.5q11 20 20.5 46.5t3.5 50.5h-193q-9 0 -12 7t-1.5 15.5t5.5 16t8 9.5q59 6 125.5 10t127.5 2q22 -15 25 -34t-3 -41t-17 -44.5
t-17 -43.5h96q7 0 10.5 -9.5t3.5 -20.5t-3.5 -20.5t-10.5 -9.5h-120l-137 -478h186q14 0 15 -9t-4 -19.5t-12.5 -20.5t-10.5 -11z" />
    <glyph glyph-name="braceleft" unicode="{" horiz-adv-x="246" 
d="M115 -70q-42 25 -63.5 66.5t-28.5 91t-2 103.5t16.5 106t26.5 97.5t27 77.5q7 18 -3.5 31t-25.5 23.5l-29.5 20.5t-15.5 22.5t17.5 29.5t68.5 42q4 13 0 30t-10 34.5t-10 34.5t0 31q20 47 44 65t42 18.5t25 -11t-6 -21.5q-11 -14 -28 -27.5t-21 -33.5q-5 -27 -0.5 -46
t11 -33l11.5 -25.5t2.5 -23.5t-16 -27.5t-44.5 -36.5q-5 -5 -0.5 -9t13.5 -9l20 -11.5t19.5 -15.5t11.5 -21.5t-3 -30.5q-19 -14 -34.5 -45t-27.5 -71t-18.5 -87t-6 -92.5t8.5 -87t25.5 -71t45 -44.5t67.5 -8q17 -3 16.5 -17.5t-15.5 -26.5t-43 -13.5t-67 21.5z" />
    <glyph glyph-name="braceright" unicode="}" horiz-adv-x="221" 
d="M96 -75q-39 -23 -67 -21.5t-43 13.5t-15.5 26.5t16.5 17.5q40 -7 67.5 8t45 44.5t25.5 71t8.5 87t-6 92.5t-18.5 87t-27.5 71t-34.5 45q-7 18 -3.5 30.5t12 21.5t19.5 15.5l20 11.5t13.5 9t-0.5 9q-31 21 -44.5 36.5t-16 27.5t2.5 23.5l11.5 25.5t11 33t-0.5 46
q-4 20 -21 33.5t-28 27.5q-13 10 -6 21.5t25 11t42 -18.5t44 -65q4 -14 0 -31t-10 -34.5t-10 -34.5t0 -30q50 -25 68.5 -42t17.5 -29.5t-15.5 -22.5l-29.5 -20.5t-25.5 -23t-3.5 -31.5q12 -32 27 -77.5t26.5 -97.5t16.5 -106t-2 -103.5t-28.5 -91t-63.5 -66.5z" />
    <glyph glyph-name="asciitilde" unicode="~" horiz-adv-x="415" 
d="M21 508q9 11 18.5 29t22 33.5t29 25t39 4t53 -30.5t70.5 -77q24 -17 39 -16t24.5 13t14.5 29.5t8.5 34.5t6 28t6.5 9q31 -8 39 -30.5t0 -48.5t-29.5 -50.5t-49.5 -36t-59.5 -4.5t-59.5 44l-28 40.5t-26 24t-26.5 -5.5t-28.5 -48q-9 -18 -21 -20.5t-22.5 4.5t-16.5 21
t-3 28z" />
    <glyph glyph-name="Euro" unicode="&#x20ac;" horiz-adv-x="568" 
d="M551 236q-21 -106 -65.5 -165t-97 -76.5t-106.5 3t-95.5 74t-63 135.5t-8.5 188q-17 -5 -43 -5t-46 6.5t-28 21t11 39.5q5 7 19 7t31 -2.5t34 -3.5t28 4l21 77q-27 0 -52 -0.5t-40 5.5t-15.5 21.5t23.5 47.5h18t35 -0.5t34.5 -1t17.5 0.5q7 19 20.5 46.5t34 53.5t46.5 46
t57 26.5t67 -6t75 -51.5q17 -21 16.5 -40t-10.5 -30t-25.5 -12t-27.5 15q-8 30 -23 43.5t-33 15t-37.5 -7.5t-35.5 -24t-26.5 -34t-11.5 -38l119 3q4 0 7 -9.5t4 -21.5t0.5 -22.5t-2.5 -12.5l-153 -12q-5 -1 -10.5 -12.5t-10 -25.5t-7.5 -27.5t-2 -17.5l174 10
q1 -4 1.5 -18.5t-14.5 -29t-53.5 -25t-115.5 -6.5q-6 -106 13 -174t51 -102.5t71.5 -38t76 21t64 73.5t35.5 119q26 7 42.5 -8.5t11.5 -42.5z" />
    <glyph glyph-name="exclam" unicode="!" horiz-adv-x="114" 
d="M30 24q-6 10 1.5 22.5t20.5 19.5t27.5 4.5t22.5 -22.5q9 -22 2.5 -34t-20 -14t-29.5 4t-25 20zM42 205q-2 14 -3 56.5t-2.5 98.5t-2.5 118.5t-2 118.5t-2.5 98t-2.5 56q-2 20 6.5 28.5t19.5 8t21.5 -10t12.5 -26.5q5 -31 7.5 -75t3.5 -94t0.5 -103.5t-2 -103.5t-3.5 -94
t-3 -76q-2 -7 -9 -10.5t-14.5 -3.5t-14.5 3.5t-10 10.5z" />
    <glyph glyph-name="quotedbl" unicode="&#x22;" horiz-adv-x="235" 
d="M60 614q4 20 -1 37t-12 33t-11.5 31t0.5 32q3 10 15.5 13.5t20.5 -1.5q16 -10 27.5 -28.5t16.5 -39t4.5 -40.5t-7.5 -33t-20 -15.5t-33 11.5zM152 620q4 20 -1 37t-12 33t-11.5 31t0.5 32q3 10 15.5 13.5t20.5 -1.5q16 -10 27.5 -28.5t16.5 -39t4.5 -40.5t-7.5 -33
t-20 -15.5t-33 11.5z" />
    <glyph glyph-name="numbersign" unicode="#" horiz-adv-x="682" 
d="M415 292l-146 -4v-97q0 -7 -10 -10t-22 -4t-22.5 0t-11.5 2v109q0 7 -10.5 6t-25.5 -5t-33.5 -8.5t-33.5 -4t-25.5 8t-10.5 27.5q0 13 10 17t24.5 5.5t31 3.5t29 11.5t18.5 30t0 59.5q-2 11 -12 15t-22.5 5t-26.5 0.5t-24 2.5t-14.5 11t1.5 25q4 13 20 15.5t32.5 2.5
t30 2.5t13.5 15.5q0 33 1.5 52t3.5 29t4 13t3 3q22 6 34 -2.5t17.5 -24t6.5 -35t3 -35.5q26 -8 59 -12t61 0q17 2 22 12t3.5 23.5t-6.5 28.5t-8.5 29t-1.5 25t15 15q25 8 36 -6t17 -36.5t11.5 -45.5t20.5 -33q1 0 14.5 2.5t31.5 4t38 1.5t34.5 -4.5t19.5 -13.5t-6 -26
q-8 -10 -22.5 -13t-31 -4l-33.5 -2t-29.5 -7.5t-18 -21.5t-0.5 -42l2.5 -12t3.5 -14t3.5 -11.5t2.5 -4.5h156q9 0 12 -11.5t1 -25t-8.5 -24.5t-16.5 -11h-138v-127q0 -7 -9.5 -10.5t-21 -3.5t-21 3.5t-9.5 10.5zM257 360h144q11 0 13 14t0 31t-5.5 31t-4.5 14h-144z" />
    <glyph glyph-name="bar" unicode="|" horiz-adv-x="753" 
d="M279 -4q-4 14 1.5 24t15.5 24t22 34t21 52.5t12 80.5t-4 118q-23 -12 -33.5 -34.5t-19.5 -47t-21.5 -46.5t-39.5 -33q-39 -17 -63.5 -8t-39.5 29.5t-25 45.5t-21 41l-7.5 7.5t-14.5 13.5l-15 13t-8 8q-21 28 -13 55t31 48.5t53.5 37t54.5 20.5q-9 12 -23 21l-28 17.5
t-25.5 19.5t-15.5 28q-8 34 -3 56.5t19.5 37.5t37 25t49.5 20q36 49 69.5 61t61 -3t47 -51t27.5 -82q23 15 41.5 37.5l37.5 44.5t41 40.5t53 26.5q34 3 49 -8.5t26 -28.5t25 -36.5t47 -32.5q23 -29 19 -57t-23 -52.5t-46.5 -43.5t-52.5 -29q-9 -4 -18 -7t-19 -6
q21 -6 42.5 -10.5t42 -11t40 -17t35.5 -28.5q18 -29 15 -47.5t-13.5 -36t-21 -39t-7.5 -56.5q-22 -34 -48 -44t-53 -4.5t-54 23.5t-50 41.5t-42 48t-30 44.5q1 -43 2.5 -91.5t-1 -99t-11 -100.5t-26.5 -96q-1 -1 0 6.5t2 17t1.5 17t-1.5 6.5t-5.5 -1t-5.5 1zM393 501
q22 -5 54.5 4t65 23.5t60 32t40.5 31t6 19.5t-44 -3q-15 -4 -26 5.5t-21 20.5t-20.5 18t-23.5 -1q-13 -6 -28 -24.5t-28 -40t-22.5 -42.5t-12.5 -32v-11zM188 264q7 -11 14.5 -18.5t20 6t34 55.5t56.5 129q-14 1 -34.5 0t-41.5 -3t-38 -4.5t-23 -3.5q-37 -8 -49.5 -17
t-9.5 -17.5t17 -16.5t30.5 -14.5l30 -11.5t15.5 -8q6 -8 2.5 -18t-10.5 -20t-12 -19.5t-2 -18.5zM488 391q9 -44 31.5 -76t45 -44.5t38 -1.5t11.5 53q-2 15 6 24.5t15 17t8.5 14t-11.5 15.5q-11 9 -31 11t-41.5 0t-41 -6t-30.5 -7zM188 544q2 -1 15 -5.5t29.5 -9.5l32.5 -10
t25 -7q2 -1 6 -1t5 1v107q0 16 -16 20t-37.5 -0.5t-44 -15.5t-35 -25t-10 -28.5t29.5 -25.5z" />
    <glyph glyph-name="dollar" unicode="$" horiz-adv-x="287" 
d="M104 17q-12 6 -31.5 18.5t-31.5 28.5t-10 32.5t33 28.5q24 -19 41 -27l2 391l-15.5 30t-15.5 27q-35 51 -51 94.5t-12.5 74.5t28 46t69.5 10v22q0 13 9 19.5t20.5 6.5t21 -6.5t9.5 -19.5v-36l48 -18q6 -4 11.5 -16.5t3.5 -24t-16 -15.5t-48 10v-190q18 -38 38.5 -90.5
t35.5 -108.5t22.5 -110.5t1.5 -97t-29.5 -68.5t-70.5 -24v-48q0 -8 -10 -15t-21.5 -10t-21.5 -0.5t-10 13.5v73zM168 84q19 6 26.5 29.5t6.5 58t-10 77t-23 86.5v-251zM109 708q-18 0 -24 -8.5t-4.5 -22.5t9.5 -31.5t18 -35.5z" />
    <glyph glyph-name="circumflex" unicode="&#x2c6;" horiz-adv-x="295" 
d="M268 838q-14 -26 -24.5 -33.5t-19 -3t-15.5 18.5l-15.5 30.5t-18 32t-22.5 23.5q-25 -43 -37 -69t-20 -35t-16.5 -2t-27.5 30q4 18 16 38.5t26.5 41l30 40.5t26.5 38q13 4 27 -12t28.5 -40.5l30 -52t31.5 -45.5z" />
    <glyph glyph-name="tilde" unicode="&#x2dc;" horiz-adv-x="415" 
d="M25 880q9 11 18.5 29t22 33.5t29 25t39 4t53 -30.5t70.5 -77q24 -17 39 -16t24.5 13t14.5 29.5t8.5 34.5t5.5 28t7 9q31 -8 39 -30.5t0 -48.5t-29.5 -50.5t-49.5 -36t-59.5 -4.5t-59.5 44l-28 40.5t-26 24t-26.5 -5.5t-28.5 -48q-9 -18 -21 -20.5t-22.5 4.5t-16.5 21
t-3 28z" />
    <glyph glyph-name="quoteleft" unicode="&#x2018;" horiz-adv-x="158" 
d="M89 630q-2 -11 -9.5 -13.5t-15.5 0t-15 9.5t-8 16q-7 55 8 84.5t34.5 40t34 5t7.5 -20.5q-10 -20 -15 -33t-8.5 -26t-6 -27z" />
    <glyph glyph-name="quoteright" unicode="&#x2019;" horiz-adv-x="158" 
d="M77 630l-6.5 35t-6 27t-8.5 26t-15 33q-5 10 0.5 16t16.5 6t24.5 -6.5t24.5 -22t17 -40.5t1 -62q-1 -9 -8 -16t-15 -9.5t-15.5 0t-9.5 13.5z" />
    <glyph glyph-name="quotedblright" unicode="&#x201d;" horiz-adv-x="235" 
d="M60 614q4 20 -1 37t-12 33t-11.5 31t0.5 32q3 10 15.5 13.5t20.5 -1.5q16 -10 27.5 -28.5t16.5 -39t4.5 -40.5t-7.5 -33t-20 -15.5t-33 11.5zM152 620q4 20 -1 37t-12 33t-11.5 31t0.5 32q3 10 15.5 13.5t20.5 -1.5q16 -10 27.5 -28.5t16.5 -39t4.5 -40.5t-7.5 -33
t-20 -15.5t-33 11.5z" />
    <glyph glyph-name="quotedblleft" unicode="&#x201c;" horiz-adv-x="235" 
d="M186 614q-20 -14 -33 -11.5t-20 15.5t-7.5 33t4.5 40.5t16 39t28 28.5q8 5 20.5 1.5t15.5 -13.5q5 -17 0.5 -32t-11.5 -31t-12.5 -33t-0.5 -37zM94 620q-20 -14 -33 -11.5t-20 15.5t-7.5 33t4.5 40.5t16.5 39t27.5 28.5q8 5 20.5 1.5t15.5 -13.5q5 -17 0.5 -32t-11.5 -31
t-12.5 -33t-0.5 -37z" />
    <glyph glyph-name="quotedblbase" unicode="&#x201e;" horiz-adv-x="235" 
d="M64 19q4 20 -1 37t-12 33t-11.5 31t0.5 32q3 10 15.5 13.5t20.5 -1.5q16 -10 27.5 -28.5t16.5 -39t4.5 -40.5t-7.5 -33t-20 -15.5t-33 11.5zM156 25q4 20 -1 37t-12 33t-11.5 31t0.5 32q3 10 15.5 13.5t20.5 -1.5q16 -10 27.5 -28.5t16.5 -39t4.5 -40.5t-7.5 -33
t-20 -15.5t-33 11.5z" />
    <glyph glyph-name="quotesinglbase" unicode="&#x201a;" horiz-adv-x="158" 
d="M69 10l-6.5 35t-6 27t-8.5 26t-15 33q-5 10 0.5 16t16.5 6t24.5 -6.5t24.5 -22t17 -40.5t1 -62q-1 -9 -8 -16t-15 -9.5t-15.5 0t-9.5 13.5z" />
    <glyph glyph-name="florin" unicode="&#x192;" horiz-adv-x="268" 
d="M105 593l-99 3q-17 -5 -25.5 0.5t-9 15.5t7 20.5t22.5 16.5q2 1 17 2t32.5 1.5t32.5 1t17 0.5q6 72 25.5 124.5t46.5 87.5t58 53.5t58.5 21t48.5 -10t29 -38.5q2 -7 0.5 -20.5t-6 -24.5t-11.5 -16t-16 4q-33 36 -62 29.5t-51.5 -37.5t-37.5 -77t-21 -91q34 -3 51 -2.5
t25.5 2.5t10.5 3.5t6 -1.5q22 -16 23.5 -35t-21.5 -28q-6 -3 -17.5 -5t-24.5 -3t-26.5 -1t-23.5 1l8 -759q-3 -28 -17.5 -41t-35.5 -15t-46 5.5t-48.5 20t-43 28t-30.5 30.5q-7 15 -2.5 26t14.5 17t22.5 5t22.5 -10q18 -19 34.5 -33t30 -18t24 6.5t15.5 41.5z" />
    <glyph glyph-name="ellipsis" unicode="&#x2026;" horiz-adv-x="441" 
d="M55 21q-11 16 -3 30.5t23.5 22t32 5.5t23.5 -19q5 -10 -1 -23t-18 -21.5t-27.5 -9t-29.5 14.5zM202 21q-11 16 -3 30.5t23.5 22t32 5.5t23.5 -19q5 -10 -1 -23t-18 -21.5t-27.5 -9t-29.5 14.5zM349 21q-11 16 -3 30.5t23.5 22t32 5.5t23.5 -19q5 -10 -1 -23t-18 -21.5
t-27.5 -9t-29.5 14.5z" />
    <glyph glyph-name="breve" unicode="&#x2d8;" horiz-adv-x="295" 
d="M36 917q17 32 31.5 38t19.5 -8q15 -40 30 -57t28 -18t24.5 9.5t20.5 25.5t15.5 29.5t10.5 21.5t12 10t16 1t15 -9.5t8 -22.5q-20 -46 -48 -80t-58.5 -43.5t-63 13t-61.5 90.5z" />
    <glyph glyph-name="caron" unicode="&#x2c7;" horiz-adv-x="295" 
d="M52 948q14 27 24.5 34t19 2.5t15.5 -18.5l15.5 -30.5t18 -32t22.5 -23.5q25 43 37 69t20 35t16.5 1.5t27.5 -29.5q-4 -18 -16 -38.5t-26.5 -41l-30 -40.5t-26.5 -38q-13 -5 -27 11.5t-28.5 41l-30 52t-31.5 45.5z" />
    <glyph glyph-name="dotlessi" unicode="&#x131;" horiz-adv-x="136" 
d="M36 663q0 19 10 26t21.5 5.5t21 -10t9.5 -18.5l-4 -644q-6 -12 -16 -18t-20 -5t-17.5 7.5t-8.5 19.5z" />
    <glyph glyph-name="fraction" unicode="&#x2044;" horiz-adv-x="262" 
d="M6 24q0 1 0.5 6t5.5 27.5t16.5 67.5l32 126l52.5 204l79 301q1 6 11 10t20.5 5t18.5 -2.5t6 -12.5l-182 -732q-3 -15 -12 -21t-18.5 -5.5t-18 7.5t-11.5 19z" />
    <glyph glyph-name="acute" unicode="&#xb4;" horiz-adv-x="109" 
d="M83 846q-28 -32 -43.5 -31.5t-18 18.5t7.5 46t33 52q24 8 33.5 0t9.5 -23.5t-7 -33.5t-15 -28z" />
    <glyph glyph-name="dotaccent" unicode="&#x2d9;" horiz-adv-x="147" 
d="M41 824q-11 16 -3 30.5t23.5 22t32 5.5t23.5 -19q5 -10 -1 -23t-18 -21.5t-27.5 -9t-29.5 14.5z" />
    <glyph glyph-name="periodcentered" unicode="&#xb7;" horiz-adv-x="404" 
d="M219 387q-11 16 -3 30.5t23.5 22t32 5.5t23.5 -19q5 -10 -1 -23t-18 -21.5t-27.5 -9t-29.5 14.5z" />
    <glyph glyph-name="hungarumlaut" unicode="&#x2dd;" horiz-adv-x="218" 
d="M83 846q-28 -32 -43.5 -31.5t-18 18.5t7.5 46t33 52q24 8 33.5 0t9.5 -23.5t-7 -33.5t-15 -28zM192 846q-28 -32 -43.5 -31.5t-18 18.5t7.5 46t33 52q24 8 33.5 0t9.5 -23.5t-7 -33.5t-15 -28z" />
    <glyph glyph-name="ring" unicode="&#x2da;" horiz-adv-x="221" 
d="M19 850q1 31 14.5 49.5t34.5 26t45 5.5t45 -10t34.5 -21t14.5 -28q0 -11 -11.5 -24t-29.5 -23.5t-40 -17t-43 -5.5t-38.5 12t-25.5 36zM68 858q1 -9 13 -11t25.5 1.5t25.5 10.5t15 15q4 4 -9 9t-29 5.5t-29.5 -6t-11.5 -24.5z" />
    <glyph glyph-name="ogonek" unicode="&#x2db;" horiz-adv-x="237" 
d="M153 -115q-17 -4 -34 -2t-31 10t-23.5 22.5t-9.5 35.5q1 36 18.5 55t43.5 24l9 -41q-20 -2 -30 -14t-8.5 -25.5t16.5 -24t46 -10.5z" />
    <glyph glyph-name="cedilla" unicode="&#xb8;" horiz-adv-x="237" 
d="M146 -231q-22 -1 -41 2.5t-34 8.5t-24.5 9.5l-11.5 5.5q-6 6 -4.5 15.5t7.5 17t15 11.5t18 0q15 -8 32 -13.5t32 -7t26.5 3t16.5 17.5q0 24 -11.5 40t-29 23.5t-38.5 7.5t-42 -6l-11 120q1 19 10 24.5t18.5 3.5t17 -8t6.5 -9v-68q22 2 46 -10.5t43 -32.5t30.5 -44
t9.5 -46.5t-21 -40.5t-60 -24z" />
    <glyph glyph-name="eth" unicode="&#xf0;" horiz-adv-x="352" 
d="M333 604q-5 -5 -27.5 -18.5l-48.5 -30.5q26 -55 42 -118.5t20.5 -126.5t-3 -121t-29 -100.5t-57 -65t-86.5 -15.5q-42 12 -69.5 44.5t-41.5 75.5t-15 90t11 86.5t37.5 67t62.5 30.5q27 2 49.5 -10.5t39.5 -29t29 -33t18 -23.5q6 16 3 46t-11.5 63.5t-20 66t-21.5 53.5
q-4 -2 -10 -7t-12 -9.5t-10.5 -8.5t-5.5 -5q-27 -16 -39.5 -11.5t-16 16.5t-1 24t4.5 12l61 38q3 8 -5.5 23.5t-22 35.5l-28.5 44t-26 50q-7 18 -0.5 26.5t18.5 9t24.5 -6t18.5 -17.5q12 -24 21.5 -38l18 -27.5t16 -29.5t16.5 -43l52 37q10 6 19.5 2.5t16.5 -11.5t9.5 -18
t-1.5 -17zM126 344q-19 -2 -32 -20t-19 -44.5t-6 -58t6.5 -61t20 -54t33 -37t46.5 -9t60 29.5q16 32 17.5 63.5t-6.5 60t-23.5 53t-32.5 42.5t-34.5 27t-29.5 8z" />
    <glyph glyph-name="macron" unicode="&#xaf;" horiz-adv-x="308" 
d="M41 805q-7 4 -10 13.5t-1.5 20t8 18.5t17.5 8h193q2 1 10.5 -8t12 -20.5t-5 -22t-39.5 -11.5q-7 0 -34.5 0.5t-58.5 0.5h-58t-34 1z" />
    <glyph glyph-name="minus" unicode="&#x2212;" horiz-adv-x="308" 
d="M63 276q-7 4 -10 13.5t-1.5 20t8 18.5t17.5 8h193q2 1 10.5 -8t12 -20.5t-5 -22t-39.5 -11.5q-7 0 -34.5 0.5t-58.5 0.5h-58t-34 1z" />
    <glyph glyph-name="sterling" unicode="&#xa3;" horiz-adv-x="540" 
d="M473 90q18 -13 24.5 -30.5t4 -30.5t-13.5 -15t-29 16q-24 24 -51.5 38t-56 15.5t-57.5 -10t-54 -38.5q-28 -30 -53 -32.5t-44.5 16t-31.5 56t-14.5 88t6.5 112.5t31 129q-27 0 -53.5 -0.5t-43 5t-18.5 21t22 47.5h18t35 -0.5t34.5 -1t17.5 0.5q6 19 21.5 57.5t38 81.5
t51.5 83t62 63.5t70.5 22t76.5 -40.5q17 -21 16.5 -40t-10.5 -30t-25.5 -12t-27.5 15q-8 30 -24 32.5t-36.5 -13t-42.5 -44.5t-40.5 -60.5t-30.5 -62t-13 -49.5l119 3q4 0 7 -9.5t4 -21.5t0.5 -22.5t-2.5 -12.5l-153 -12q-1 -5 -8 -35.5t-15 -71.5t-14.5 -85t-6.5 -77.5
t8.5 -49t30.5 1.5q33 25 71 37t75.5 12t70 -12t54.5 -34z" />
    <glyph glyph-name="divide" unicode="&#xf7;" horiz-adv-x="390" 
d="M160 187q-8 15 0 27.5t21.5 18t28.5 1t22 -22.5q9 -21 1.5 -33.5t-21 -16t-29 3t-23.5 22.5zM148 416q-12 17 -8 33t15.5 24.5t26.5 7.5t26 -17t7 -31.5t-15.5 -24.5t-26.5 -8.5t-25 16.5zM77 295q-7 4 -10 13.5t-1.5 20t8 18.5t17.5 8h193q2 1 10.5 -8t12 -20.5t-5 -22
t-39.5 -11.5q-7 0 -34.5 0.5t-58.5 0.5h-58t-34 1z" />
    <glyph glyph-name="thorn" unicode="&#xfe;" horiz-adv-x="369" 
d="M14 762q5 18 14.5 23t19 2.5t17.5 -10.5t11 -17q1 -8 1.5 -25t0.5 -36.5t0.5 -36.5t1.5 -24q17 18 39.5 31t47 19t49.5 3t48 -19q39 -27 58 -69.5t24.5 -90.5t1 -96.5t-12.5 -87.5q-9 -39 -32.5 -75.5t-56 -66.5t-71 -52.5t-76.5 -35.5q0 -3 0.5 -16t0.5 -28.5v-29v-16.5
q0 -15 -10.5 -21.5t-23 -5.5t-23 7.5t-10.5 16.5v6t-1 25t-2 66t-3 128.5t-5.5 212.5t-7.5 319zM79 540q0 -13 0.5 -43t1 -68t1.5 -81t1.5 -81t1.5 -68t2 -43q56 13 95.5 49.5t64.5 85.5t35.5 104t8 103t-18 84.5t-42.5 47.5t-65 -8.5t-86 -81.5z" />
    <glyph glyph-name="Thorn" unicode="&#xde;" horiz-adv-x="287" 
d="M19 761q0 16 7.5 23.5t16.5 7.5t17 -7t8 -21l6 -127q68 12 114 -8.5t70 -58.5t26 -86t-18 -91t-62.5 -73t-107.5 -32l5 -269q-2 -7 -7 -14t-13 -10t-19 2t-24 22zM93 352q28 -9 52 2.5t41 34.5t26.5 53t8.5 58t-13 50.5t-38 29.5q-17 3 -32 4.5t-27 1t-19 -4t-7 -10.5z
" />
    <glyph glyph-name="germandbls" unicode="&#xdf;" horiz-adv-x="347" 
d="M85 707q-9 -174 -10 -299.5t0 -211.5t2.5 -137.5t-2.5 -76.5t-16 -29.5t-37 3.5q0 48 -1 116.5t-0.5 145l1 155.5t3 149.5t6.5 126t10 85.5q5 26 23 39.5t40 13t45 -14.5t39.5 -42.5t23 -71t-4.5 -100.5q0 -3 -2 -8l-4.5 -11t-5.5 -11t-4 -7q48 -6 79 -37t44 -76t8.5 -98
t-27 -103t-62.5 -91t-97 -61l3 60q45 19 72 58.5t38.5 85t9 91t-17 78t-39 45.5t-56.5 -7l-18 55q16 10 26 29t13.5 41.5t0.5 45.5t-13 40.5t-27.5 26t-42.5 3.5z" />
    <glyph glyph-name="questiondown" unicode="&#xbf;" horiz-adv-x="276" 
d="M162.007 752.001q11.999 -17.999 8.5 -31.998q-3.5 -13.999 -13.999 -20.999q-10.5 -6.99902 -23.499 -4q-12.999 3 -18.999 20.999q-3 10.999 1 22.499q4 11.499 11.999 18.498q8 7 17.499 7q9.5 0 17.499 -11.999zM173.007 277.029q-32.998 -24.998 -52.9971 -57.4961
t-26.998 -62.9961q-7 -30.498 -2 -54.4971q4.99902 -23.998 21.498 -31.498q16.499 -7.49902 44.498 5.5q27.998 12.999 65.9951 55.9971q32.998 -10 34.998 -29.999q2 -19.998 -15.499 -39.9971t-48.9971 -36.998t-63.9961 -20.998q-32.498 -4 -60.4961 8.99902
t-39.9971 50.9971q-6 25.998 -1.5 59.4961q4.49902 33.498 16.999 67.9961q12.499 34.498 29.998 66.4961t36.4971 53.9961l-16.998 223.986q0 8 7.99902 13q7.99902 4.99902 17.999 5.99902q9.99902 1 19.999 -3q9.99902 -3.99902 13.999 -12.999z" />
    <glyph glyph-name="exclamdown" unicode="&#xa1;" horiz-adv-x="114" 
d="M30 767.002q-6 -10 1.5 -22.499t20.5 -19.499q13 -6.99902 27.5 -4.5q14.5 2.5 22.5 22.499q9 21.999 2.5 33.998t-20 13.999t-29.5 -4q-16 -5.99902 -25 -19.998zM42 586.013q-2 -13.999 -3 -56.4971q-1 -42.4971 -2.5 -98.4941q-1.5 -55.9961 -2.5 -118.492
t-2 -118.493q-1 -55.9961 -2.5 -97.9941q-1.5 -41.9971 -2.5 -55.9961q-2 -19.999 6.5 -28.498q8.5 -8.5 19.5 -8t21.5 10q10.5 9.49902 12.5 26.498q5 30.998 7.5 74.9951q2.5 43.998 3.5 93.9941q1 49.9971 0.5 103.494t-2 103.493q-1.5 49.9971 -3.5 93.9951
q-2 43.9971 -3 75.9951q-2 6.99902 -9 10.499t-14.5 3.5t-14.5 -3.5t-10 -10.499z" />
    <glyph glyph-name="yen" unicode="&#xa5;" horiz-adv-x="343" 
d="M205 209l6 -197q-4 -15 -13 -19t-19 -0.5t-18 13t-10 21.5l-7 181l-62 -1q-9 0 -16 6.5t-9.5 16.5t0.5 21t13 19h72l-3 60h-81q-9 0 -11.5 9t1 20t12 20.5t22.5 11.5h55l-6 161l-113 183q-8 12 -5 21.5t11 13.5t20 2t22 -13q4 -5 19.5 -26.5l33 -46.5l32.5 -46.5
l19 -27.5l103 158q32 20 46 6.5t0 -51.5l-122 -179l4 -155h50q7 0 14 -9.5t9.5 -21t-2.5 -21t-21 -9.5h-49l2 -60h59q18 0 22.5 -9.5t0.5 -20.5t-14 -20.5t-21 -9.5z" />
    <glyph glyph-name="dieresis" unicode="&#xa8;" horiz-adv-x="289" 
d="M36 826q-11 16 -3 30.5t23.5 22t32 5.5t23.5 -19q5 -10 -1 -23t-18 -21.5t-27.5 -9t-29.5 14.5zM183 826q-11 16 -3 30.5t23.5 22t32 5.5t23.5 -19q5 -10 -1 -23t-18 -21.5t-27.5 -9t-29.5 14.5z" />
    <glyph glyph-name="Aacute" unicode="&#xc1;" horiz-adv-x="426" 
d="M128 740q10 21 27.5 31t38 11.5t42 -3.5t38.5 -14.5t27.5 -21t9.5 -22.5l91 -711q2 -7 -8 -10.5t-23.5 -3.5t-25.5 3.5t-15 12.5l-46 458l-132 3l-69 -459q0 -6 -8.5 -12t-19.5 -7.5t-22 5t-15 26.5zM161 536q5 -3 21.5 -4.5t35 -2.5t34 0t20.5 4q4 13 3 37t-6 50
t-13.5 50.5t-18 39.5t-20 16t-20.5 -19q-6 -12 -12 -38.5t-11.5 -54.5t-9 -50.5t-3.5 -27.5zM232 840q-28 -32 -43.5 -31.5t-18 18.5t7.5 46t33 52q24 8 33.5 0t9.5 -23.5t-7 -33.5t-15 -28z" />
    <glyph glyph-name="Abreve" unicode="&#x102;" horiz-adv-x="426" 
d="M128 740q10 21 27.5 31t38 11.5t42 -3.5t38.5 -14.5t27.5 -21t9.5 -22.5l91 -711q2 -7 -8 -10.5t-23.5 -3.5t-25.5 3.5t-15 12.5l-46 458l-132 3l-69 -459q0 -6 -8.5 -12t-19.5 -7.5t-22 5t-15 26.5zM161 536q5 -3 21.5 -4.5t35 -2.5t34 0t20.5 4q4 13 3 37t-6 50
t-13.5 50.5t-18 39.5t-20 16t-20.5 -19q-6 -12 -12 -38.5t-11.5 -54.5t-9 -50.5t-3.5 -27.5zM89 911q17 32 31.5 38t19.5 -8q15 -40 30 -57t28 -18t24.5 9.5t20.5 25.5t15.5 29.5t10.5 21.5t12 10t16 1t15 -9.5t8 -22.5q-20 -46 -48 -80t-58.5 -43.5t-63 13t-61.5 90.5z" />
    <glyph glyph-name="Acircumflex" unicode="&#xc2;" horiz-adv-x="426" 
d="M128 740q10 21 27.5 31t38 11.5t42 -3.5t38.5 -14.5t27.5 -21t9.5 -22.5l91 -711q2 -7 -8 -10.5t-23.5 -3.5t-25.5 3.5t-15 12.5l-46 458l-132 3l-69 -459q0 -6 -8.5 -12t-19.5 -7.5t-22 5t-15 26.5zM161 536q5 -3 21.5 -4.5t35 -2.5t34 0t20.5 4q4 13 3 37t-6 50
t-13.5 50.5t-18 39.5t-20 16t-20.5 -19q-6 -12 -12 -38.5t-11.5 -54.5t-9 -50.5t-3.5 -27.5zM321 832q-14 -26 -24.5 -33.5t-19 -3t-15.5 18.5l-15.5 30.5t-18 32t-22.5 23.5q-25 -43 -37 -69t-20 -35t-16.5 -2t-27.5 30q4 18 16 38.5t26.5 41l30 40.5t26.5 38q13 4 27 -12
t28.5 -40.5l30 -52t31.5 -45.5z" />
    <glyph glyph-name="Agrave" unicode="&#xc0;" horiz-adv-x="426" 
d="M128 740q10 21 27.5 31t38 11.5t42 -3.5t38.5 -14.5t27.5 -21t9.5 -22.5l91 -711q2 -7 -8 -10.5t-23.5 -3.5t-25.5 3.5t-15 12.5l-46 458l-132 3l-69 -459q0 -6 -8.5 -12t-19.5 -7.5t-22 5t-15 26.5zM161 536q5 -3 21.5 -4.5t35 -2.5t34 0t20.5 4q4 13 3 37t-6 50
t-13.5 50.5t-18 39.5t-20 16t-20.5 -19q-6 -12 -12 -38.5t-11.5 -54.5t-9 -50.5t-3.5 -27.5zM194 840q-8 10 -15 28t-7 33.5t9.5 23.5t33.5 0q23 -24 33 -52t7.5 -46t-18 -18.5t-43.5 31.5z" />
    <glyph glyph-name="Adieresis" unicode="&#xc4;" horiz-adv-x="426" 
d="M128 740q10 21 27.5 31t38 11.5t42 -3.5t38.5 -14.5t27.5 -21t9.5 -22.5l91 -711q2 -7 -8 -10.5t-23.5 -3.5t-25.5 3.5t-15 12.5l-46 458l-132 3l-69 -459q0 -6 -8.5 -12t-19.5 -7.5t-22 5t-15 26.5zM161 536q5 -3 21.5 -4.5t35 -2.5t34 0t20.5 4q4 13 3 37t-6 50
t-13.5 50.5t-18 39.5t-20 16t-20.5 -19q-6 -12 -12 -38.5t-11.5 -54.5t-9 -50.5t-3.5 -27.5zM109 820q-11 16 -3 30.5t23.5 22t32 5.5t23.5 -19q5 -10 -1 -23t-18 -21.5t-27.5 -9t-29.5 14.5zM256 820q-11 16 -3 30.5t23.5 22t32 5.5t23.5 -19q5 -10 -1 -23t-18 -21.5
t-27.5 -9t-29.5 14.5z" />
    <glyph glyph-name="AE" unicode="&#xc6;" horiz-adv-x="655" 
d="M128 740q10 21 27.5 31t38 11.5t42 -3.5t38.5 -14.5t27.5 -21t9.5 -22.5l91 -711q2 -7 -8 -10.5t-23.5 -3.5t-25.5 3.5t-15 12.5l-46 458l-132 3l-69 -459q0 -6 -8.5 -12t-19.5 -7.5t-22 5t-15 26.5zM161 536q5 -3 21.5 -4.5t35 -2.5t34 0t20.5 4q4 13 3 37t-6 50
t-13.5 50.5t-18 39.5t-20 16t-20.5 -19q-6 -12 -12 -38.5t-11.5 -54.5t-9 -50.5t-3.5 -27.5zM317 754q0 3 19 5.5t48.5 4.5t65 3t68 1t57.5 -1.5t34 -3.5q6 -2 10 -12t4 -21t-4 -20t-13 -10l-228 -5l8 -211l178 2q9 0 17 -10.5t11.5 -23t1 -23t-14.5 -10.5l-185 -2
q-1 -9 -1.5 -35.5t0 -61.5t1 -75t2 -75.5t3.5 -63t5 -37.5l217 -1q10 0 15.5 -8.5t5.5 -19t-5.5 -20t-15.5 -11.5q-13 -1 -45 -2.5t-68 -3.5t-68.5 -3.5t-45.5 -2.5h-17t-19.5 2.5t-17 7.5t-9.5 14z" />
    <glyph glyph-name="Amacron" unicode="&#x100;" horiz-adv-x="426" 
d="M128 740q10 21 27.5 31t38 11.5t42 -3.5t38.5 -14.5t27.5 -21t9.5 -22.5l91 -711q2 -7 -8 -10.5t-23.5 -3.5t-25.5 3.5t-15 12.5l-46 458l-132 3l-69 -459q0 -6 -8.5 -12t-19.5 -7.5t-22 5t-15 26.5zM161 536q5 -3 21.5 -4.5t35 -2.5t34 0t20.5 4q4 13 3 37t-6 50
t-13.5 50.5t-18 39.5t-20 16t-20.5 -19q-6 -12 -12 -38.5t-11.5 -54.5t-9 -50.5t-3.5 -27.5zM88 799q-7 4 -10 13.5t-1.5 20t8 18.5t17.5 8h193q2 1 10.5 -8t12 -20.5t-5 -22t-39.5 -11.5q-7 0 -34.5 0.5t-58.5 0.5h-58t-34 1z" />
    <glyph glyph-name="Aogonek" unicode="&#x104;" horiz-adv-x="426" 
d="M128 740q10 21 27.5 31t38 11.5t42 -3.5t38.5 -14.5t27.5 -21t9.5 -22.5l91 -711q2 -7 -8 -10.5t-23.5 -3.5t-25.5 3.5t-15 12.5l-46 458l-132 3l-69 -459q0 -6 -8.5 -12t-19.5 -7.5t-22 5t-15 26.5zM161 536q5 -3 21.5 -4.5t35 -2.5t34 0t20.5 4q4 13 3 37t-6 50
t-13.5 50.5t-18 39.5t-20 16t-20.5 -19q-6 -12 -12 -38.5t-11.5 -54.5t-9 -50.5t-3.5 -27.5zM383 -85q-17 -4 -34 -2t-31 10t-23.5 22.5t-9.5 35.5q1 36 18.5 55t43.5 24l9 -41q-20 -2 -30 -14t-8.5 -25.5t16.5 -24t46 -10.5z" />
    <glyph glyph-name="Aring" unicode="&#xc5;" horiz-adv-x="426" 
d="M128 740q10 21 27.5 31t38 11.5t42 -3.5t38.5 -14.5t27.5 -21t9.5 -22.5l91 -711q2 -7 -8 -10.5t-23.5 -3.5t-25.5 3.5t-15 12.5l-46 458l-132 3l-69 -459q0 -6 -8.5 -12t-19.5 -7.5t-22 5t-15 26.5zM161 536q5 -3 21.5 -4.5t35 -2.5t34 0t20.5 4q4 13 3 37t-6 50
t-13.5 50.5t-18 39.5t-20 16t-20.5 -19q-6 -12 -12 -38.5t-11.5 -54.5t-9 -50.5t-3.5 -27.5zM118 844q1 31 14.5 49.5t34.5 26t45 5.5t45 -10t34.5 -21t14.5 -28q0 -11 -11.5 -24t-29.5 -23.5t-40 -17t-43 -5.5t-38.5 12t-25.5 36zM167 852q1 -9 13 -11t25.5 1.5t25.5 10.5
t15 15q4 4 -9 9t-29 5.5t-29.5 -6t-11.5 -24.5z" />
    <glyph glyph-name="Atilde" unicode="&#xc3;" horiz-adv-x="426" 
d="M128 740q10 21 27.5 31t38 11.5t42 -3.5t38.5 -14.5t27.5 -21t9.5 -22.5l91 -711q2 -7 -8 -10.5t-23.5 -3.5t-25.5 3.5t-15 12.5l-46 458l-132 3l-69 -459q0 -6 -8.5 -12t-19.5 -7.5t-22 5t-15 26.5zM161 536q5 -3 21.5 -4.5t35 -2.5t34 0t20.5 4q4 13 3 37t-6 50
t-13.5 50.5t-18 39.5t-20 16t-20.5 -19q-6 -12 -12 -38.5t-11.5 -54.5t-9 -50.5t-3.5 -27.5zM61 886q9 11 18.5 29t22 33.5t29 25t39 4t53 -30.5t70.5 -77q24 -17 39 -16t24.5 13t14.5 29.5t8.5 34.5t5.5 28t7 9q31 -8 39 -30.5t0 -48.5t-29.5 -50.5t-49.5 -36t-59.5 -4.5
t-59.5 44l-28 40.5t-26 24t-26.5 -5.5t-28.5 -48q-9 -18 -21 -20.5t-22.5 4.5t-16.5 21t-3 28z" />
    <glyph glyph-name="AEacute" unicode="&#x1fc;" horiz-adv-x="655" 
d="M128 740q10 21 27.5 31t38 11.5t42 -3.5t38.5 -14.5t27.5 -21t9.5 -22.5l91 -711q2 -7 -8 -10.5t-23.5 -3.5t-25.5 3.5t-15 12.5l-46 458l-132 3l-69 -459q0 -6 -8.5 -12t-19.5 -7.5t-22 5t-15 26.5zM161 536q5 -3 21.5 -4.5t35 -2.5t34 0t20.5 4q4 13 3 37t-6 50
t-13.5 50.5t-18 39.5t-20 16t-20.5 -19q-6 -12 -12 -38.5t-11.5 -54.5t-9 -50.5t-3.5 -27.5zM317 754q0 3 19 5.5t48.5 4.5t65 3t68 1t57.5 -1.5t34 -3.5q6 -2 10 -12t4 -21t-4 -20t-13 -10l-228 -5l8 -211l178 2q9 0 17 -10.5t11.5 -23t1 -23t-14.5 -10.5l-185 -2
q-1 -9 -1.5 -35.5t0 -61.5t1 -75t2 -75.5t3.5 -63t5 -37.5l217 -1q10 0 15.5 -8.5t5.5 -19t-5.5 -20t-15.5 -11.5q-13 -1 -45 -2.5t-68 -3.5t-68.5 -3.5t-45.5 -2.5h-17t-19.5 2.5t-17 7.5t-9.5 14zM346 840q-28 -32 -43.5 -31.5t-18 18.5t7.5 46t33 52q24 8 33.5 0
t9.5 -23.5t-7 -33.5t-15 -28z" />
    <glyph glyph-name="Cacute" unicode="&#x106;" horiz-adv-x="319" 
d="M135 24q-29 18 -50.5 67t-35.5 115.5t-19.5 143.5t-0.5 149.5t20.5 134t43.5 97t69 39t96 -39.5q5 -34 -2.5 -42.5t-23 -6.5t-35.5 8.5t-38.5 2t-33.5 -26.5t-20 -76q-3 -26 -6 -67t-3.5 -89.5t2.5 -100t10 -98.5t19.5 -84t31.5 -57t46 -17.5t63 34.5q26 -5 31 -18.5
t-3 -29t-27 -30t-42 -22t-48 -5.5t-44 19zM178 840q-28 -32 -43.5 -31.5t-18 18.5t7.5 46t33 52q24 8 33.5 0t9.5 -23.5t-7 -33.5t-15 -28z" />
    <glyph glyph-name="Ccedilla" unicode="&#xc7;" horiz-adv-x="319" 
d="M135 24q-29 18 -50.5 67t-35.5 115.5t-19.5 143.5t-0.5 149.5t20.5 134t43.5 97t69 39t96 -39.5q5 -34 -2.5 -42.5t-23 -6.5t-35.5 8.5t-38.5 2t-33.5 -26.5t-20 -76q-3 -26 -6 -67t-3.5 -89.5t2.5 -100t10 -98.5t19.5 -84t31.5 -57t46 -17.5t63 34.5q26 -5 31 -18.5
t-3 -29t-27 -30t-42 -22t-48 -5.5t-44 19zM244 -231q-22 -1 -41 2.5t-34 8.5t-24.5 9.5l-11.5 5.5q-6 6 -4.5 15.5t7.5 17t15 11.5t18 0q15 -8 32 -13.5t32 -7t26.5 3t16.5 17.5q0 24 -11.5 40t-29 23.5t-38.5 7.5t-42 -6l-11 120q1 19 10 24.5t18.5 3.5t17 -8t6.5 -9v-68
q22 2 46 -10.5t43 -32.5t30.5 -44t9.5 -46.5t-21 -40.5t-60 -24z" />
    <glyph glyph-name="Ccaron" unicode="&#x10c;" horiz-adv-x="319" 
d="M135 24q-29 18 -50.5 67t-35.5 115.5t-19.5 143.5t-0.5 149.5t20.5 134t43.5 97t69 39t96 -39.5q5 -34 -2.5 -42.5t-23 -6.5t-35.5 8.5t-38.5 2t-33.5 -26.5t-20 -76q-3 -26 -6 -67t-3.5 -89.5t2.5 -100t10 -98.5t19.5 -84t31.5 -57t46 -17.5t63 34.5q26 -5 31 -18.5
t-3 -29t-27 -30t-42 -22t-48 -5.5t-44 19zM52 942q14 27 24.5 34t19 2.5t15.5 -18.5l15.5 -30.5t18 -32t22.5 -23.5q25 43 37 69t20 35t16.5 1.5t27.5 -29.5q-4 -18 -16 -38.5t-26.5 -41l-30 -40.5t-26.5 -38q-13 -5 -27 11.5t-28.5 41l-30 52t-31.5 45.5z" />
    <glyph glyph-name="Eacute" unicode="&#xc9;" 
d="M25 764q0 3 19 5.5t48.5 4.5t65 3t68 1t57.5 -1.5t34 -3.5q6 -2 10 -12t4 -21t-4 -20t-13 -10l-228 -5l8 -211l178 2q9 0 17 -10.5t11.5 -23t1 -23t-14.5 -10.5l-185 -2q-1 -9 -1.5 -35.5t0 -61.5t1 -75t2 -75.5t3.5 -63t5 -37.5l217 -1q10 0 15.5 -8.5t5.5 -19t-5.5 -20
t-15.5 -11.5q-13 -1 -45 -2.5t-68 -3.5t-68.5 -3.5t-45.5 -2.5h-17t-19.5 2.5t-17 7.5t-9.5 14zM199 840q-28 -32 -43.5 -31.5t-18 18.5t7.5 46t33 52q24 8 33.5 0t9.5 -23.5t-7 -33.5t-15 -28z" />
    <glyph glyph-name="Ccircumflex" unicode="&#x108;" horiz-adv-x="319" 
d="M135 24q-29 18 -50.5 67t-35.5 115.5t-19.5 143.5t-0.5 149.5t20.5 134t43.5 97t69 39t96 -39.5q5 -34 -2.5 -42.5t-23 -6.5t-35.5 8.5t-38.5 2t-33.5 -26.5t-20 -76q-3 -26 -6 -67t-3.5 -89.5t2.5 -100t10 -98.5t19.5 -84t31.5 -57t46 -17.5t63 34.5q26 -5 31 -18.5
t-3 -29t-27 -30t-42 -22t-48 -5.5t-44 19zM268 832q-14 -26 -24.5 -33.5t-19 -3t-15.5 18.5l-15.5 30.5t-18 32t-22.5 23.5q-25 -43 -37 -69t-20 -35t-16.5 -2t-27.5 30q4 18 16 38.5t26.5 41l30 40.5t26.5 38q13 4 27 -12t28.5 -40.5l30 -52t31.5 -45.5z" />
    <glyph glyph-name="Cdotaccent" unicode="&#x10a;" horiz-adv-x="319" 
d="M135 24q-29 18 -50.5 67t-35.5 115.5t-19.5 143.5t-0.5 149.5t20.5 134t43.5 97t69 39t96 -39.5q5 -34 -2.5 -42.5t-23 -6.5t-35.5 8.5t-38.5 2t-33.5 -26.5t-20 -76q-3 -26 -6 -67t-3.5 -89.5t2.5 -100t10 -98.5t19.5 -84t31.5 -57t46 -17.5t63 34.5q26 -5 31 -18.5
t-3 -29t-27 -30t-42 -22t-48 -5.5t-44 19zM129 818q-11 16 -3 30.5t23.5 22t32 5.5t23.5 -19q5 -10 -1 -23t-18 -21.5t-27.5 -9t-29.5 14.5z" />
    <glyph glyph-name="Dcaron" unicode="&#x10e;" horiz-adv-x="322" 
d="M19 759q13 13 37 16t51 -0.5t51 -12t37 -17.5q27 -23 48.5 -66.5t34.5 -99.5t17.5 -120.5t-2 -128t-24.5 -122.5t-49 -104t-76.5 -72t-107.5 -27zM90 79q28 -2 52.5 27t43 76t30 107t14 122t-4.5 120t-26 100.5t-50.5 64.5t-77.5 11q3 -19 5.5 -62t4.5 -100.5t3.5 -123
t2.5 -129.5t1.5 -120t1.5 -93zM53 942q14 27 24.5 34t19 2.5t15.5 -18.5l15.5 -30.5t18 -32t22.5 -23.5q25 43 37 69t20 35t16.5 1.5t27.5 -29.5q-4 -18 -16 -38.5t-26.5 -41l-30 -40.5t-26.5 -38q-13 -5 -27 11.5t-28.5 41l-30 52t-31.5 45.5z" />
    <glyph glyph-name="Dcroat" unicode="&#x110;" horiz-adv-x="322" 
d="M19 759q13 13 37 16t51 -0.5t51 -12t37 -17.5q27 -23 48.5 -66.5t34.5 -99.5t17.5 -120.5t-2 -128t-24.5 -122.5t-49 -104t-76.5 -72t-107.5 -27zM90 79q28 -2 52.5 27t43 76t30 107t14 122t-4.5 120t-26 100.5t-50.5 64.5t-77.5 11q3 -19 5.5 -62t4.5 -100.5t3.5 -123
t2.5 -129.5t1.5 -120t1.5 -93zM-31 395q-7 4 -10 13.5t-1.5 20t8 18.5t17.5 8h193q2 1 10.5 -8t12 -20.5t-5 -22t-39.5 -11.5q-7 0 -34.5 0.5t-58.5 0.5h-58t-34 1z" />
    <glyph glyph-name="Ebreve" unicode="&#x114;" 
d="M25 764q0 3 19 5.5t48.5 4.5t65 3t68 1t57.5 -1.5t34 -3.5q6 -2 10 -12t4 -21t-4 -20t-13 -10l-228 -5l8 -211l178 2q9 0 17 -10.5t11.5 -23t1 -23t-14.5 -10.5l-185 -2q-1 -9 -1.5 -35.5t0 -61.5t1 -75t2 -75.5t3.5 -63t5 -37.5l217 -1q10 0 15.5 -8.5t5.5 -19t-5.5 -20
t-15.5 -11.5q-13 -1 -45 -2.5t-68 -3.5t-68.5 -3.5t-45.5 -2.5h-17t-19.5 2.5t-17 7.5t-9.5 14zM64 911q17 32 31.5 38t19.5 -8q15 -40 30 -57t28 -18t24.5 9.5t20.5 25.5t15.5 29.5t10.5 21.5t12 10t16 1t15 -9.5t8 -22.5q-20 -46 -48 -80t-58.5 -43.5t-63 13t-61.5 90.5z
" />
    <glyph glyph-name="Ecaron" unicode="&#x11a;" 
d="M25 764q0 3 19 5.5t48.5 4.5t65 3t68 1t57.5 -1.5t34 -3.5q6 -2 10 -12t4 -21t-4 -20t-13 -10l-228 -5l8 -211l178 2q9 0 17 -10.5t11.5 -23t1 -23t-14.5 -10.5l-185 -2q-1 -9 -1.5 -35.5t0 -61.5t1 -75t2 -75.5t3.5 -63t5 -37.5l217 -1q10 0 15.5 -8.5t5.5 -19t-5.5 -20
t-15.5 -11.5q-13 -1 -45 -2.5t-68 -3.5t-68.5 -3.5t-45.5 -2.5h-17t-19.5 2.5t-17 7.5t-9.5 14zM72 942q14 27 24.5 34t19 2.5t15.5 -18.5l15.5 -30.5t18 -32t22.5 -23.5q25 43 37 69t20 35t16.5 1.5t27.5 -29.5q-4 -18 -16 -38.5t-26.5 -41l-30 -40.5t-26.5 -38
q-13 -5 -27 11.5t-28.5 41l-30 52t-31.5 45.5z" />
    <glyph glyph-name="Ecircumflex" unicode="&#xca;" 
d="M25 764q0 3 19 5.5t48.5 4.5t65 3t68 1t57.5 -1.5t34 -3.5q6 -2 10 -12t4 -21t-4 -20t-13 -10l-228 -5l8 -211l178 2q9 0 17 -10.5t11.5 -23t1 -23t-14.5 -10.5l-185 -2q-1 -9 -1.5 -35.5t0 -61.5t1 -75t2 -75.5t3.5 -63t5 -37.5l217 -1q10 0 15.5 -8.5t5.5 -19t-5.5 -20
t-15.5 -11.5q-13 -1 -45 -2.5t-68 -3.5t-68.5 -3.5t-45.5 -2.5h-17t-19.5 2.5t-17 7.5t-9.5 14zM288 842q-14 -26 -24.5 -33.5t-19 -3t-15.5 18.5l-15.5 30.5t-18 32t-22.5 23.5q-25 -43 -37 -69t-20 -35t-16.5 -2t-27.5 30q4 18 16 38.5t26.5 41l30 40.5t26.5 38
q13 4 27 -12t28.5 -40.5l30 -52t31.5 -45.5z" />
    <glyph glyph-name="Edieresis" unicode="&#xcb;" 
d="M25 764q0 3 19 5.5t48.5 4.5t65 3t68 1t57.5 -1.5t34 -3.5q6 -2 10 -12t4 -21t-4 -20t-13 -10l-228 -5l8 -211l178 2q9 0 17 -10.5t11.5 -23t1 -23t-14.5 -10.5l-185 -2q-1 -9 -1.5 -35.5t0 -61.5t1 -75t2 -75.5t3.5 -63t5 -37.5l217 -1q10 0 15.5 -8.5t5.5 -19t-5.5 -20
t-15.5 -11.5q-13 -1 -45 -2.5t-68 -3.5t-68.5 -3.5t-45.5 -2.5h-17t-19.5 2.5t-17 7.5t-9.5 14zM76 820q-11 16 -3 30.5t23.5 22t32 5.5t23.5 -19q5 -10 -1 -23t-18 -21.5t-27.5 -9t-29.5 14.5zM223 820q-11 16 -3 30.5t23.5 22t32 5.5t23.5 -19q5 -10 -1 -23t-18 -21.5
t-27.5 -9t-29.5 14.5z" />
    <glyph glyph-name="Edotaccent" unicode="&#x116;" 
d="M25 764q0 3 19 5.5t48.5 4.5t65 3t68 1t57.5 -1.5t34 -3.5q6 -2 10 -12t4 -21t-4 -20t-13 -10l-228 -5l8 -211l178 2q9 0 17 -10.5t11.5 -23t1 -23t-14.5 -10.5l-185 -2q-1 -9 -1.5 -35.5t0 -61.5t1 -75t2 -75.5t3.5 -63t5 -37.5l217 -1q10 0 15.5 -8.5t5.5 -19t-5.5 -20
t-15.5 -11.5q-13 -1 -45 -2.5t-68 -3.5t-68.5 -3.5t-45.5 -2.5h-17t-19.5 2.5t-17 7.5t-9.5 14zM149 818q-11 16 -3 30.5t23.5 22t32 5.5t23.5 -19q5 -10 -1 -23t-18 -21.5t-27.5 -9t-29.5 14.5z" />
    <glyph glyph-name="Egrave" unicode="&#xc8;" 
d="M25 764q0 3 19 5.5t48.5 4.5t65 3t68 1t57.5 -1.5t34 -3.5q6 -2 10 -12t4 -21t-4 -20t-13 -10l-228 -5l8 -211l178 2q9 0 17 -10.5t11.5 -23t1 -23t-14.5 -10.5l-185 -2q-1 -9 -1.5 -35.5t0 -61.5t1 -75t2 -75.5t3.5 -63t5 -37.5l217 -1q10 0 15.5 -8.5t5.5 -19t-5.5 -20
t-15.5 -11.5q-13 -1 -45 -2.5t-68 -3.5t-68.5 -3.5t-45.5 -2.5h-17t-19.5 2.5t-17 7.5t-9.5 14zM161 840q-8 10 -15 28t-7 33.5t9.5 23.5t33.5 0q23 -24 33 -52t7.5 -46t-18 -18.5t-43.5 31.5z" />
    <glyph glyph-name="Emacron" unicode="&#x112;" 
d="M25 764q0 3 19 5.5t48.5 4.5t65 3t68 1t57.5 -1.5t34 -3.5q6 -2 10 -12t4 -21t-4 -20t-13 -10l-228 -5l8 -211l178 2q9 0 17 -10.5t11.5 -23t1 -23t-14.5 -10.5l-185 -2q-1 -9 -1.5 -35.5t0 -61.5t1 -75t2 -75.5t3.5 -63t5 -37.5l217 -1q10 0 15.5 -8.5t5.5 -19t-5.5 -20
t-15.5 -11.5q-13 -1 -45 -2.5t-68 -3.5t-68.5 -3.5t-45.5 -2.5h-17t-19.5 2.5t-17 7.5t-9.5 14zM55 799q-7 4 -10 13.5t-1.5 20t8 18.5t17.5 8h193q2 1 10.5 -8t12 -20.5t-5 -22t-39.5 -11.5q-7 0 -34.5 0.5t-58.5 0.5h-58t-34 1z" />
    <glyph glyph-name="Eogonek" unicode="&#x118;" 
d="M25 764q0 3 19 5.5t48.5 4.5t65 3t68 1t57.5 -1.5t34 -3.5q6 -2 10 -12t4 -21t-4 -20t-13 -10l-228 -5l8 -211l178 2q9 0 17 -10.5t11.5 -23t1 -23t-14.5 -10.5l-185 -2q-1 -9 -1.5 -35.5t0 -61.5t1 -75t2 -75.5t3.5 -63t5 -37.5l217 -1q10 0 15.5 -8.5t5.5 -19t-5.5 -20
t-15.5 -11.5q-13 -1 -45 -2.5t-68 -3.5t-68.5 -3.5t-45.5 -2.5h-17t-19.5 2.5t-17 7.5t-9.5 14zM349 -82q-17 -4 -34 -2t-31 10t-23.5 22.5t-9.5 35.5q1 36 18.5 55t43.5 24l9 -41q-20 -2 -30 -14t-8.5 -25.5t16.5 -24t46 -10.5z" />
    <glyph glyph-name="Gbreve" unicode="&#x11e;" horiz-adv-x="415" 
d="M383 23q-28 -18 -40 -6.5t-17 39.5t-6.5 65.5t-7.5 71.5q-11 -62 -29 -99.5t-37.5 -57.5t-36.5 -27t-24 -8q-59 4 -96.5 41t-56.5 95.5t-20 130.5t12.5 145.5t41 142t65 118t84.5 74t101 10.5q37 -10 41.5 -23.5t-29.5 -41.5q-39 16 -73 4t-62 -43t-50 -77t-37 -99
t-22.5 -108.5t-7.5 -106.5t7.5 -92t24.5 -65q27 -32 51.5 -35t45 13.5t35.5 47.5t23 66t8.5 70t-8.5 59l-99 3q-12 0 -15 9t-2 20t4.5 20.5t4.5 10.5l177 -5q12 -5 21.5 -35t16 -71.5t11 -87.5t6 -84.5t0.5 -62.5t-5 -21zM92 911q17 32 31.5 38t19.5 -8q15 -40 30 -57
t28 -18t24.5 9.5t20.5 25.5t15.5 29.5t10.5 21.5t12 10t16 1t15 -9.5t8 -22.5q-20 -46 -48 -80t-58.5 -43.5t-63 13t-61.5 90.5z" />
    <glyph glyph-name="Gcircumflex" unicode="&#x11c;" horiz-adv-x="415" 
d="M383 23q-28 -18 -40 -6.5t-17 39.5t-6.5 65.5t-7.5 71.5q-11 -62 -29 -99.5t-37.5 -57.5t-36.5 -27t-24 -8q-59 4 -96.5 41t-56.5 95.5t-20 130.5t12.5 145.5t41 142t65 118t84.5 74t101 10.5q37 -10 41.5 -23.5t-29.5 -41.5q-39 16 -73 4t-62 -43t-50 -77t-37 -99
t-22.5 -108.5t-7.5 -106.5t7.5 -92t24.5 -65q27 -32 51.5 -35t45 13.5t35.5 47.5t23 66t8.5 70t-8.5 59l-99 3q-12 0 -15 9t-2 20t4.5 20.5t4.5 10.5l177 -5q12 -5 21.5 -35t16 -71.5t11 -87.5t6 -84.5t0.5 -62.5t-5 -21zM315 832q-14 -26 -24.5 -33.5t-19 -3t-15.5 18.5
l-15.5 30.5t-18 32t-22.5 23.5q-25 -43 -37 -69t-20 -35t-16.5 -2t-27.5 30q4 18 16 38.5t26.5 41l30 40.5t26.5 38q13 4 27 -12t28.5 -40.5l30 -52t31.5 -45.5z" />
    <glyph glyph-name="commaaccent" horiz-adv-x="308" 
d="M136 -228q-11 11 -10 27.5t3.5 35t1.5 37.5t-16 35q3 29 20 33t33.5 -13t24 -54t-8.5 -89q-3 -14 -8.5 -19t-12 -5t-13.5 4z" />
    <glyph glyph-name="Gcommaaccent" unicode="&#x122;" horiz-adv-x="415" 
d="M383 23q-28 -18 -40 -6.5t-17 39.5t-6.5 65.5t-7.5 71.5q-11 -62 -29 -99.5t-37.5 -57.5t-36.5 -27t-24 -8q-59 4 -96.5 41t-56.5 95.5t-20 130.5t12.5 145.5t41 142t65 118t84.5 74t101 10.5q37 -10 41.5 -23.5t-29.5 -41.5q-39 16 -73 4t-62 -43t-50 -77t-37 -99
t-22.5 -108.5t-7.5 -106.5t7.5 -92t24.5 -65q27 -32 51.5 -35t45 13.5t35.5 47.5t23 66t8.5 70t-8.5 59l-99 3q-12 0 -15 9t-2 20t4.5 20.5t4.5 10.5l177 -5q12 -5 21.5 -35t16 -71.5t11 -87.5t6 -84.5t0.5 -62.5t-5 -21zM176 -228q-11 11 -10 27.5t3.5 35t1.5 37.5t-16 35
q3 29 20 33t33.5 -13t24 -54t-8.5 -89q-3 -14 -8.5 -19t-12 -5t-13.5 4z" />
    <glyph glyph-name="Gdotaccent" unicode="&#x120;" horiz-adv-x="415" 
d="M383 23q-28 -18 -40 -6.5t-17 39.5t-6.5 65.5t-7.5 71.5q-11 -62 -29 -99.5t-37.5 -57.5t-36.5 -27t-24 -8q-59 4 -96.5 41t-56.5 95.5t-20 130.5t12.5 145.5t41 142t65 118t84.5 74t101 10.5q37 -10 41.5 -23.5t-29.5 -41.5q-39 16 -73 4t-62 -43t-50 -77t-37 -99
t-22.5 -108.5t-7.5 -106.5t7.5 -92t24.5 -65q27 -32 51.5 -35t45 13.5t35.5 47.5t23 66t8.5 70t-8.5 59l-99 3q-12 0 -15 9t-2 20t4.5 20.5t4.5 10.5l177 -5q12 -5 21.5 -35t16 -71.5t11 -87.5t6 -84.5t0.5 -62.5t-5 -21zM177 818q-11 16 -3 30.5t23.5 22t32 5.5t23.5 -19
q5 -10 -1 -23t-18 -21.5t-27.5 -9t-29.5 14.5z" />
    <glyph glyph-name="Hbar" unicode="&#x126;" horiz-adv-x="388" 
d="M366 44q0 -22 -8 -34t-18.5 -14t-21.5 7.5t-16 31.5l-19 467l-177 3l7 -472q0 -14 -10 -22.5t-22 -10.5t-22 1.5t-10 12.5q-4 146 -9 254.5t-9 186.5t-7 129.5t-4 84t0.5 49.5t6.5 26q7 15 17.5 20t21 3.5t18 -10t9.5 -20.5l17 -174h163q1 7 -1.5 27.5t-4.5 46t-2 52.5
t7 48t22.5 32t44.5 5l27 -730v0zM15.8965 349.814q-12.1045 3.93945 -17.292 13.2959t-2.59375 19.6973t13.834 18.2197q11.2393 7.87891 30.2607 7.87891h333.732q3.45898 0.985352 18.1572 -7.87891q14.6982 -8.86328 20.75 -20.1895t-8.64551 -21.667
q-14.6982 -10.3408 -68.3037 -11.3252q-12.1035 0 -59.6562 0.492188t-101.158 0.492188h-100.292q-46.6885 0 -58.793 0.984375z" />
    <glyph glyph-name="Hcircumflex" unicode="&#x124;" horiz-adv-x="388" 
d="M366 44q0 -22 -8 -34t-18.5 -14t-21.5 7.5t-16 31.5l-19 467l-177 3l7 -472q0 -14 -10 -22.5t-22 -10.5t-22 1.5t-10 12.5q-4 146 -9 254.5t-9 186.5t-7 129.5t-4 84t0.5 49.5t6.5 26q7 15 17.5 20t21 3.5t18 -10t9.5 -20.5l17 -174h163q1 7 -1.5 27.5t-4.5 46t-2 52.5
t7 48t22.5 32t44.5 5l27 -730v0zM302 832q-14 -26 -24.5 -33.5t-19 -3t-15.5 18.5l-15.5 30.5t-18 32t-22.5 23.5q-25 -43 -37 -69t-20 -35t-16.5 -2t-27.5 30q4 18 16 38.5t26.5 41l30 40.5t26.5 38q13 4 27 -12t28.5 -40.5l30 -52t31.5 -45.5z" />
    <glyph glyph-name="Iacute" unicode="&#xcd;" horiz-adv-x="347" 
d="M49 8q-11 3 -17 11t-7.5 17t2.5 17.5t14 12.5q6 2 18 2t26 -0.5t26.5 -1t18.5 1.5l-2 655h-83q-17 9 -18.5 25t22.5 29l234 6q22 -4 31.5 -21t-7.5 -34l-115 -5l8 -656h101q13 -6 20 -14.5t6.5 -17t-9.5 -15t-27 -9.5zM192 840q-28 -32 -43.5 -31.5t-18 18.5t7.5 46
t33 52q24 8 33.5 0t9.5 -23.5t-7 -33.5t-15 -28z" />
    <glyph glyph-name="Ibreve" unicode="&#x12c;" horiz-adv-x="347" 
d="M49 8q-11 3 -17 11t-7.5 17t2.5 17.5t14 12.5q6 2 18 2t26 -0.5t26.5 -1t18.5 1.5l-2 655h-83q-17 9 -18.5 25t22.5 29l234 6q22 -4 31.5 -21t-7.5 -34l-115 -5l8 -656h101q13 -6 20 -14.5t6.5 -17t-9.5 -15t-27 -9.5zM58 911q17 32 31.5 38t19.5 -8q15 -40 30 -57
t28 -18t24.5 9.5t20.5 25.5t15.5 29.5t10.5 21.5t12 10t16 1t15 -9.5t8 -22.5q-20 -46 -48 -80t-58.5 -43.5t-63 13t-61.5 90.5z" />
    <glyph glyph-name="Icircumflex" unicode="&#xce;" horiz-adv-x="347" 
d="M49 8q-11 3 -17 11t-7.5 17t2.5 17.5t14 12.5q6 2 18 2t26 -0.5t26.5 -1t18.5 1.5l-2 655h-83q-17 9 -18.5 25t22.5 29l234 6q22 -4 31.5 -21t-7.5 -34l-115 -5l8 -656h101q13 -6 20 -14.5t6.5 -17t-9.5 -15t-27 -9.5zM281 832q-14 -26 -24.5 -33.5t-19 -3t-15.5 18.5
l-15.5 30.5t-18 32t-22.5 23.5q-25 -43 -37 -69t-20 -35t-16.5 -2t-27.5 30q4 18 16 38.5t26.5 41l30 40.5t26.5 38q13 4 27 -12t28.5 -40.5l30 -52t31.5 -45.5z" />
    <glyph glyph-name="Idieresis" unicode="&#xcf;" horiz-adv-x="347" 
d="M49 8q-11 3 -17 11t-7.5 17t2.5 17.5t14 12.5q6 2 18 2t26 -0.5t26.5 -1t18.5 1.5l-2 655h-83q-17 9 -18.5 25t22.5 29l234 6q22 -4 31.5 -21t-7.5 -34l-115 -5l8 -656h101q13 -6 20 -14.5t6.5 -17t-9.5 -15t-27 -9.5zM69 820q-11 16 -3 30.5t23.5 22t32 5.5t23.5 -19
q5 -10 -1 -23t-18 -21.5t-27.5 -9t-29.5 14.5zM216 820q-11 16 -3 30.5t23.5 22t32 5.5t23.5 -19q5 -10 -1 -23t-18 -21.5t-27.5 -9t-29.5 14.5z" />
    <glyph glyph-name="Idotaccent" unicode="&#x130;" horiz-adv-x="347" 
d="M49 8q-11 3 -17 11t-7.5 17t2.5 17.5t14 12.5q6 2 18 2t26 -0.5t26.5 -1t18.5 1.5l-2 655h-83q-17 9 -18.5 25t22.5 29l234 6q22 -4 31.5 -21t-7.5 -34l-115 -5l8 -656h101q13 -6 20 -14.5t6.5 -17t-9.5 -15t-27 -9.5zM143 818q-11 16 -3 30.5t23.5 22t32 5.5t23.5 -19
q5 -10 -1 -23t-18 -21.5t-27.5 -9t-29.5 14.5z" />
    <glyph glyph-name="Igrave" unicode="&#xcc;" horiz-adv-x="347" 
d="M49 8q-11 3 -17 11t-7.5 17t2.5 17.5t14 12.5q6 2 18 2t26 -0.5t26.5 -1t18.5 1.5l-2 655h-83q-17 9 -18.5 25t22.5 29l234 6q22 -4 31.5 -21t-7.5 -34l-115 -5l8 -656h101q13 -6 20 -14.5t6.5 -17t-9.5 -15t-27 -9.5zM154 840q-8 10 -15 28t-7 33.5t9.5 23.5t33.5 0
q23 -24 33 -52t7.5 -46t-18 -18.5t-43.5 31.5z" />
    <glyph glyph-name="Iogonek" unicode="&#x12e;" horiz-adv-x="347" 
d="M49 8q-11 3 -17 11t-7.5 17t2.5 17.5t14 12.5q6 2 18 2t26 -0.5t26.5 -1t18.5 1.5l-2 655h-83q-17 9 -18.5 25t22.5 29l234 6q22 -4 31.5 -21t-7.5 -34l-115 -5l8 -656h101q13 -6 20 -14.5t6.5 -17t-9.5 -15t-27 -9.5zM329 -85q-17 -4 -34 -2t-31 10t-23.5 22.5
t-9.5 35.5q1 36 18.5 55t43.5 24l9 -41q-20 -2 -30 -14t-8.5 -25.5t16.5 -24t46 -10.5z" />
    <glyph glyph-name="Itilde" unicode="&#x128;" horiz-adv-x="347" 
d="M49 8q-11 3 -17 11t-7.5 17t2.5 17.5t14 12.5q6 2 18 2t26 -0.5t26.5 -1t18.5 1.5l-2 655h-83q-17 9 -18.5 25t22.5 29l234 6q22 -4 31.5 -21t-7.5 -34l-115 -5l8 -656h101q13 -6 20 -14.5t6.5 -17t-9.5 -15t-27 -9.5zM8 898q9 11 18.5 29t22 33.5t29 25t39 4t53 -30.5
t70.5 -77q24 -17 39 -16t24.5 13t14.5 29.5t8.5 34.5t5.5 28t7 9q31 -8 39 -30.5t0 -48.5t-29.5 -50.5t-49.5 -36t-59.5 -4.5t-59.5 44l-28 40.5t-26 24t-26.5 -5.5t-28.5 -48q-9 -18 -21 -20.5t-22.5 4.5t-16.5 21t-3 28z" />
    <glyph glyph-name="Jcircumflex" unicode="&#x134;" horiz-adv-x="317" 
d="M97 12q-41 17 -56.5 40.5t-14.5 42t13.5 27t28.5 -4.5q26 -40 49 -36t39 40.5t25 100t7.5 144t-14.5 172.5t-40 184l-106 7q-6 3 -11.5 10.5t-6 16t5 16.5t20.5 14l227 6q15 -7 22 -17.5t6.5 -20.5t-8 -17t-20.5 -6q0 -1 -10 -1.5t-22.5 -1.5t-22.5 -1.5t-10 -1.5
q19 -69 30 -141.5t15.5 -146.5t2 -147.5t-11.5 -142.5q-3 -22 -14.5 -48.5t-29.5 -48.5t-42 -34t-51 -4zM265 875q-14 -26 -24.5 -33.5t-19 -3t-15.5 18.5l-15.5 30.5t-18 32t-22.5 23.5q-25 -43 -37 -69t-20 -35t-16.5 -2t-27.5 30q4 18 16 38.5t26.5 41l30 40.5t26.5 38
q13 4 27 -12t28.5 -40.5l30 -52t31.5 -45.5z" />
    <glyph glyph-name="Lacute" unicode="&#x139;" horiz-adv-x="292" 
d="M275 65q14 -18 2 -30t-37.5 -19t-59.5 -9t-65.5 -0.5t-53.5 6.5t-24 12l-21 684q-3 19 5.5 34.5t21.5 22t26 1.5t18 -26l12 -652q8 -13 30 -14.5t49 0t53.5 1t43.5 -10.5zM165 840q-28 -32 -43.5 -31.5t-18 18.5t7.5 46t33 52q24 8 33.5 0t9.5 -23.5t-7 -33.5t-15 -28z
" />
    <glyph glyph-name="Lcaron" unicode="&#x13d;" horiz-adv-x="292" 
d="M275 65q14 -18 2 -30t-37.5 -19t-59.5 -9t-65.5 -0.5t-53.5 6.5t-24 12l-21 684q-3 19 5.5 34.5t21.5 22t26 1.5t18 -26l12 -652q8 -13 30 -14.5t49 0t53.5 1t43.5 -10.5zM168 630l-6.5 35t-6 27t-8.5 26t-15 33q-5 10 0.5 16t16.5 6t24.5 -6.5t24.5 -22t17 -40.5t1 -62
q-1 -9 -8 -16t-15 -9.5t-15.5 0t-9.5 13.5z" />
    <glyph glyph-name="Lcommaaccent" unicode="&#x13b;" horiz-adv-x="292" 
d="M275 65q14 -18 2 -30t-37.5 -19t-59.5 -9t-65.5 -0.5t-53.5 6.5t-24 12l-21 684q-3 19 5.5 34.5t21.5 22t26 1.5t18 -26l12 -652q8 -13 30 -14.5t49 0t53.5 1t43.5 -10.5zM116 -228q-11 11 -10 27.5t3.5 35t1.5 37.5t-16 35q3 29 20 33t33.5 -13t24 -54t-8.5 -89
q-3 -14 -8.5 -19t-12 -5t-13.5 4z" />
    <glyph glyph-name="Ldot" unicode="&#x13f;" horiz-adv-x="292" 
d="M275 65q14 -18 2 -30t-37.5 -19t-59.5 -9t-65.5 -0.5t-53.5 6.5t-24 12l-21 684q-3 19 5.5 34.5t21.5 22t26 1.5t18 -26l12 -652q8 -13 30 -14.5t49 0t53.5 1t43.5 -10.5zM164 359q-11 16 -3 30.5t23.5 22t32 5.5t23.5 -19q5 -10 -1 -23t-18 -21.5t-27.5 -9t-29.5 14.5z
" />
    <glyph glyph-name="Lslash" unicode="&#x141;" horiz-adv-x="292" 
d="M275 65q14 -18 2 -30t-37.5 -19t-59.5 -9t-65.5 -0.5t-53.5 6.5t-24 12l-8 265l-35.5 -10.5t-20.5 -5.5q-8 1 -13.5 10t-7 19.5t2 20t14.5 12.5l58 18l-11 355q-3 19 5.5 34.5t21.5 22t26 1.5t18 -26l6 -367l60 19q1 2 12 -4t17.5 -16.5t2 -23t-34.5 -22.5
q-5 -2 -20.5 -6t-35.5 -10l5 -222q8 -13 30 -14.5t49 0t53.5 1t43.5 -10.5z" />
    <glyph glyph-name="Nacute" unicode="&#x143;" horiz-adv-x="410" 
d="M15 757q-1 10 8 19t20.5 11.5t23.5 -2.5t17 -21q27 -33 49 -89.5t41 -124t35.5 -140t34 -137t36.5 -115t42 -73.5q-1 9 -2.5 40t-4 76t-5 99.5l-5 111.5l-5 111.5l-4.5 99.5l-3.5 76t-2.5 40q2 24 12.5 36.5t23 12.5t23.5 -13t14 -41q-2 -45 1 -104.5t7 -125l8.5 -133
t6.5 -129t0 -112.5t-10 -84.5t-23.5 -44t-41.5 9.5q-46 39 -73.5 99t-49 135.5t-43 164.5t-55.5 185l3 -560q0 -6 -9.5 -10.5t-20.5 -5.5t-20.5 1.5t-9.5 10.5zM224 840q-28 -32 -43.5 -31.5t-18 18.5t7.5 46t33 52q24 8 33.5 0t9.5 -23.5t-7 -33.5t-15 -28z" />
    <glyph glyph-name="Ncaron" unicode="&#x147;" horiz-adv-x="410" 
d="M15 757q-1 10 8 19t20.5 11.5t23.5 -2.5t17 -21q27 -33 49 -89.5t41 -124t35.5 -140t34 -137t36.5 -115t42 -73.5q-1 9 -2.5 40t-4 76t-5 99.5l-5 111.5l-5 111.5l-4.5 99.5l-3.5 76t-2.5 40q2 24 12.5 36.5t23 12.5t23.5 -13t14 -41q-2 -45 1 -104.5t7 -125l8.5 -133
t6.5 -129t0 -112.5t-10 -84.5t-23.5 -44t-41.5 9.5q-46 39 -73.5 99t-49 135.5t-43 164.5t-55.5 185l3 -560q0 -6 -9.5 -10.5t-20.5 -5.5t-20.5 1.5t-9.5 10.5zM97 942q14 27 24.5 34t19 2.5t15.5 -18.5l15.5 -30.5t18 -32t22.5 -23.5q25 43 37 69t20 35t16.5 1.5
t27.5 -29.5q-4 -18 -16 -38.5t-26.5 -41l-30 -40.5t-26.5 -38q-13 -5 -27 11.5t-28.5 41l-30 52t-31.5 45.5z" />
    <glyph glyph-name="Ncommaaccent" unicode="&#x145;" horiz-adv-x="410" 
d="M15 757q-1 10 8 19t20.5 11.5t23.5 -2.5t17 -21q27 -33 49 -89.5t41 -124t35.5 -140t34 -137t36.5 -115t42 -73.5q-1 9 -2.5 40t-4 76t-5 99.5l-5 111.5l-5 111.5l-4.5 99.5l-3.5 76t-2.5 40q2 24 12.5 36.5t23 12.5t23.5 -13t14 -41q-2 -45 1 -104.5t7 -125l8.5 -133
t6.5 -129t0 -112.5t-10 -84.5t-23.5 -44t-41.5 9.5q-46 39 -73.5 99t-49 135.5t-43 164.5t-55.5 185l3 -560q0 -6 -9.5 -10.5t-20.5 -5.5t-20.5 1.5t-9.5 10.5zM173 -228q-11 11 -10 27.5t3.5 35t1.5 37.5t-16 35q3 29 20 33t33.5 -13t24 -54t-8.5 -89q-3 -14 -8.5 -19
t-12 -5t-13.5 4z" />
    <glyph glyph-name="Ntilde" unicode="&#xd1;" horiz-adv-x="410" 
d="M15 757q-1 10 8 19t20.5 11.5t23.5 -2.5t17 -21q27 -33 49 -89.5t41 -124t35.5 -140t34 -137t36.5 -115t42 -73.5q-1 9 -2.5 40t-4 76t-5 99.5l-5 111.5l-5 111.5l-4.5 99.5l-3.5 76t-2.5 40q2 24 12.5 36.5t23 12.5t23.5 -13t14 -41q-2 -45 1 -104.5t7 -125l8.5 -133
t6.5 -129t0 -112.5t-10 -84.5t-23.5 -44t-41.5 9.5q-46 39 -73.5 99t-49 135.5t-43 164.5t-55.5 185l3 -560q0 -6 -9.5 -10.5t-20.5 -5.5t-20.5 1.5t-9.5 10.5zM-17 874q9 11 18.5 29t22 33.5t29 25t39 4t53 -30.5t70.5 -77q24 -17 39 -16t24.5 13t14.5 29.5t8.5 34.5
t5.5 28t7 9q31 -8 39 -30.5t0 -48.5t-29.5 -50.5t-49.5 -36t-59.5 -4.5t-59.5 44l-28 40.5t-26 24t-26.5 -5.5t-28.5 -48q-9 -18 -21 -20.5t-22.5 4.5t-16.5 21t-3 28z" />
    <glyph glyph-name="Oacute" unicode="&#xd3;" horiz-adv-x="328" 
d="M128 17q-28 12 -50.5 53t-38 99.5t-23.5 128t-7 139.5t11.5 134t31.5 111t53 71t77 14q43 -14 71 -59t43 -108t18 -137t-4 -146.5t-23.5 -137.5t-40 -108.5t-53.5 -60t-65 6.5zM142 82q14 -14 29.5 3.5t29.5 55t25.5 90t18 111t6.5 117t-9 107t-28 82.5t-51 43
q-25 7 -42 -14.5t-27 -62t-14 -95t-3 -112.5t6.5 -115t14.5 -102.5t20 -75t24 -32.5zM183 840q-28 -32 -43.5 -31.5t-18 18.5t7.5 46t33 52q24 8 33.5 0t9.5 -23.5t-7 -33.5t-15 -28z" />
    <glyph glyph-name="Obreve" unicode="&#x14e;" horiz-adv-x="328" 
d="M128 17q-28 12 -50.5 53t-38 99.5t-23.5 128t-7 139.5t11.5 134t31.5 111t53 71t77 14q43 -14 71 -59t43 -108t18 -137t-4 -146.5t-23.5 -137.5t-40 -108.5t-53.5 -60t-65 6.5zM142 82q14 -14 29.5 3.5t29.5 55t25.5 90t18 111t6.5 117t-9 107t-28 82.5t-51 43
q-25 7 -42 -14.5t-27 -62t-14 -95t-3 -112.5t6.5 -115t14.5 -102.5t20 -75t24 -32.5zM48 911q17 32 31.5 38t19.5 -8q15 -40 30 -57t28 -18t24.5 9.5t20.5 25.5t15.5 29.5t10.5 21.5t12 10t16 1t15 -9.5t8 -22.5q-20 -46 -48 -80t-58.5 -43.5t-63 13t-61.5 90.5z" />
    <glyph glyph-name="Ocircumflex" unicode="&#xd4;" horiz-adv-x="328" 
d="M128 17q-28 12 -50.5 53t-38 99.5t-23.5 128t-7 139.5t11.5 134t31.5 111t53 71t77 14q43 -14 71 -59t43 -108t18 -137t-4 -146.5t-23.5 -137.5t-40 -108.5t-53.5 -60t-65 6.5zM142 82q14 -14 29.5 3.5t29.5 55t25.5 90t18 111t6.5 117t-9 107t-28 82.5t-51 43
q-25 7 -42 -14.5t-27 -62t-14 -95t-3 -112.5t6.5 -115t14.5 -102.5t20 -75t24 -32.5zM272 832q-14 -26 -24.5 -33.5t-19 -3t-15.5 18.5l-15.5 30.5t-18 32t-22.5 23.5q-25 -43 -37 -69t-20 -35t-16.5 -2t-27.5 30q4 18 16 38.5t26.5 41l30 40.5t26.5 38q13 4 27 -12
t28.5 -40.5l30 -52t31.5 -45.5z" />
    <glyph glyph-name="Odieresis" unicode="&#xd6;" horiz-adv-x="328" 
d="M128 17q-28 12 -50.5 53t-38 99.5t-23.5 128t-7 139.5t11.5 134t31.5 111t53 71t77 14q43 -14 71 -59t43 -108t18 -137t-4 -146.5t-23.5 -137.5t-40 -108.5t-53.5 -60t-65 6.5zM142 82q14 -14 29.5 3.5t29.5 55t25.5 90t18 111t6.5 117t-9 107t-28 82.5t-51 43
q-25 7 -42 -14.5t-27 -62t-14 -95t-3 -112.5t6.5 -115t14.5 -102.5t20 -75t24 -32.5zM60 820q-11 16 -3 30.5t23.5 22t32 5.5t23.5 -19q5 -10 -1 -23t-18 -21.5t-27.5 -9t-29.5 14.5zM207 820q-11 16 -3 30.5t23.5 22t32 5.5t23.5 -19q5 -10 -1 -23t-18 -21.5t-27.5 -9
t-29.5 14.5z" />
    <glyph glyph-name="Ograve" unicode="&#xd2;" horiz-adv-x="328" 
d="M128 17q-28 12 -50.5 53t-38 99.5t-23.5 128t-7 139.5t11.5 134t31.5 111t53 71t77 14q43 -14 71 -59t43 -108t18 -137t-4 -146.5t-23.5 -137.5t-40 -108.5t-53.5 -60t-65 6.5zM142 82q14 -14 29.5 3.5t29.5 55t25.5 90t18 111t6.5 117t-9 107t-28 82.5t-51 43
q-25 7 -42 -14.5t-27 -62t-14 -95t-3 -112.5t6.5 -115t14.5 -102.5t20 -75t24 -32.5zM145 840q-8 10 -15 28t-7 33.5t9.5 23.5t33.5 0q23 -24 33 -52t7.5 -46t-18 -18.5t-43.5 31.5z" />
    <glyph glyph-name="Ohungarumlaut" unicode="&#x150;" horiz-adv-x="328" 
d="M128 17q-28 12 -50.5 53t-38 99.5t-23.5 128t-7 139.5t11.5 134t31.5 111t53 71t77 14q43 -14 71 -59t43 -108t18 -137t-4 -146.5t-23.5 -137.5t-40 -108.5t-53.5 -60t-65 6.5zM142 82q14 -14 29.5 3.5t29.5 55t25.5 90t18 111t6.5 117t-9 107t-28 82.5t-51 43
q-25 7 -42 -14.5t-27 -62t-14 -95t-3 -112.5t6.5 -115t14.5 -102.5t20 -75t24 -32.5zM128 840q-28 -32 -43.5 -31.5t-18 18.5t7.5 46t33 52q24 8 33.5 0t9.5 -23.5t-7 -33.5t-15 -28zM237 840q-28 -32 -43.5 -31.5t-18 18.5t7.5 46t33 52q24 8 33.5 0t9.5 -23.5t-7 -33.5
t-15 -28z" />
    <glyph glyph-name="Omacron" unicode="&#x14c;" horiz-adv-x="328" 
d="M128 17q-28 12 -50.5 53t-38 99.5t-23.5 128t-7 139.5t11.5 134t31.5 111t53 71t77 14q43 -14 71 -59t43 -108t18 -137t-4 -146.5t-23.5 -137.5t-40 -108.5t-53.5 -60t-65 6.5zM142 82q14 -14 29.5 3.5t29.5 55t25.5 90t18 111t6.5 117t-9 107t-28 82.5t-51 43
q-25 7 -42 -14.5t-27 -62t-14 -95t-3 -112.5t6.5 -115t14.5 -102.5t20 -75t24 -32.5zM40 799q-7 4 -10 13.5t-1.5 20t8 18.5t17.5 8h193q2 1 10.5 -8t12 -20.5t-5 -22t-39.5 -11.5q-7 0 -34.5 0.5t-58.5 0.5h-58t-34 1z" />
    <glyph glyph-name="Oslash" unicode="&#xd8;" horiz-adv-x="328" 
d="M128 17q-28 12 -50.5 53t-38 99.5t-23.5 128t-7 139.5t11.5 134t31.5 111t53 71t77 14q43 -14 71 -59t43 -108t18 -137t-4 -146.5t-23.5 -137.5t-40 -108.5t-53.5 -60t-65 6.5zM142 82q14 -14 29.5 3.5t29.5 55t25.5 90t18 111t6.5 117t-9 107t-28 82.5t-51 43
q-25 7 -42 -14.5t-27 -62t-14 -95t-3 -112.5t6.5 -115t14.5 -102.5t20 -75t24 -32.5zM41 24q0 1 0.5 6t5.5 27.5t16.5 67.5l32 126l52.5 204l79 301q1 6 11 10t20.5 5t18.5 -2.5t6 -12.5l-182 -732q-3 -15 -12 -21t-18.5 -5.5t-18 7.5t-11.5 19z" />
    <glyph glyph-name="Oslashacute" unicode="&#x1fe;" horiz-adv-x="328" 
d="M128 17q-28 12 -50.5 53t-38 99.5t-23.5 128t-7 139.5t11.5 134t31.5 111t53 71t77 14q43 -14 71 -59t43 -108t18 -137t-4 -146.5t-23.5 -137.5t-40 -108.5t-53.5 -60t-65 6.5zM142 82q14 -14 29.5 3.5t29.5 55t25.5 90t18 111t6.5 117t-9 107t-28 82.5t-51 43
q-25 7 -42 -14.5t-27 -62t-14 -95t-3 -112.5t6.5 -115t14.5 -102.5t20 -75t24 -32.5zM41 24q0 1 0.5 6t5.5 27.5t16.5 67.5l32 126l52.5 204l79 301q1 6 11 10t20.5 5t18.5 -2.5t6 -12.5l-182 -732q-3 -15 -12 -21t-18.5 -5.5t-18 7.5t-11.5 19zM183 840
q-28 -32 -43.5 -31.5t-18 18.5t7.5 46t33 52q24 8 33.5 0t9.5 -23.5t-7 -33.5t-15 -28z" />
    <glyph glyph-name="Otilde" unicode="&#xd5;" horiz-adv-x="328" 
d="M128 17q-28 12 -50.5 53t-38 99.5t-23.5 128t-7 139.5t11.5 134t31.5 111t53 71t77 14q43 -14 71 -59t43 -108t18 -137t-4 -146.5t-23.5 -137.5t-40 -108.5t-53.5 -60t-65 6.5zM142 82q14 -14 29.5 3.5t29.5 55t25.5 90t18 111t6.5 117t-9 107t-28 82.5t-51 43
q-25 7 -42 -14.5t-27 -62t-14 -95t-3 -112.5t6.5 -115t14.5 -102.5t20 -75t24 -32.5zM-11 877q9 11 18.5 29t22 33.5t29 25t39 4t53 -30.5t70.5 -77q24 -17 39 -16t24.5 13t14.5 29.5t8.5 34.5t5.5 28t7 9q31 -8 39 -30.5t0 -48.5t-29.5 -50.5t-49.5 -36t-59.5 -4.5
t-59.5 44l-28 40.5t-26 24t-26.5 -5.5t-28.5 -48q-9 -18 -21 -20.5t-22.5 4.5t-16.5 21t-3 28z" />
    <glyph glyph-name="OE" unicode="&#x152;" horiz-adv-x="601" 
d="M128 17q-28 12 -50.5 53t-38 99.5t-23.5 128t-7 139.5t11.5 134t31.5 111t53 71t77 14q43 -14 71 -59t43 -108t18 -137t-4 -146.5t-23.5 -137.5t-40 -108.5t-53.5 -60t-65 6.5zM142 82q14 -14 29.5 3.5t29.5 55t25.5 90t18 111t6.5 117t-9 107t-28 82.5t-51 43
q-25 7 -42 -14.5t-27 -62t-14 -95t-3 -112.5t6.5 -115t14.5 -102.5t20 -75t24 -32.5zM255 764q0 3 19 5.5t48.5 4.5t65 3t68 1t57.5 -1.5t34 -3.5q6 -2 10 -12t4 -21t-4 -20t-13 -10l-228 -5l8 -211l178 2q9 0 17 -10.5t11.5 -23t1 -23t-14.5 -10.5l-185 -2
q-1 -9 -1.5 -35.5t0 -61.5t1 -75t2 -75.5t3.5 -63t5 -37.5l217 -1q10 0 15.5 -8.5t5.5 -19t-5.5 -20t-15.5 -11.5q-13 -1 -45 -2.5t-68 -3.5t-68.5 -3.5t-45.5 -2.5h-17t-19.5 2.5t-17 7.5t-9.5 14z" />
    <glyph glyph-name="Racute" unicode="&#x154;" horiz-adv-x="355" 
d="M300 7q-5 1 -11.5 26l-16.5 64t-24.5 86.5t-36.5 94t-53 87.5t-73 67l1 -411q-5 -18 -14 -26.5t-18.5 -9t-17 5t-9.5 16.5l-8 747q-1 12 8 18.5t20.5 8t22 -3t13.5 -13.5q1 -2 0 -8t-2.5 -13.5t-2.5 -14t0 -7.5q1 -2 14 7.5t33 21.5t44.5 22.5t47 11t40.5 -13t26 -49.5
q6 -36 -2.5 -71.5t-27.5 -68t-46.5 -60.5t-59.5 -49q9 -1 26 -20t37 -51t41.5 -74.5t40 -90t32.5 -98t20 -97.5q4 -33 -10.5 -40.5t-33.5 6.5zM90 528q30 -3 55 11.5t43 38.5t28.5 53t11.5 54t-9.5 31t-26.5 1t-35 -18t-35.5 -28t-27 -28.5t-10.5 -18.5zM196 840
q-28 -32 -43.5 -31.5t-18 18.5t7.5 46t33 52q24 8 33.5 0t9.5 -23.5t-7 -33.5t-15 -28z" />
    <glyph glyph-name="Rcaron" unicode="&#x158;" horiz-adv-x="355" 
d="M300 7q-5 1 -11.5 26l-16.5 64t-24.5 86.5t-36.5 94t-53 87.5t-73 67l1 -411q-5 -18 -14 -26.5t-18.5 -9t-17 5t-9.5 16.5l-8 747q-1 12 8 18.5t20.5 8t22 -3t13.5 -13.5q1 -2 0 -8t-2.5 -13.5t-2.5 -14t0 -7.5q1 -2 14 7.5t33 21.5t44.5 22.5t47 11t40.5 -13t26 -49.5
q6 -36 -2.5 -71.5t-27.5 -68t-46.5 -60.5t-59.5 -49q9 -1 26 -20t37 -51t41.5 -74.5t40 -90t32.5 -98t20 -97.5q4 -33 -10.5 -40.5t-33.5 6.5zM90 528q30 -3 55 11.5t43 38.5t28.5 53t11.5 54t-9.5 31t-26.5 1t-35 -18t-35.5 -28t-27 -28.5t-10.5 -18.5zM69 942
q14 27 24.5 34t19 2.5t15.5 -18.5l15.5 -30.5t18 -32t22.5 -23.5q25 43 37 69t20 35t16.5 1.5t27.5 -29.5q-4 -18 -16 -38.5t-26.5 -41l-30 -40.5t-26.5 -38q-13 -5 -27 11.5t-28.5 41l-30 52t-31.5 45.5z" />
    <glyph glyph-name="Rcommaaccent" unicode="&#x156;" horiz-adv-x="355" 
d="M300 7q-5 1 -11.5 26l-16.5 64t-24.5 86.5t-36.5 94t-53 87.5t-73 67l1 -411q-5 -18 -14 -26.5t-18.5 -9t-17 5t-9.5 16.5l-8 747q-1 12 8 18.5t20.5 8t22 -3t13.5 -13.5q1 -2 0 -8t-2.5 -13.5t-2.5 -14t0 -7.5q1 -2 14 7.5t33 21.5t44.5 22.5t47 11t40.5 -13t26 -49.5
q6 -36 -2.5 -71.5t-27.5 -68t-46.5 -60.5t-59.5 -49q9 -1 26 -20t37 -51t41.5 -74.5t40 -90t32.5 -98t20 -97.5q4 -33 -10.5 -40.5t-33.5 6.5zM90 528q30 -3 55 11.5t43 38.5t28.5 53t11.5 54t-9.5 31t-26.5 1t-35 -18t-35.5 -28t-27 -28.5t-10.5 -18.5zM146 -228
q-11 11 -10 27.5t3.5 35t1.5 37.5t-16 35q3 29 20 33t33.5 -13t24 -54t-8.5 -89q-3 -14 -8.5 -19t-12 -5t-13.5 4z" />
    <glyph glyph-name="Sacute" unicode="&#x15a;" horiz-adv-x="287" 
d="M107 16q-11 5 -31 18t-33.5 29t-12 32.5t33.5 29.5q59 -45 90.5 -43t41.5 35t2.5 89t-26 118t-44.5 121.5t-52 100.5q-44 64 -58 115t3 80.5t65.5 31t131.5 -33.5q6 -4 12 -17t3.5 -24.5t-17.5 -14.5t-52 13q-41 14 -59.5 12t-22.5 -15t3.5 -33t19 -41.5t24 -42
t19.5 -33.5q14 -24 32 -63.5t35 -86.5t31 -98t20 -99t2.5 -88.5t-21 -67t-51.5 -34.5t-89 10zM162 840q-28 -32 -43.5 -31.5t-18 18.5t7.5 46t33 52q24 8 33.5 0t9.5 -23.5t-7 -33.5t-15 -28z" />
    <glyph glyph-name="Scaron" unicode="&#x160;" horiz-adv-x="287" 
d="M107 16q-11 5 -31 18t-33.5 29t-12 32.5t33.5 29.5q59 -45 90.5 -43t41.5 35t2.5 89t-26 118t-44.5 121.5t-52 100.5q-44 64 -58 115t3 80.5t65.5 31t131.5 -33.5q6 -4 12 -17t3.5 -24.5t-17.5 -14.5t-52 13q-41 14 -59.5 12t-22.5 -15t3.5 -33t19 -41.5t24 -42
t19.5 -33.5q14 -24 32 -63.5t35 -86.5t31 -98t20 -99t2.5 -88.5t-21 -67t-51.5 -34.5t-89 10zM37 942q14 27 24.5 34t19 2.5t15.5 -18.5l15.5 -30.5t18 -32t22.5 -23.5q25 43 37 69t20 35t16.5 1.5t27.5 -29.5q-4 -18 -16 -38.5t-26.5 -41l-30 -40.5t-26.5 -38
q-13 -5 -27 11.5t-28.5 41l-30 52t-31.5 45.5z" />
    <glyph glyph-name="Scedilla" unicode="&#x15e;" horiz-adv-x="287" 
d="M107 16q-11 5 -31 18t-33.5 29t-12 32.5t33.5 29.5q59 -45 90.5 -43t41.5 35t2.5 89t-26 118t-44.5 121.5t-52 100.5q-44 64 -58 115t3 80.5t65.5 31t131.5 -33.5q6 -4 12 -17t3.5 -24.5t-17.5 -14.5t-52 13q-41 14 -59.5 12t-22.5 -15t3.5 -33t19 -41.5t24 -42
t19.5 -33.5q14 -24 32 -63.5t35 -86.5t31 -98t20 -99t2.5 -88.5t-21 -67t-51.5 -34.5t-89 10zM198 -228q-22 -1 -41 2.5t-34 8.5t-24.5 9.5l-11.5 5.5q-6 6 -4.5 15.5t7.5 17t15 11.5t18 0q15 -8 32 -13.5t32 -7t26.5 3t16.5 17.5q0 24 -11.5 40t-29 23.5t-38.5 7.5t-42 -6
l-11 120q1 19 10 24.5t18.5 3.5t17 -8t6.5 -9v-68q22 2 46 -10.5t43 -32.5t30.5 -44t9.5 -46.5t-21 -40.5t-60 -24z" />
    <glyph glyph-name="Scircumflex" unicode="&#x15c;" horiz-adv-x="287" 
d="M107 16q-11 5 -31 18t-33.5 29t-12 32.5t33.5 29.5q59 -45 90.5 -43t41.5 35t2.5 89t-26 118t-44.5 121.5t-52 100.5q-44 64 -58 115t3 80.5t65.5 31t131.5 -33.5q6 -4 12 -17t3.5 -24.5t-17.5 -14.5t-52 13q-41 14 -59.5 12t-22.5 -15t3.5 -33t19 -41.5t24 -42
t19.5 -33.5q14 -24 32 -63.5t35 -86.5t31 -98t20 -99t2.5 -88.5t-21 -67t-51.5 -34.5t-89 10zM253 832q-14 -26 -24.5 -33.5t-19 -3t-15.5 18.5l-15.5 30.5t-18 32t-22.5 23.5q-25 -43 -37 -69t-20 -35t-16.5 -2t-27.5 30q4 18 16 38.5t26.5 41l30 40.5t26.5 38q13 4 27 -12
t28.5 -40.5l30 -52t31.5 -45.5z" />
    <glyph glyph-name="Scommaaccent" unicode="&#x218;" horiz-adv-x="287" 
d="M107 16q-11 5 -31 18t-33.5 29t-12 32.5t33.5 29.5q59 -45 90.5 -43t41.5 35t2.5 89t-26 118t-44.5 121.5t-52 100.5q-44 64 -58 115t3 80.5t65.5 31t131.5 -33.5q6 -4 12 -17t3.5 -24.5t-17.5 -14.5t-52 13q-41 14 -59.5 12t-22.5 -15t3.5 -33t19 -41.5t24 -42
t19.5 -33.5q14 -24 32 -63.5t35 -86.5t31 -98t20 -99t2.5 -88.5t-21 -67t-51.5 -34.5t-89 10zM113 -228q-11 11 -10 27.5t3.5 35t1.5 37.5t-16 35q3 29 20 33t33.5 -13t24 -54t-8.5 -89q-3 -14 -8.5 -19t-12 -5t-13.5 4z" />
    <glyph glyph-name="Tbar" unicode="&#x166;" 
d="M208 29q-8 -15 -21 -19.5t-25 -1.5t-20 12t-6 21l-2 677h-123q-6 2 -10.5 10.5t-5.5 18.5t2.5 19t14.5 12h301q21 -4 30 -16t9 -24t-7.5 -20t-19.5 -4l-120 -2l3 -683v0zM55 564q-7 4 -10 13.5t-1.5 20t8 18.5t17.5 8h193q2 1 10.5 -8t12 -20.5t-5 -22t-39.5 -11.5
q-7 0 -34.5 0.5t-58.5 0.5h-58t-34 1z" />
    <glyph glyph-name="Tcaron" unicode="&#x164;" 
d="M208 29q-8 -15 -21 -19.5t-25 -1.5t-20 12t-6 21l-2 677h-123q-6 2 -10.5 10.5t-5.5 18.5t2.5 19t14.5 12h301q21 -4 30 -16t9 -24t-7.5 -20t-19.5 -4l-120 -2l3 -683v0zM72 942q14 27 24.5 34t19 2.5t15.5 -18.5l15.5 -30.5t18 -32t22.5 -23.5q25 43 37 69t20 35
t16.5 1.5t27.5 -29.5q-4 -18 -16 -38.5t-26.5 -41l-30 -40.5t-26.5 -38q-13 -5 -27 11.5t-28.5 41l-30 52t-31.5 45.5z" />
    <glyph glyph-name="Tcommaaccent" unicode="&#x162;" 
d="M208 29q-8 -15 -21 -19.5t-25 -1.5t-20 12t-6 21l-2 677h-123q-6 2 -10.5 10.5t-5.5 18.5t2.5 19t14.5 12h301q21 -4 30 -16t9 -24t-7.5 -20t-19.5 -4l-120 -2l3 -683v0zM148 -228q-11 11 -10 27.5t3.5 35t1.5 37.5t-16 35q3 29 20 33t33.5 -13t24 -54t-8.5 -89
q-3 -14 -8.5 -19t-12 -5t-13.5 4z" />
    <glyph glyph-name="Uacute" unicode="&#xda;" horiz-adv-x="393" 
d="M88 23q-13 20 -23 42t-17.5 55t-12.5 80t-8 117.5t-4 167.5t0 229q3 50 12 66t18.5 11t17 -24.5t8.5 -40.5l14 -529q15 -74 44 -84t59 55.5t55 213t34 390.5q14 13 33 8t27 -25q-20 -179 -14 -367.5t38 -365.5q-15 -25 -27 -24.5t-21.5 15t-16.5 38.5t-12.5 48l-10 42.5
t-8.5 22.5q-5 -12 -16 -31t-26 -40t-33 -40t-37 -31t-38 -13t-35 14zM215 840q-28 -32 -43.5 -31.5t-18 18.5t7.5 46t33 52q24 8 33.5 0t9.5 -23.5t-7 -33.5t-15 -28z" />
    <glyph glyph-name="Ubreve" unicode="&#x16c;" horiz-adv-x="393" 
d="M88 23q-13 20 -23 42t-17.5 55t-12.5 80t-8 117.5t-4 167.5t0 229q3 50 12 66t18.5 11t17 -24.5t8.5 -40.5l14 -529q15 -74 44 -84t59 55.5t55 213t34 390.5q14 13 33 8t27 -25q-20 -179 -14 -367.5t38 -365.5q-15 -25 -27 -24.5t-21.5 15t-16.5 38.5t-12.5 48l-10 42.5
t-8.5 22.5q-5 -12 -16 -31t-26 -40t-33 -40t-37 -31t-38 -13t-35 14zM81 911q17 32 31.5 38t19.5 -8q15 -40 30 -57t28 -18t24.5 9.5t20.5 25.5t15.5 29.5t10.5 21.5t12 10t16 1t15 -9.5t8 -22.5q-20 -46 -48 -80t-58.5 -43.5t-63 13t-61.5 90.5z" />
    <glyph glyph-name="Ucircumflex" unicode="&#xdb;" horiz-adv-x="393" 
d="M88 23q-13 20 -23 42t-17.5 55t-12.5 80t-8 117.5t-4 167.5t0 229q3 50 12 66t18.5 11t17 -24.5t8.5 -40.5l14 -529q15 -74 44 -84t59 55.5t55 213t34 390.5q14 13 33 8t27 -25q-20 -179 -14 -367.5t38 -365.5q-15 -25 -27 -24.5t-21.5 15t-16.5 38.5t-12.5 48l-10 42.5
t-8.5 22.5q-5 -12 -16 -31t-26 -40t-33 -40t-37 -31t-38 -13t-35 14zM304 832q-14 -26 -24.5 -33.5t-19 -3t-15.5 18.5l-15.5 30.5t-18 32t-22.5 23.5q-25 -43 -37 -69t-20 -35t-16.5 -2t-27.5 30q4 18 16 38.5t26.5 41l30 40.5t26.5 38q13 4 27 -12t28.5 -40.5l30 -52
t31.5 -45.5z" />
    <glyph glyph-name="Udieresis" unicode="&#xdc;" horiz-adv-x="393" 
d="M88 23q-13 20 -23 42t-17.5 55t-12.5 80t-8 117.5t-4 167.5t0 229q3 50 12 66t18.5 11t17 -24.5t8.5 -40.5l14 -529q15 -74 44 -84t59 55.5t55 213t34 390.5q14 13 33 8t27 -25q-20 -179 -14 -367.5t38 -365.5q-15 -25 -27 -24.5t-21.5 15t-16.5 38.5t-12.5 48l-10 42.5
t-8.5 22.5q-5 -12 -16 -31t-26 -40t-33 -40t-37 -31t-38 -13t-35 14zM92 820q-11 16 -3 30.5t23.5 22t32 5.5t23.5 -19q5 -10 -1 -23t-18 -21.5t-27.5 -9t-29.5 14.5zM239 820q-11 16 -3 30.5t23.5 22t32 5.5t23.5 -19q5 -10 -1 -23t-18 -21.5t-27.5 -9t-29.5 14.5z" />
    <glyph glyph-name="Ugrave" unicode="&#xd9;" horiz-adv-x="393" 
d="M88 23q-13 20 -23 42t-17.5 55t-12.5 80t-8 117.5t-4 167.5t0 229q3 50 12 66t18.5 11t17 -24.5t8.5 -40.5l14 -529q15 -74 44 -84t59 55.5t55 213t34 390.5q14 13 33 8t27 -25q-20 -179 -14 -367.5t38 -365.5q-15 -25 -27 -24.5t-21.5 15t-16.5 38.5t-12.5 48l-10 42.5
t-8.5 22.5q-5 -12 -16 -31t-26 -40t-33 -40t-37 -31t-38 -13t-35 14zM177 840q-8 10 -15 28t-7 33.5t9.5 23.5t33.5 0q23 -24 33 -52t7.5 -46t-18 -18.5t-43.5 31.5z" />
    <glyph glyph-name="Uhungarumlaut" unicode="&#x170;" horiz-adv-x="393" 
d="M88 23q-13 20 -23 42t-17.5 55t-12.5 80t-8 117.5t-4 167.5t0 229q3 50 12 66t18.5 11t17 -24.5t8.5 -40.5l14 -529q15 -74 44 -84t59 55.5t55 213t34 390.5q14 13 33 8t27 -25q-20 -179 -14 -367.5t38 -365.5q-15 -25 -27 -24.5t-21.5 15t-16.5 38.5t-12.5 48l-10 42.5
t-8.5 22.5q-5 -12 -16 -31t-26 -40t-33 -40t-37 -31t-38 -13t-35 14zM161 840q-28 -32 -43.5 -31.5t-18 18.5t7.5 46t33 52q24 8 33.5 0t9.5 -23.5t-7 -33.5t-15 -28zM270 840q-28 -32 -43.5 -31.5t-18 18.5t7.5 46t33 52q24 8 33.5 0t9.5 -23.5t-7 -33.5t-15 -28z" />
    <glyph glyph-name="Umacron" unicode="&#x16a;" horiz-adv-x="393" 
d="M88 23q-13 20 -23 42t-17.5 55t-12.5 80t-8 117.5t-4 167.5t0 229q3 50 12 66t18.5 11t17 -24.5t8.5 -40.5l14 -529q15 -74 44 -84t59 55.5t55 213t34 390.5q14 13 33 8t27 -25q-20 -179 -14 -367.5t38 -365.5q-15 -25 -27 -24.5t-21.5 15t-16.5 38.5t-12.5 48l-10 42.5
t-8.5 22.5q-5 -12 -16 -31t-26 -40t-33 -40t-37 -31t-38 -13t-35 14zM71 799q-7 4 -10 13.5t-1.5 20t8 18.5t17.5 8h193q2 1 10.5 -8t12 -20.5t-5 -22t-39.5 -11.5q-7 0 -34.5 0.5t-58.5 0.5h-58t-34 1z" />
    <glyph glyph-name="Uogonek" unicode="&#x172;" horiz-adv-x="393" 
d="M88 23q-13 20 -23 42t-17.5 55t-12.5 80t-8 117.5t-4 167.5t0 229q3 50 12 66t18.5 11t17 -24.5t8.5 -40.5l14 -529q15 -74 44 -84t59 55.5t55 213t34 390.5q14 13 33 8t27 -25q-20 -179 -14 -367.5t38 -365.5q-15 -25 -27 -24.5t-21.5 15t-16.5 38.5t-12.5 48l-10 42.5
t-8.5 22.5q-5 -12 -16 -31t-26 -40t-33 -40t-37 -31t-38 -13t-35 14zM355 -93q-17 -4 -34 -2t-31 10t-23.5 22.5t-9.5 35.5q1 36 18.5 55t43.5 24l9 -41q-20 -2 -30 -14t-8.5 -25.5t16.5 -24t46 -10.5z" />
    <glyph glyph-name="Uring" unicode="&#x16e;" horiz-adv-x="393" 
d="M88 23q-13 20 -23 42t-17.5 55t-12.5 80t-8 117.5t-4 167.5t0 229q3 50 12 66t18.5 11t17 -24.5t8.5 -40.5l14 -529q15 -74 44 -84t59 55.5t55 213t34 390.5q14 13 33 8t27 -25q-20 -179 -14 -367.5t38 -365.5q-15 -25 -27 -24.5t-21.5 15t-16.5 38.5t-12.5 48l-10 42.5
t-8.5 22.5q-5 -12 -16 -31t-26 -40t-33 -40t-37 -31t-38 -13t-35 14zM102 844q1 31 14.5 49.5t34.5 26t45 5.5t45 -10t34.5 -21t14.5 -28q0 -11 -11.5 -24t-29.5 -23.5t-40 -17t-43 -5.5t-38.5 12t-25.5 36zM151 852q1 -9 13 -11t25.5 1.5t25.5 10.5t15 15q4 4 -9 9t-29 5.5
t-29.5 -6t-11.5 -24.5z" />
    <glyph glyph-name="Utilde" unicode="&#x168;" horiz-adv-x="393" 
d="M88 23q-13 20 -23 42t-17.5 55t-12.5 80t-8 117.5t-4 167.5t0 229q3 50 12 66t18.5 11t17 -24.5t8.5 -40.5l14 -529q15 -74 44 -84t59 55.5t55 213t34 390.5q14 13 33 8t27 -25q-20 -179 -14 -367.5t38 -365.5q-15 -25 -27 -24.5t-21.5 15t-16.5 38.5t-12.5 48l-10 42.5
t-8.5 22.5q-5 -12 -16 -31t-26 -40t-33 -40t-37 -31t-38 -13t-35 14zM-26 874q9 11 18.5 29t22 33.5t29 25t39 4t53 -30.5t70.5 -77q24 -17 39 -16t24.5 13t14.5 29.5t8.5 34.5t5.5 28t7 9q31 -8 39 -30.5t0 -48.5t-29.5 -50.5t-49.5 -36t-59.5 -4.5t-59.5 44l-28 40.5
t-26 24t-26.5 -5.5t-28.5 -48q-9 -18 -21 -20.5t-22.5 4.5t-16.5 21t-3 28z" />
    <glyph glyph-name="Wacute" unicode="&#x1e82;" horiz-adv-x="568" 
d="M22 718q-2 17 1 33t10.5 24t19.5 5.5t29 -21.5l99 -602q18 14 33 45.5l29 59t28.5 39t31.5 -13.5l68 -170l130 653q3 13 13.5 16t20.5 -4.5t15.5 -25.5t-1.5 -46l-130 -677q0 -4 -5 -11t-14.5 -11.5t-22.5 -2.5t-28 16q-7 11 -18 34l-22.5 48l-21.5 46.5l-14 30.5
l-76 -156q-3 -6 -11.5 -11t-18.5 -7t-19 0.5t-14 12.5zM303 840q-28 -32 -43.5 -31.5t-18 18.5t7.5 46t33 52q24 8 33.5 0t9.5 -23.5t-7 -33.5t-15 -28z" />
    <glyph glyph-name="Wcircumflex" unicode="&#x174;" horiz-adv-x="568" 
d="M22 718q-2 17 1 33t10.5 24t19.5 5.5t29 -21.5l99 -602q18 14 33 45.5l29 59t28.5 39t31.5 -13.5l68 -170l130 653q3 13 13.5 16t20.5 -4.5t15.5 -25.5t-1.5 -46l-130 -677q0 -4 -5 -11t-14.5 -11.5t-22.5 -2.5t-28 16q-7 11 -18 34l-22.5 48l-21.5 46.5l-14 30.5
l-76 -156q-3 -6 -11.5 -11t-18.5 -7t-19 0.5t-14 12.5zM392 832q-14 -26 -24.5 -33.5t-19 -3t-15.5 18.5l-15.5 30.5t-18 32t-22.5 23.5q-25 -43 -37 -69t-20 -35t-16.5 -2t-27.5 30q4 18 16 38.5t26.5 41l30 40.5t26.5 38q13 4 27 -12t28.5 -40.5l30 -52t31.5 -45.5z" />
    <glyph glyph-name="Wdieresis" unicode="&#x1e84;" horiz-adv-x="568" 
d="M22 718q-2 17 1 33t10.5 24t19.5 5.5t29 -21.5l99 -602q18 14 33 45.5l29 59t28.5 39t31.5 -13.5l68 -170l130 653q3 13 13.5 16t20.5 -4.5t15.5 -25.5t-1.5 -46l-130 -677q0 -4 -5 -11t-14.5 -11.5t-22.5 -2.5t-28 16q-7 11 -18 34l-22.5 48l-21.5 46.5l-14 30.5
l-76 -156q-3 -6 -11.5 -11t-18.5 -7t-19 0.5t-14 12.5zM180 820q-11 16 -3 30.5t23.5 22t32 5.5t23.5 -19q5 -10 -1 -23t-18 -21.5t-27.5 -9t-29.5 14.5zM327 820q-11 16 -3 30.5t23.5 22t32 5.5t23.5 -19q5 -10 -1 -23t-18 -21.5t-27.5 -9t-29.5 14.5z" />
    <glyph glyph-name="Wgrave" unicode="&#x1e80;" horiz-adv-x="568" 
d="M22 718q-2 17 1 33t10.5 24t19.5 5.5t29 -21.5l99 -602q18 14 33 45.5l29 59t28.5 39t31.5 -13.5l68 -170l130 653q3 13 13.5 16t20.5 -4.5t15.5 -25.5t-1.5 -46l-130 -677q0 -4 -5 -11t-14.5 -11.5t-22.5 -2.5t-28 16q-7 11 -18 34l-22.5 48l-21.5 46.5l-14 30.5
l-76 -156q-3 -6 -11.5 -11t-18.5 -7t-19 0.5t-14 12.5zM265 840q-8 10 -15 28t-7 33.5t9.5 23.5t33.5 0q23 -24 33 -52t7.5 -46t-18 -18.5t-43.5 31.5z" />
    <glyph glyph-name="Yacute" unicode="&#xdd;" horiz-adv-x="343" 
d="M131 552l-113 183q-8 12 -5 21.5t11 13.5t20 2t22 -13q4 -5 19.5 -26.5l33 -46.5l32.5 -46.5l19 -27.5l103 158q32 20 46 6.5t0 -51.5l-122 -179l14 -534q-4 -15 -13 -19t-19 -0.5t-18 13t-10 21.5zM190 840q-28 -32 -43.5 -31.5t-18 18.5t7.5 46t33 52q24 8 33.5 0
t9.5 -23.5t-7 -33.5t-15 -28z" />
    <glyph glyph-name="Ycircumflex" unicode="&#x176;" horiz-adv-x="343" 
d="M131 552l-113 183q-8 12 -5 21.5t11 13.5t20 2t22 -13q4 -5 19.5 -26.5l33 -46.5l32.5 -46.5l19 -27.5l103 158q32 20 46 6.5t0 -51.5l-122 -179l14 -534q-4 -15 -13 -19t-19 -0.5t-18 13t-10 21.5zM279 832q-14 -26 -24.5 -33.5t-19 -3t-15.5 18.5l-15.5 30.5t-18 32
t-22.5 23.5q-25 -43 -37 -69t-20 -35t-16.5 -2t-27.5 30q4 18 16 38.5t26.5 41l30 40.5t26.5 38q13 4 27 -12t28.5 -40.5l30 -52t31.5 -45.5z" />
    <glyph glyph-name="Ydieresis" unicode="&#x178;" horiz-adv-x="343" 
d="M131 552l-113 183q-8 12 -5 21.5t11 13.5t20 2t22 -13q4 -5 19.5 -26.5l33 -46.5l32.5 -46.5l19 -27.5l103 158q32 20 46 6.5t0 -51.5l-122 -179l14 -534q-4 -15 -13 -19t-19 -0.5t-18 13t-10 21.5zM67 820q-11 16 -3 30.5t23.5 22t32 5.5t23.5 -19q5 -10 -1 -23
t-18 -21.5t-27.5 -9t-29.5 14.5zM214 820q-11 16 -3 30.5t23.5 22t32 5.5t23.5 -19q5 -10 -1 -23t-18 -21.5t-27.5 -9t-29.5 14.5z" />
    <glyph glyph-name="Ygrave" unicode="&#x1ef2;" horiz-adv-x="343" 
d="M131 552l-113 183q-8 12 -5 21.5t11 13.5t20 2t22 -13q4 -5 19.5 -26.5l33 -46.5l32.5 -46.5l19 -27.5l103 158q32 20 46 6.5t0 -51.5l-122 -179l14 -534q-4 -15 -13 -19t-19 -0.5t-18 13t-10 21.5zM152 840q-8 10 -15 28t-7 33.5t9.5 23.5t33.5 0q23 -24 33 -52t7.5 -46
t-18 -18.5t-43.5 31.5z" />
    <glyph glyph-name="Zcaron" unicode="&#x17d;" horiz-adv-x="325" 
d="M115 522q-12 1 -28.5 -0.5l-31.5 -3t-25 0t-9 10.5q-11 19 -6 30.5t18.5 17.5t32.5 8.5t35.5 2.5t27.5 -1t10 0l12.5 29.5t16 41.5l13 37.5l5.5 16.5q-12 2 -30 1.5t-37.5 -0.5t-37.5 1t-31.5 6.5t-20.5 16.5t-2 30q19 12 46.5 14t57.5 -0.5t60.5 -6t54.5 -2.5
q12 -3 14 -17.5t-2.5 -35t-12.5 -44t-16 -43.5l-14 -34.5t-5 -16.5q50 6 72 -0.5t28 -18.5t2.5 -25t-4.5 -21h-120l-110 -442q8 -1 32 2t54 5.5t61 2.5t53.5 -6.5t32 -21t-4.5 -40.5q-24 -1 -57.5 -4.5t-68.5 -6t-68.5 -2.5t-57.5 5.5t-35.5 19t-2.5 37.5zM54 942
q14 27 24.5 34t19 2.5t15.5 -18.5l15.5 -30.5t18 -32t22.5 -23.5q25 43 37 69t20 35t16.5 1.5t27.5 -29.5q-4 -18 -16 -38.5t-26.5 -41l-30 -40.5t-26.5 -38q-13 -5 -27 11.5t-28.5 41l-30 52t-31.5 45.5z" />
    <glyph glyph-name="Zacute" unicode="&#x179;" horiz-adv-x="325" 
d="M115 522q-12 1 -28.5 -0.5l-31.5 -3t-25 0t-9 10.5q-11 19 -6 30.5t18.5 17.5t32.5 8.5t35.5 2.5t27.5 -1t10 0l12.5 29.5t16 41.5l13 37.5l5.5 16.5q-12 2 -30 1.5t-37.5 -0.5t-37.5 1t-31.5 6.5t-20.5 16.5t-2 30q19 12 46.5 14t57.5 -0.5t60.5 -6t54.5 -2.5
q12 -3 14 -17.5t-2.5 -35t-12.5 -44t-16 -43.5l-14 -34.5t-5 -16.5q50 6 72 -0.5t28 -18.5t2.5 -25t-4.5 -21h-120l-110 -442q8 -1 32 2t54 5.5t61 2.5t53.5 -6.5t32 -21t-4.5 -40.5q-24 -1 -57.5 -4.5t-68.5 -6t-68.5 -2.5t-57.5 5.5t-35.5 19t-2.5 37.5zM181 840
q-28 -32 -43.5 -31.5t-18 18.5t7.5 46t33 52q24 8 33.5 0t9.5 -23.5t-7 -33.5t-15 -28z" />
    <glyph glyph-name="Zdotaccent" unicode="&#x17b;" horiz-adv-x="325" 
d="M115 522q-12 1 -28.5 -0.5l-31.5 -3t-25 0t-9 10.5q-11 19 -6 30.5t18.5 17.5t32.5 8.5t35.5 2.5t27.5 -1t10 0l12.5 29.5t16 41.5l13 37.5l5.5 16.5q-12 2 -30 1.5t-37.5 -0.5t-37.5 1t-31.5 6.5t-20.5 16.5t-2 30q19 12 46.5 14t57.5 -0.5t60.5 -6t54.5 -2.5
q12 -3 14 -17.5t-2.5 -35t-12.5 -44t-16 -43.5l-14 -34.5t-5 -16.5q50 6 72 -0.5t28 -18.5t2.5 -25t-4.5 -21h-120l-110 -442q8 -1 32 2t54 5.5t61 2.5t53.5 -6.5t32 -21t-4.5 -40.5q-24 -1 -57.5 -4.5t-68.5 -6t-68.5 -2.5t-57.5 5.5t-35.5 19t-2.5 37.5zM132 818
q-11 16 -3 30.5t23.5 22t32 5.5t23.5 -19q5 -10 -1 -23t-18 -21.5t-27.5 -9t-29.5 14.5z" />
    <glyph glyph-name="aacute" unicode="&#xe1;" horiz-adv-x="377" 
d="M114 12q-23 24 -41 65t-31 93.5t-20 112t-8 120t5.5 118t20.5 106t36.5 83.5t54.5 51q35 17 65 11t52.5 -29t36.5 -61t18 -84q1 -115 2.5 -188.5t4.5 -120t8.5 -74t15 -50.5t23.5 -48.5t34 -68.5q-11 -22 -23.5 -26t-25 3.5t-24.5 22.5t-21.5 32t-16.5 31.5t-9 21.5
q-5 -23 -19.5 -53t-35 -52.5t-47 -30t-55.5 14.5zM136 60q19 -14 36 5.5t31 62t24 101.5t15.5 123t5.5 127.5t-6.5 114.5t-20 84.5t-35.5 36.5q-25 6 -43.5 -9.5t-29.5 -38.5q-15 -32 -24 -82t-12 -107.5t-0.5 -119.5t10 -118.5t20 -103.5t29.5 -76zM207 846
q-28 -32 -43.5 -31.5t-18 18.5t7.5 46t33 52q24 8 33.5 0t9.5 -23.5t-7 -33.5t-15 -28z" />
    <glyph glyph-name="abreve" unicode="&#x103;" horiz-adv-x="377" 
d="M114 12q-23 24 -41 65t-31 93.5t-20 112t-8 120t5.5 118t20.5 106t36.5 83.5t54.5 51q35 17 65 11t52.5 -29t36.5 -61t18 -84q1 -115 2.5 -188.5t4.5 -120t8.5 -74t15 -50.5t23.5 -48.5t34 -68.5q-11 -22 -23.5 -26t-25 3.5t-24.5 22.5t-21.5 32t-16.5 31.5t-9 21.5
q-5 -23 -19.5 -53t-35 -52.5t-47 -30t-55.5 14.5zM136 60q19 -14 36 5.5t31 62t24 101.5t15.5 123t5.5 127.5t-6.5 114.5t-20 84.5t-35.5 36.5q-25 6 -43.5 -9.5t-29.5 -38.5q-15 -32 -24 -82t-12 -107.5t-0.5 -119.5t10 -118.5t20 -103.5t29.5 -76zM73 917q17 32 31.5 38
t19.5 -8q15 -40 30 -57t28 -18t24.5 9.5t20.5 25.5t15.5 29.5t10.5 21.5t12 10t16 1t15 -9.5t8 -22.5q-20 -46 -48 -80t-58.5 -43.5t-63 13t-61.5 90.5z" />
    <glyph glyph-name="acircumflex" unicode="&#xe2;" horiz-adv-x="377" 
d="M114 12q-23 24 -41 65t-31 93.5t-20 112t-8 120t5.5 118t20.5 106t36.5 83.5t54.5 51q35 17 65 11t52.5 -29t36.5 -61t18 -84q1 -115 2.5 -188.5t4.5 -120t8.5 -74t15 -50.5t23.5 -48.5t34 -68.5q-11 -22 -23.5 -26t-25 3.5t-24.5 22.5t-21.5 32t-16.5 31.5t-9 21.5
q-5 -23 -19.5 -53t-35 -52.5t-47 -30t-55.5 14.5zM136 60q19 -14 36 5.5t31 62t24 101.5t15.5 123t5.5 127.5t-6.5 114.5t-20 84.5t-35.5 36.5q-25 6 -43.5 -9.5t-29.5 -38.5q-15 -32 -24 -82t-12 -107.5t-0.5 -119.5t10 -118.5t20 -103.5t29.5 -76zM296 838
q-14 -26 -24.5 -33.5t-19 -3t-15.5 18.5l-15.5 30.5t-18 32t-22.5 23.5q-25 -43 -37 -69t-20 -35t-16.5 -2t-27.5 30q4 18 16 38.5t26.5 41l30 40.5t26.5 38q13 4 27 -12t28.5 -40.5l30 -52t31.5 -45.5z" />
    <glyph glyph-name="adieresis" unicode="&#xe4;" horiz-adv-x="377" 
d="M114 12q-23 24 -41 65t-31 93.5t-20 112t-8 120t5.5 118t20.5 106t36.5 83.5t54.5 51q35 17 65 11t52.5 -29t36.5 -61t18 -84q1 -115 2.5 -188.5t4.5 -120t8.5 -74t15 -50.5t23.5 -48.5t34 -68.5q-11 -22 -23.5 -26t-25 3.5t-24.5 22.5t-21.5 32t-16.5 31.5t-9 21.5
q-5 -23 -19.5 -53t-35 -52.5t-47 -30t-55.5 14.5zM136 60q19 -14 36 5.5t31 62t24 101.5t15.5 123t5.5 127.5t-6.5 114.5t-20 84.5t-35.5 36.5q-25 6 -43.5 -9.5t-29.5 -38.5q-15 -32 -24 -82t-12 -107.5t-0.5 -119.5t10 -118.5t20 -103.5t29.5 -76zM84 826q-11 16 -3 30.5
t23.5 22t32 5.5t23.5 -19q5 -10 -1 -23t-18 -21.5t-27.5 -9t-29.5 14.5zM231 826q-11 16 -3 30.5t23.5 22t32 5.5t23.5 -19q5 -10 -1 -23t-18 -21.5t-27.5 -9t-29.5 14.5z" />
    <glyph glyph-name="agrave" unicode="&#xe0;" horiz-adv-x="377" 
d="M114 12q-23 24 -41 65t-31 93.5t-20 112t-8 120t5.5 118t20.5 106t36.5 83.5t54.5 51q35 17 65 11t52.5 -29t36.5 -61t18 -84q1 -115 2.5 -188.5t4.5 -120t8.5 -74t15 -50.5t23.5 -48.5t34 -68.5q-11 -22 -23.5 -26t-25 3.5t-24.5 22.5t-21.5 32t-16.5 31.5t-9 21.5
q-5 -23 -19.5 -53t-35 -52.5t-47 -30t-55.5 14.5zM136 60q19 -14 36 5.5t31 62t24 101.5t15.5 123t5.5 127.5t-6.5 114.5t-20 84.5t-35.5 36.5q-25 6 -43.5 -9.5t-29.5 -38.5q-15 -32 -24 -82t-12 -107.5t-0.5 -119.5t10 -118.5t20 -103.5t29.5 -76zM169 846q-8 10 -15 28
t-7 33.5t9.5 23.5t33.5 0q23 -24 33 -52t7.5 -46t-18 -18.5t-43.5 31.5z" />
    <glyph glyph-name="amacron" unicode="&#x101;" horiz-adv-x="377" 
d="M114 12q-23 24 -41 65t-31 93.5t-20 112t-8 120t5.5 118t20.5 106t36.5 83.5t54.5 51q35 17 65 11t52.5 -29t36.5 -61t18 -84q1 -115 2.5 -188.5t4.5 -120t8.5 -74t15 -50.5t23.5 -48.5t34 -68.5q-11 -22 -23.5 -26t-25 3.5t-24.5 22.5t-21.5 32t-16.5 31.5t-9 21.5
q-5 -23 -19.5 -53t-35 -52.5t-47 -30t-55.5 14.5zM136 60q19 -14 36 5.5t31 62t24 101.5t15.5 123t5.5 127.5t-6.5 114.5t-20 84.5t-35.5 36.5q-25 6 -43.5 -9.5t-29.5 -38.5q-15 -32 -24 -82t-12 -107.5t-0.5 -119.5t10 -118.5t20 -103.5t29.5 -76zM63 805q-7 4 -10 13.5
t-1.5 20t8 18.5t17.5 8h193q2 1 10.5 -8t12 -20.5t-5 -22t-39.5 -11.5q-7 0 -34.5 0.5t-58.5 0.5h-58t-34 1z" />
    <glyph glyph-name="aogonek" unicode="&#x105;" horiz-adv-x="377" 
d="M114 12q-23 24 -41 65t-31 93.5t-20 112t-8 120t5.5 118t20.5 106t36.5 83.5t54.5 51q35 17 65 11t52.5 -29t36.5 -61t18 -84q1 -115 2.5 -188.5t4.5 -120t8.5 -74t15 -50.5t23.5 -48.5t34 -68.5q-11 -22 -23.5 -26t-25 3.5t-24.5 22.5t-21.5 32t-16.5 31.5t-9 21.5
q-5 -23 -19.5 -53t-35 -52.5t-47 -30t-55.5 14.5zM136 60q19 -14 36 5.5t31 62t24 101.5t15.5 123t5.5 127.5t-6.5 114.5t-20 84.5t-35.5 36.5q-25 6 -43.5 -9.5t-29.5 -38.5q-15 -32 -24 -82t-12 -107.5t-0.5 -119.5t10 -118.5t20 -103.5t29.5 -76zM383 -52q-17 -4 -34 -2
t-31 10t-23.5 22.5t-9.5 35.5q1 36 18.5 55t43.5 24l9 -41q-20 -2 -30 -14t-8.5 -25.5t16.5 -24t46 -10.5z" />
    <glyph glyph-name="aring" unicode="&#xe5;" horiz-adv-x="377" 
d="M114 12q-23 24 -41 65t-31 93.5t-20 112t-8 120t5.5 118t20.5 106t36.5 83.5t54.5 51q35 17 65 11t52.5 -29t36.5 -61t18 -84q1 -115 2.5 -188.5t4.5 -120t8.5 -74t15 -50.5t23.5 -48.5t34 -68.5q-11 -22 -23.5 -26t-25 3.5t-24.5 22.5t-21.5 32t-16.5 31.5t-9 21.5
q-5 -23 -19.5 -53t-35 -52.5t-47 -30t-55.5 14.5zM136 60q19 -14 36 5.5t31 62t24 101.5t15.5 123t5.5 127.5t-6.5 114.5t-20 84.5t-35.5 36.5q-25 6 -43.5 -9.5t-29.5 -38.5q-15 -32 -24 -82t-12 -107.5t-0.5 -119.5t10 -118.5t20 -103.5t29.5 -76zM94 850q1 31 14.5 49.5
t34.5 26t45 5.5t45 -10t34.5 -21t14.5 -28q0 -11 -11.5 -24t-29.5 -23.5t-40 -17t-43 -5.5t-38.5 12t-25.5 36zM143 858q1 -9 13 -11t25.5 1.5t25.5 10.5t15 15q4 4 -9 9t-29 5.5t-29.5 -6t-11.5 -24.5z" />
    <glyph glyph-name="atilde" unicode="&#xe3;" horiz-adv-x="377" 
d="M114 12q-23 24 -41 65t-31 93.5t-20 112t-8 120t5.5 118t20.5 106t36.5 83.5t54.5 51q35 17 65 11t52.5 -29t36.5 -61t18 -84q1 -115 2.5 -188.5t4.5 -120t8.5 -74t15 -50.5t23.5 -48.5t34 -68.5q-11 -22 -23.5 -26t-25 3.5t-24.5 22.5t-21.5 32t-16.5 31.5t-9 21.5
q-5 -23 -19.5 -53t-35 -52.5t-47 -30t-55.5 14.5zM136 60q19 -14 36 5.5t31 62t24 101.5t15.5 123t5.5 127.5t-6.5 114.5t-20 84.5t-35.5 36.5q-25 6 -43.5 -9.5t-29.5 -38.5q-15 -32 -24 -82t-12 -107.5t-0.5 -119.5t10 -118.5t20 -103.5t29.5 -76zM-34 880q9 11 18.5 29
t22 33.5t29 25t39 4t53 -30.5t70.5 -77q24 -17 39 -16t24.5 13t14.5 29.5t8.5 34.5t5.5 28t7 9q31 -8 39 -30.5t0 -48.5t-29.5 -50.5t-49.5 -36t-59.5 -4.5t-59.5 44l-28 40.5t-26 24t-26.5 -5.5t-28.5 -48q-9 -18 -21 -20.5t-22.5 4.5t-16.5 21t-3 28z" />
    <glyph glyph-name="ae" unicode="&#xe6;" horiz-adv-x="598" 
d="M114 12q-23 24 -41 65t-31 93.5t-20 112t-8 120t5.5 118t20.5 106t36.5 83.5t54.5 51q35 17 65 11t52.5 -29t36.5 -61t18 -84q1 -115 2.5 -188.5t4.5 -120t8.5 -74t15 -50.5t23.5 -48.5t34 -68.5q-11 -22 -23.5 -26t-25 3.5t-24.5 22.5t-21.5 32t-16.5 31.5t-9 21.5
q-5 -23 -19.5 -53t-35 -52.5t-47 -30t-55.5 14.5zM136 60q19 -14 36 5.5t31 62t24 101.5t15.5 123t5.5 127.5t-6.5 114.5t-20 84.5t-35.5 36.5q-25 6 -43.5 -9.5t-29.5 -38.5q-15 -32 -24 -82t-12 -107.5t-0.5 -119.5t10 -118.5t20 -103.5t29.5 -76zM417 11q-41 23 -67 64.5
t-40 92.5t-19 107.5t-4.5 109.5t4.5 98.5t7 75.5q10 93 39.5 140.5t66.5 62t75.5 1t66 -43t38 -69.5t-8.5 -79q-51 -2 -103.5 -5.5t-103.5 -18.5q-5 -36 -10 -89t-4.5 -110t8 -111t26.5 -92.5t51.5 -54.5t82.5 3q23 19 36.5 18.5t16.5 -11.5t-4.5 -29t-26.5 -33t-50.5 -24
t-76.5 -3zM510 626q8 12 2.5 27t-19 26.5t-32 17t-36 -0.5t-31 -26t-16.5 -60z" />
    <glyph glyph-name="aeacute" unicode="&#x1fd;" horiz-adv-x="598" 
d="M114 12q-23 24 -41 65t-31 93.5t-20 112t-8 120t5.5 118t20.5 106t36.5 83.5t54.5 51q35 17 65 11t52.5 -29t36.5 -61t18 -84q1 -115 2.5 -188.5t4.5 -120t8.5 -74t15 -50.5t23.5 -48.5t34 -68.5q-11 -22 -23.5 -26t-25 3.5t-24.5 22.5t-21.5 32t-16.5 31.5t-9 21.5
q-5 -23 -19.5 -53t-35 -52.5t-47 -30t-55.5 14.5zM136 60q19 -14 36 5.5t31 62t24 101.5t15.5 123t5.5 127.5t-6.5 114.5t-20 84.5t-35.5 36.5q-25 6 -43.5 -9.5t-29.5 -38.5q-15 -32 -24 -82t-12 -107.5t-0.5 -119.5t10 -118.5t20 -103.5t29.5 -76zM417 11q-41 23 -67 64.5
t-40 92.5t-19 107.5t-4.5 109.5t4.5 98.5t7 75.5q10 93 39.5 140.5t66.5 62t75.5 1t66 -43t38 -69.5t-8.5 -79q-51 -2 -103.5 -5.5t-103.5 -18.5q-5 -36 -10 -89t-4.5 -110t8 -111t26.5 -92.5t51.5 -54.5t82.5 3q23 19 36.5 18.5t16.5 -11.5t-4.5 -29t-26.5 -33t-50.5 -24
t-76.5 -3zM510 626q8 12 2.5 27t-19 26.5t-32 17t-36 -0.5t-31 -26t-16.5 -60zM318 846q-28 -32 -43.5 -31.5t-18 18.5t7.5 46t33 52q24 8 33.5 0t9.5 -23.5t-7 -33.5t-15 -28z" />
    <glyph glyph-name="cacute" unicode="&#x107;" horiz-adv-x="289" 
d="M239 3q-56 -21 -97.5 4.5t-68 80t-39.5 130.5t-12.5 157.5t14.5 159t41 136t65.5 88.5t89.5 16q15 -4 24.5 -16.5t10.5 -25t-8 -22t-30 -7.5q-30 20 -55 -1t-44 -67.5t-31 -112t-14.5 -135t4 -135t25.5 -113t50 -69.5t76 -3q28 -19 24 -37.5t-25 -27.5zM163 846
q-28 -32 -43.5 -31.5t-18 18.5t7.5 46t33 52q24 8 33.5 0t9.5 -23.5t-7 -33.5t-15 -28z" />
    <glyph glyph-name="ccaron" unicode="&#x10d;" horiz-adv-x="289" 
d="M239 3q-56 -21 -97.5 4.5t-68 80t-39.5 130.5t-12.5 157.5t14.5 159t41 136t65.5 88.5t89.5 16q15 -4 24.5 -16.5t10.5 -25t-8 -22t-30 -7.5q-30 20 -55 -1t-44 -67.5t-31 -112t-14.5 -135t4 -135t25.5 -113t50 -69.5t76 -3q28 -19 24 -37.5t-25 -27.5zM38 948
q14 27 24.5 34t19 2.5t15.5 -18.5l15.5 -30.5t18 -32t22.5 -23.5q25 43 37 69t20 35t16.5 1.5t27.5 -29.5q-4 -18 -16 -38.5t-26.5 -41l-30 -40.5t-26.5 -38q-13 -5 -27 11.5t-28.5 41l-30 52t-31.5 45.5z" />
    <glyph glyph-name="ccedilla" unicode="&#xe7;" horiz-adv-x="289" 
d="M239 3q-56 -21 -97.5 4.5t-68 80t-39.5 130.5t-12.5 157.5t14.5 159t41 136t65.5 88.5t89.5 16q15 -4 24.5 -16.5t10.5 -25t-8 -22t-30 -7.5q-30 20 -55 -1t-44 -67.5t-31 -112t-14.5 -135t4 -135t25.5 -113t50 -69.5t76 -3q28 -19 24 -37.5t-25 -27.5zM230 -244
q-22 -1 -41 2.5t-34 8.5t-24.5 9.5l-11.5 5.5q-6 6 -4.5 15.5t7.5 17t15 11.5t18 0q15 -8 32 -13.5t32 -7t26.5 3t16.5 17.5q0 24 -11.5 40t-29 23.5t-38.5 7.5t-42 -6l-11 120q1 19 10 24.5t18.5 3.5t17 -8t6.5 -9v-68q22 2 46 -10.5t43 -32.5t30.5 -44t9.5 -46.5
t-21 -40.5t-60 -24z" />
    <glyph glyph-name="ccircumflex" unicode="&#x109;" horiz-adv-x="289" 
d="M239 3q-56 -21 -97.5 4.5t-68 80t-39.5 130.5t-12.5 157.5t14.5 159t41 136t65.5 88.5t89.5 16q15 -4 24.5 -16.5t10.5 -25t-8 -22t-30 -7.5q-30 20 -55 -1t-44 -67.5t-31 -112t-14.5 -135t4 -135t25.5 -113t50 -69.5t76 -3q28 -19 24 -37.5t-25 -27.5zM294 848
q-14 -26 -24.5 -33.5t-19 -3t-15.5 18.5l-15.5 30.5t-18 32t-22.5 23.5q-25 -43 -37 -69t-20 -35t-16.5 -2t-27.5 30q4 18 16 38.5t26.5 41l30 40.5t26.5 38q13 4 27 -12t28.5 -40.5l30 -52t31.5 -45.5z" />
    <glyph glyph-name="cdotaccent" unicode="&#x10b;" horiz-adv-x="289" 
d="M239 3q-56 -21 -97.5 4.5t-68 80t-39.5 130.5t-12.5 157.5t14.5 159t41 136t65.5 88.5t89.5 16q15 -4 24.5 -16.5t10.5 -25t-8 -22t-30 -7.5q-30 20 -55 -1t-44 -67.5t-31 -112t-14.5 -135t4 -135t25.5 -113t50 -69.5t76 -3q28 -19 24 -37.5t-25 -27.5zM150 829
q-11 16 -3 30.5t23.5 22t32 5.5t23.5 -19q5 -10 -1 -23t-18 -21.5t-27.5 -9t-29.5 14.5z" />
    <glyph glyph-name="dcaron" unicode="&#x10f;" horiz-adv-x="374" 
d="M109 11q-32 21 -52 62.5t-28.5 94.5t-7.5 112.5t11.5 116.5t29.5 106.5t44.5 82t58 43.5t69.5 -9q-2 8 -2.5 28.5t1 44t5.5 46.5t12 38.5t20 18t30 -14.5q-5 -162 -4 -275t6 -190t14 -124t20.5 -75.5t25.5 -45t30 -33.5q5 -9 2.5 -20t-9 -19t-16 -10t-19.5 6
q-12 10 -20 25l-15.5 30t-16 28.5t-21.5 21.5q-4 3 -11.5 -7l-18 -25t-25 -31.5t-32 -27.5t-38 -12t-43.5 14zM129 69q26 -10 45 0t32 34t21.5 59.5t13 76t5.5 83t0.5 81.5t-2.5 71t-4 51q-20 34 -40.5 36t-39.5 -17.5t-35 -57t-27 -84t-16 -97t-2.5 -96.5t14.5 -83.5
t35 -56.5zM355 596l-6.5 35t-6 27t-8.5 26t-15 33q-5 10 0.5 16t16.5 6t24.5 -6.5t24.5 -22t17 -40.5t1 -62q-1 -9 -8 -16t-15 -9.5t-15.5 0t-9.5 13.5z" />
    <glyph glyph-name="dcroat" unicode="&#x111;" horiz-adv-x="374" 
d="M109 11q-32 21 -52 62.5t-28.5 94.5t-7.5 112.5t11.5 116.5t29.5 106.5t44.5 82t58 43.5t69.5 -9q-2 8 -2.5 28.5t1 44t5.5 46.5t12 38.5t20 18t30 -14.5q-5 -162 -4 -275t6 -190t14 -124t20.5 -75.5t25.5 -45t30 -33.5q5 -9 2.5 -20t-9 -19t-16 -10t-19.5 6
q-12 10 -20 25l-15.5 30t-16 28.5t-21.5 21.5q-4 3 -11.5 -7l-18 -25t-25 -31.5t-32 -27.5t-38 -12t-43.5 14zM129 69q26 -10 45 0t32 34t21.5 59.5t13 76t5.5 83t0.5 81.5t-2.5 71t-4 51q-20 34 -40.5 36t-39.5 -17.5t-35 -57t-27 -84t-16 -97t-2.5 -96.5t14.5 -83.5
t35 -56.5zM153 669q-7 4 -10 13.5t-1.5 20t8 18.5t17.5 8h193q2 1 10.5 -8t12 -20.5t-5 -22t-39.5 -11.5q-7 0 -34.5 0.5t-58.5 0.5h-58t-34 1z" />
    <glyph glyph-name="eacute" unicode="&#xe9;" horiz-adv-x="338" 
d="M152 11q-41 23 -67 64.5t-40 92.5t-19 107.5t-4.5 109.5t4.5 98.5t7 75.5q10 93 39.5 140.5t66.5 62t75.5 1t66 -43t38 -69.5t-8.5 -79q-51 -2 -103.5 -5.5t-103.5 -18.5q-5 -36 -10 -89t-4.5 -110t8 -111t26.5 -92.5t51.5 -54.5t82.5 3q23 19 36.5 18.5t16.5 -11.5
t-4.5 -29t-26.5 -33t-50.5 -24t-76.5 -3zM245 626q8 12 2.5 27t-19 26.5t-32 17t-36 -0.5t-31 -26t-16.5 -60zM188 846q-28 -32 -43.5 -31.5t-18 18.5t7.5 46t33 52q24 8 33.5 0t9.5 -23.5t-7 -33.5t-15 -28z" />
    <glyph glyph-name="ebreve" unicode="&#x115;" horiz-adv-x="338" 
d="M152 11q-41 23 -67 64.5t-40 92.5t-19 107.5t-4.5 109.5t4.5 98.5t7 75.5q10 93 39.5 140.5t66.5 62t75.5 1t66 -43t38 -69.5t-8.5 -79q-51 -2 -103.5 -5.5t-103.5 -18.5q-5 -36 -10 -89t-4.5 -110t8 -111t26.5 -92.5t51.5 -54.5t82.5 3q23 19 36.5 18.5t16.5 -11.5
t-4.5 -29t-26.5 -33t-50.5 -24t-76.5 -3zM245 626q8 12 2.5 27t-19 26.5t-32 17t-36 -0.5t-31 -26t-16.5 -60zM53 917q17 32 31.5 38t19.5 -8q15 -40 30 -57t28 -18t24.5 9.5t20.5 25.5t15.5 29.5t10.5 21.5t12 10t16 1t15 -9.5t8 -22.5q-20 -46 -48 -80t-58.5 -43.5t-63 13
t-61.5 90.5z" />
    <glyph glyph-name="ecaron" unicode="&#x11b;" horiz-adv-x="338" 
d="M152 11q-41 23 -67 64.5t-40 92.5t-19 107.5t-4.5 109.5t4.5 98.5t7 75.5q10 93 39.5 140.5t66.5 62t75.5 1t66 -43t38 -69.5t-8.5 -79q-51 -2 -103.5 -5.5t-103.5 -18.5q-5 -36 -10 -89t-4.5 -110t8 -111t26.5 -92.5t51.5 -54.5t82.5 3q23 19 36.5 18.5t16.5 -11.5
t-4.5 -29t-26.5 -33t-50.5 -24t-76.5 -3zM245 626q8 12 2.5 27t-19 26.5t-32 17t-36 -0.5t-31 -26t-16.5 -60zM61 948q14 27 24.5 34t19 2.5t15.5 -18.5l15.5 -30.5t18 -32t22.5 -23.5q25 43 37 69t20 35t16.5 1.5t27.5 -29.5q-4 -18 -16 -38.5t-26.5 -41l-30 -40.5
t-26.5 -38q-13 -5 -27 11.5t-28.5 41l-30 52t-31.5 45.5z" />
    <glyph glyph-name="ecircumflex" unicode="&#xea;" horiz-adv-x="338" 
d="M152 11q-41 23 -67 64.5t-40 92.5t-19 107.5t-4.5 109.5t4.5 98.5t7 75.5q10 93 39.5 140.5t66.5 62t75.5 1t66 -43t38 -69.5t-8.5 -79q-51 -2 -103.5 -5.5t-103.5 -18.5q-5 -36 -10 -89t-4.5 -110t8 -111t26.5 -92.5t51.5 -54.5t82.5 3q23 19 36.5 18.5t16.5 -11.5
t-4.5 -29t-26.5 -33t-50.5 -24t-76.5 -3zM245 626q8 12 2.5 27t-19 26.5t-32 17t-36 -0.5t-31 -26t-16.5 -60zM277 838q-14 -26 -24.5 -33.5t-19 -3t-15.5 18.5l-15.5 30.5t-18 32t-22.5 23.5q-25 -43 -37 -69t-20 -35t-16.5 -2t-27.5 30q4 18 16 38.5t26.5 41l30 40.5
t26.5 38q13 4 27 -12t28.5 -40.5l30 -52t31.5 -45.5z" />
    <glyph glyph-name="edieresis" unicode="&#xeb;" horiz-adv-x="338" 
d="M152 11q-41 23 -67 64.5t-40 92.5t-19 107.5t-4.5 109.5t4.5 98.5t7 75.5q10 93 39.5 140.5t66.5 62t75.5 1t66 -43t38 -69.5t-8.5 -79q-51 -2 -103.5 -5.5t-103.5 -18.5q-5 -36 -10 -89t-4.5 -110t8 -111t26.5 -92.5t51.5 -54.5t82.5 3q23 19 36.5 18.5t16.5 -11.5
t-4.5 -29t-26.5 -33t-50.5 -24t-76.5 -3zM245 626q8 12 2.5 27t-19 26.5t-32 17t-36 -0.5t-31 -26t-16.5 -60zM65 826q-11 16 -3 30.5t23.5 22t32 5.5t23.5 -19q5 -10 -1 -23t-18 -21.5t-27.5 -9t-29.5 14.5zM212 826q-11 16 -3 30.5t23.5 22t32 5.5t23.5 -19q5 -10 -1 -23
t-18 -21.5t-27.5 -9t-29.5 14.5z" />
    <glyph glyph-name="edotaccent" unicode="&#x117;" horiz-adv-x="338" 
d="M152 11q-41 23 -67 64.5t-40 92.5t-19 107.5t-4.5 109.5t4.5 98.5t7 75.5q10 93 39.5 140.5t66.5 62t75.5 1t66 -43t38 -69.5t-8.5 -79q-51 -2 -103.5 -5.5t-103.5 -18.5q-5 -36 -10 -89t-4.5 -110t8 -111t26.5 -92.5t51.5 -54.5t82.5 3q23 19 36.5 18.5t16.5 -11.5
t-4.5 -29t-26.5 -33t-50.5 -24t-76.5 -3zM245 626q8 12 2.5 27t-19 26.5t-32 17t-36 -0.5t-31 -26t-16.5 -60zM138 824q-11 16 -3 30.5t23.5 22t32 5.5t23.5 -19q5 -10 -1 -23t-18 -21.5t-27.5 -9t-29.5 14.5z" />
    <glyph glyph-name="egrave" unicode="&#xe8;" horiz-adv-x="338" 
d="M152 11q-41 23 -67 64.5t-40 92.5t-19 107.5t-4.5 109.5t4.5 98.5t7 75.5q10 93 39.5 140.5t66.5 62t75.5 1t66 -43t38 -69.5t-8.5 -79q-51 -2 -103.5 -5.5t-103.5 -18.5q-5 -36 -10 -89t-4.5 -110t8 -111t26.5 -92.5t51.5 -54.5t82.5 3q23 19 36.5 18.5t16.5 -11.5
t-4.5 -29t-26.5 -33t-50.5 -24t-76.5 -3zM245 626q8 12 2.5 27t-19 26.5t-32 17t-36 -0.5t-31 -26t-16.5 -60zM150 846q-8 10 -15 28t-7 33.5t9.5 23.5t33.5 0q23 -24 33 -52t7.5 -46t-18 -18.5t-43.5 31.5z" />
    <glyph glyph-name="emacron" unicode="&#x113;" horiz-adv-x="338" 
d="M152 11q-41 23 -67 64.5t-40 92.5t-19 107.5t-4.5 109.5t4.5 98.5t7 75.5q10 93 39.5 140.5t66.5 62t75.5 1t66 -43t38 -69.5t-8.5 -79q-51 -2 -103.5 -5.5t-103.5 -18.5q-5 -36 -10 -89t-4.5 -110t8 -111t26.5 -92.5t51.5 -54.5t82.5 3q23 19 36.5 18.5t16.5 -11.5
t-4.5 -29t-26.5 -33t-50.5 -24t-76.5 -3zM245 626q8 12 2.5 27t-19 26.5t-32 17t-36 -0.5t-31 -26t-16.5 -60zM44 805q-7 4 -10 13.5t-1.5 20t8 18.5t17.5 8h193q2 1 10.5 -8t12 -20.5t-5 -22t-39.5 -11.5q-7 0 -34.5 0.5t-58.5 0.5h-58t-34 1z" />
    <glyph glyph-name="eogonek" unicode="&#x119;" horiz-adv-x="338" 
d="M152 11q-41 23 -67 64.5t-40 92.5t-19 107.5t-4.5 109.5t4.5 98.5t7 75.5q10 93 39.5 140.5t66.5 62t75.5 1t66 -43t38 -69.5t-8.5 -79q-51 -2 -103.5 -5.5t-103.5 -18.5q-5 -36 -10 -89t-4.5 -110t8 -111t26.5 -92.5t51.5 -54.5t82.5 3q23 19 36.5 18.5t16.5 -11.5
t-4.5 -29t-26.5 -33t-50.5 -24t-76.5 -3zM245 626q8 12 2.5 27t-19 26.5t-32 17t-36 -0.5t-31 -26t-16.5 -60zM303 -72q-17 -4 -34 -2t-31 10t-23.5 22.5t-9.5 35.5q1 36 18.5 55t43.5 24l9 -41q-20 -2 -30 -14t-8.5 -25.5t16.5 -24t46 -10.5z" />
    <glyph glyph-name="gbreve" unicode="&#x11f;" horiz-adv-x="322" 
d="M41 92q-7 16 -3 28t13 18.5t19 6.5t16 -6q42 -50 71.5 -65t48.5 -3.5t28 46t11 83.5t-2 109.5t-11 124.5q-45 -21 -88.5 -13.5t-75.5 36.5t-47.5 76t-5.5 106q6 36 26.5 65t47.5 48.5t58 26.5t58.5 -0.5t47 -32.5t25.5 -70q9 -129 16 -242t6 -201t-13 -147.5t-41.5 -81.5
t-79 -2t-125.5 90zM106 497q43 -22 67 -12.5t35.5 35.5t12 61.5t-4.5 66.5t-12.5 49.5t-12.5 10.5q-41 10 -68.5 -9t-39 -53t-6.5 -75t29 -74zM45 917q17 32 31.5 38t19.5 -8q15 -40 30 -57t28 -18t24.5 9.5t20.5 25.5t15.5 29.5t10.5 21.5t12 10t16 1t15 -9.5t8 -22.5
q-20 -46 -48 -80t-58.5 -43.5t-63 13t-61.5 90.5z" />
    <glyph glyph-name="gcircumflex" unicode="&#x11d;" horiz-adv-x="322" 
d="M41 92q-7 16 -3 28t13 18.5t19 6.5t16 -6q42 -50 71.5 -65t48.5 -3.5t28 46t11 83.5t-2 109.5t-11 124.5q-45 -21 -88.5 -13.5t-75.5 36.5t-47.5 76t-5.5 106q6 36 26.5 65t47.5 48.5t58 26.5t58.5 -0.5t47 -32.5t25.5 -70q9 -129 16 -242t6 -201t-13 -147.5t-41.5 -81.5
t-79 -2t-125.5 90zM106 497q43 -22 67 -12.5t35.5 35.5t12 61.5t-4.5 66.5t-12.5 49.5t-12.5 10.5q-41 10 -68.5 -9t-39 -53t-6.5 -75t29 -74zM269 838q-14 -26 -24.5 -33.5t-19 -3t-15.5 18.5l-15.5 30.5t-18 32t-22.5 23.5q-25 -43 -37 -69t-20 -35t-16.5 -2t-27.5 30
q4 18 16 38.5t26.5 41l30 40.5t26.5 38q13 4 27 -12t28.5 -40.5l30 -52t31.5 -45.5z" />
    <glyph glyph-name="gcommaaccent" unicode="&#x123;" horiz-adv-x="322" 
d="M41 92q-7 16 -3 28t13 18.5t19 6.5t16 -6q42 -50 71.5 -65t48.5 -3.5t28 46t11 83.5t-2 109.5t-11 124.5q-45 -21 -88.5 -13.5t-75.5 36.5t-47.5 76t-5.5 106q6 36 26.5 65t47.5 48.5t58 26.5t58.5 -0.5t47 -32.5t25.5 -70q9 -129 16 -242t6 -201t-13 -147.5t-41.5 -81.5
t-79 -2t-125.5 90zM106 497q43 -22 67 -12.5t35.5 35.5t12 61.5t-4.5 66.5t-12.5 49.5t-12.5 10.5q-41 10 -68.5 -9t-39 -53t-6.5 -75t29 -74zM191 822q-2 -11 -9.5 -13.5t-15.5 0t-15 9.5t-8 16q-7 55 8 84.5t34.5 40t34 5t7.5 -20.5q-10 -20 -15 -33t-8.5 -26t-6 -27z" />
    <glyph glyph-name="gdotaccent" unicode="&#x121;" horiz-adv-x="322" 
d="M41 92q-7 16 -3 28t13 18.5t19 6.5t16 -6q42 -50 71.5 -65t48.5 -3.5t28 46t11 83.5t-2 109.5t-11 124.5q-45 -21 -88.5 -13.5t-75.5 36.5t-47.5 76t-5.5 106q6 36 26.5 65t47.5 48.5t58 26.5t58.5 -0.5t47 -32.5t25.5 -70q9 -129 16 -242t6 -201t-13 -147.5t-41.5 -81.5
t-79 -2t-125.5 90zM106 497q43 -22 67 -12.5t35.5 35.5t12 61.5t-4.5 66.5t-12.5 49.5t-12.5 10.5q-41 10 -68.5 -9t-39 -53t-6.5 -75t29 -74zM130 824q-11 16 -3 30.5t23.5 22t32 5.5t23.5 -19q5 -10 -1 -23t-18 -21.5t-27.5 -9t-29.5 14.5z" />
    <glyph glyph-name="hbar" unicode="&#x127;" horiz-adv-x="336" 
d="M12 767q-2 9 6.5 15t20.5 8t22.5 -1t12.5 -11l-4 -180q54 36 99.5 39.5t78.5 -18.5t51.5 -66t17.5 -102l5 -400q3 -26 -7 -38.5t-23.5 -15.5t-24.5 3.5t-9 18.5l-2 434q0 19 -8 39t-21.5 36.5t-30.5 26.5t-34.5 9.5t-33.5 -15t-27 -47.5q-8 -57 -10.5 -99.5t-1 -78
t4.5 -68t5 -68.5t2.5 -80t-4.5 -102q-2 -4 -11 -11t-20 -10.5t-20 1t-9 22.5zM-52 653q-7 4 -10 13.5t-1.5 20t8 18.5t17.5 8h193q2 1 10.5 -8t12 -20.5t-5 -22t-39.5 -11.5q-7 0 -34.5 0.5t-58.5 0.5h-58t-34 1z" />
    <glyph glyph-name="hcircumflex" unicode="&#x125;" horiz-adv-x="336" 
d="M12 767q-2 9 6.5 15t20.5 8t22.5 -1t12.5 -11l-4 -180q54 36 99.5 39.5t78.5 -18.5t51.5 -66t17.5 -102l5 -400q3 -26 -7 -38.5t-23.5 -15.5t-24.5 3.5t-9 18.5l-2 434q0 19 -8 39t-21.5 36.5t-30.5 26.5t-34.5 9.5t-33.5 -15t-27 -47.5q-8 -57 -10.5 -99.5t-1 -78
t4.5 -68t5 -68.5t2.5 -80t-4.5 -102q-2 -4 -11 -11t-20 -10.5t-20 1t-9 22.5zM303 854q-14 -26 -24.5 -33.5t-19 -3t-15.5 18.5l-15.5 30.5t-18 32t-22.5 23.5q-25 -43 -37 -69t-20 -35t-16.5 -2t-27.5 30q4 18 16 38.5t26.5 41l30 40.5t26.5 38q13 4 27 -12t28.5 -40.5
l30 -52t31.5 -45.5z" />
    <glyph glyph-name="iacute" unicode="&#xed;" horiz-adv-x="136" 
d="M36 663q0 19 10 26t21.5 5.5t21 -10t9.5 -18.5l-4 -644q-6 -12 -16 -18t-20 -5t-17.5 7.5t-8.5 19.5zM87 846q-28 -32 -43.5 -31.5t-18 18.5t7.5 46t33 52q24 8 33.5 0t9.5 -23.5t-7 -33.5t-15 -28z" />
    <glyph glyph-name="ibreve" unicode="&#x12d;" horiz-adv-x="136" 
d="M36 663q0 19 10 26t21.5 5.5t21 -10t9.5 -18.5l-4 -644q-6 -12 -16 -18t-20 -5t-17.5 7.5t-8.5 19.5zM-46 917q17 32 31.5 38t19.5 -8q15 -40 30 -57t28 -18t24.5 9.5t20.5 25.5t15.5 29.5t10.5 21.5t12 10t16 1t15 -9.5t8 -22.5q-20 -46 -48 -80t-58.5 -43.5t-63 13
t-61.5 90.5z" />
    <glyph glyph-name="icircumflex" unicode="&#xee;" horiz-adv-x="136" 
d="M36 663q0 19 10 26t21.5 5.5t21 -10t9.5 -18.5l-4 -644q-6 -12 -16 -18t-20 -5t-17.5 7.5t-8.5 19.5zM177 838q-14 -26 -24.5 -33.5t-19 -3t-15.5 18.5l-15.5 30.5t-18 32t-22.5 23.5q-25 -43 -37 -69t-20 -35t-16.5 -2t-27.5 30q4 18 16 38.5t26.5 41l30 40.5t26.5 38
q13 4 27 -12t28.5 -40.5l30 -52t31.5 -45.5z" />
    <glyph glyph-name="idieresis" unicode="&#xef;" horiz-adv-x="136" 
d="M36 663q0 19 10 26t21.5 5.5t21 -10t9.5 -18.5l-4 -644q-6 -12 -16 -18t-20 -5t-17.5 7.5t-8.5 19.5zM-35 826q-11 16 -3 30.5t23.5 22t32 5.5t23.5 -19q5 -10 -1 -23t-18 -21.5t-27.5 -9t-29.5 14.5zM112 826q-11 16 -3 30.5t23.5 22t32 5.5t23.5 -19q5 -10 -1 -23
t-18 -21.5t-27.5 -9t-29.5 14.5z" />
    <glyph glyph-name="igrave" unicode="&#xec;" horiz-adv-x="136" 
d="M36 663q0 19 10 26t21.5 5.5t21 -10t9.5 -18.5l-4 -644q-6 -12 -16 -18t-20 -5t-17.5 7.5t-8.5 19.5zM49 846q-8 10 -15 28t-7 33.5t9.5 23.5t33.5 0q23 -24 33 -52t7.5 -46t-18 -18.5t-43.5 31.5z" />
    <glyph glyph-name="imacron" unicode="&#x12b;" horiz-adv-x="136" 
d="M36 663q0 19 10 26t21.5 5.5t21 -10t9.5 -18.5l-4 -644q-6 -12 -16 -18t-20 -5t-17.5 7.5t-8.5 19.5zM-56 805q-7 4 -10 13.5t-1.5 20t8 18.5t17.5 8h193q2 1 10.5 -8t12 -20.5t-5 -22t-39.5 -11.5q-7 0 -34.5 0.5t-58.5 0.5h-58t-34 1z" />
    <glyph glyph-name="iogonek" unicode="&#x12f;" horiz-adv-x="136" 
d="M36 663q0 19 10 26t21.5 5.5t21 -10t9.5 -18.5l-4 -644q-6 -12 -16 -18t-20 -5t-17.5 7.5t-8.5 19.5zM30 751q-13 12 -11 32t14 35t31.5 17t41.5 -22q10 -7 10 -24.5t-9.5 -31.5t-29 -19t-47.5 13zM83 -90q-17 -4 -34 -2t-31 10t-23.5 22.5t-9.5 35.5q1 36 18.5 55
t43.5 24l9 -41q-20 -2 -30 -14t-8.5 -25.5t16.5 -24t46 -10.5z" />
    <glyph glyph-name="itilde" unicode="&#x129;" horiz-adv-x="136" 
d="M36 663q0 19 10 26t21.5 5.5t21 -10t9.5 -18.5l-4 -644q-6 -12 -16 -18t-20 -5t-17.5 7.5t-8.5 19.5zM-94 880q9 11 18.5 29t22 33.5t29 25t39 4t53 -30.5t70.5 -77q24 -17 39 -16t24.5 13t14.5 29.5t8.5 34.5t5.5 28t7 9q31 -8 39 -30.5t0 -48.5t-29.5 -50.5t-49.5 -36
t-59.5 -4.5t-59.5 44l-28 40.5t-26 24t-26.5 -5.5t-28.5 -48q-9 -18 -21 -20.5t-22.5 4.5t-16.5 21t-3 28z" />
    <glyph glyph-name="dotlessj" unicode="&#x237;" horiz-adv-x="218" 
d="M4 -160q-12 11 -15 26.5t0.5 28t13 18t23.5 -1.5q27 -27 45.5 -23.5t30 29.5t18 71.5t8.5 102.5t1 122t-4 131l-6 129t-5 115.5t-2 90.5t3 55q5 15 14.5 18t18.5 -1t16 -13t8 -17q19 -285 22 -473t-15 -291.5t-60.5 -129.5t-114.5 13z" />
    <glyph glyph-name="jcircumflex" unicode="&#x135;" horiz-adv-x="218" 
d="M4 -160q-12 11 -15 26.5t0.5 28t13 18t23.5 -1.5q27 -27 45.5 -23.5t30 29.5t18 71.5t8.5 102.5t1 122t-4 131l-6 129t-5 115.5t-2 90.5t3 55q5 15 14.5 18t18.5 -1t16 -13t8 -17q19 -285 22 -473t-15 -291.5t-60.5 -129.5t-114.5 13zM218 838q-14 -26 -24.5 -33.5
t-19 -3t-15.5 18.5l-15.5 30.5t-18 32t-22.5 23.5q-25 -43 -37 -69t-20 -35t-16.5 -2t-27.5 30q4 18 16 38.5t26.5 41l30 40.5t26.5 38q13 4 27 -12t28.5 -40.5l30 -52t31.5 -45.5z" />
    <glyph glyph-name="kcommaaccent" unicode="&#x137;" horiz-adv-x="330" 
d="M19 758q-4 22 6 29.5t23.5 5t24.5 -12t10 -21.5q1 -11 1.5 -35t1 -51t0.5 -51v-35l111 80q10 7 19 0t14 -19.5t4.5 -26.5t-9.5 -21l-92 -76l171 -462q12 -17 7.5 -29.5t-15 -19t-24 -7t-19.5 5.5l-169 463q-1 -131 -0.5 -216.5t0.5 -137.5v-77t-2 -34t-7 -8.5t-13 -0.5
q-4 0 -10 -0.5t-11.5 -0.5t-9.5 0.5t-4 1.5l-8 756v0zM135 -228q-11 11 -10 27.5t3.5 35t1.5 37.5t-16 35q3 29 20 33t33.5 -13t24 -54t-8.5 -89q-3 -14 -8.5 -19t-12 -5t-13.5 4z" />
    <glyph glyph-name="lacute" unicode="&#x13a;" horiz-adv-x="131" 
d="M39 757q0 13 9 19.5t20.5 6.5t21 -6.5t9.5 -19.5l2 -735q0 -8 -10 -15t-21.5 -10t-21.5 -0.5t-10 13.5zM84 846q-28 -32 -43.5 -31.5t-18 18.5t7.5 46t33 52q24 8 33.5 0t9.5 -23.5t-7 -33.5t-15 -28z" />
    <glyph glyph-name="lcaron" unicode="&#x13e;" horiz-adv-x="216" 
d="M34 773q0 13 9 19.5t20.5 6.5t21 -6.5t9.5 -19.5l2 -735q0 -8 -10 -15t-21.5 -10t-21.5 -0.5t-10 13.5zM159 630l-6.5 35t-6 27t-8.5 26t-15 33q-5 10 0.5 16t16.5 6t24.5 -6.5t24.5 -22t17 -40.5t1 -62q-1 -9 -8 -16t-15 -9.5t-15.5 0t-9.5 13.5z" />
    <glyph glyph-name="lcommaaccent" unicode="&#x13c;" horiz-adv-x="131" 
d="M39 757q0 13 9 19.5t20.5 6.5t21 -6.5t9.5 -19.5l2 -735q0 -8 -10 -15t-21.5 -10t-21.5 -0.5t-10 13.5zM59 -225q-11 11 -10 27.5t3.5 35t1.5 37.5t-16 35q3 29 20 33t33.5 -13t24 -54t-8.5 -89q-3 -14 -8.5 -19t-12 -5t-13.5 4z" />
    <glyph glyph-name="ldot" unicode="&#x140;" horiz-adv-x="216" 
d="M39 757q0 13 9 19.5t20.5 6.5t21 -6.5t9.5 -19.5l2 -735q0 -8 -10 -15t-21.5 -10t-21.5 -0.5t-10 13.5zM120 381q-11 16 -3 30.5t23.5 22t32 5.5t23.5 -19q5 -10 -1 -23t-18 -21.5t-27.5 -9t-29.5 14.5z" />
    <glyph glyph-name="lslash" unicode="&#x142;" horiz-adv-x="131" 
d="M38 297l-29.5 -13.5t-17.5 -6.5q-8 1 -11.5 10t-3 19.5t6 21t16.5 14.5l39 18l1 397q0 13 9 19.5t20.5 6.5t21 -6.5t9.5 -19.5l1 -368l61 28q1 2 10.5 -4t14 -16.5t-2.5 -23.5t-38 -26l-17 -7t-28 -13l1 -305q0 -8 -10 -15t-21.5 -10t-21.5 -0.5t-10 13.5v287z" />
    <glyph glyph-name="nacute" unicode="&#x144;" horiz-adv-x="385" 
d="M352 30q-3 -15 -12.5 -22.5t-20 -8.5t-19.5 4t-10 15l5 558q3 60 -10.5 95t-36 47.5t-49 4t-49.5 -36t-38.5 -73.5t-15.5 -107v-479q-4 -13 -15.5 -16t-23.5 -0.5t-20 8.5t-5 11l-19 718q-3 19 9 30.5t26.5 9.5t23 -20t-2.5 -57q15 26 41.5 45t57 27.5t63 7t60 -16
t47.5 -43t27 -71.5l-13 -630v0zM211 846q-28 -32 -43.5 -31.5t-18 18.5t7.5 46t33 52q24 8 33.5 0t9.5 -23.5t-7 -33.5t-15 -28z" />
    <glyph glyph-name="napostrophe" unicode="&#x149;" horiz-adv-x="385" 
d="M352 30q-3 -15 -12.5 -22.5t-20 -8.5t-19.5 4t-10 15l5 558q3 60 -10.5 95t-36 47.5t-49 4t-49.5 -36t-38.5 -73.5t-15.5 -107v-479q-4 -13 -15.5 -16t-23.5 -0.5t-20 8.5t-5 11l-19 718q-3 19 9 30.5t26.5 9.5t23 -20t-2.5 -57q15 26 41.5 45t57 27.5t63 7t60 -16
t47.5 -43t27 -71.5l-13 -630v0zM172 -236q-11 11 -10 27.5t3.5 35t1.5 37.5t-16 35q3 29 20 33t33.5 -13t24 -54t-8.5 -89q-3 -14 -8.5 -19t-12 -5t-13.5 4z" />
    <glyph glyph-name="ncaron" unicode="&#x148;" horiz-adv-x="385" 
d="M352 30q-3 -15 -12.5 -22.5t-20 -8.5t-19.5 4t-10 15l5 558q3 60 -10.5 95t-36 47.5t-49 4t-49.5 -36t-38.5 -73.5t-15.5 -107v-479q-4 -13 -15.5 -16t-23.5 -0.5t-20 8.5t-5 11l-19 718q-3 19 9 30.5t26.5 9.5t23 -20t-2.5 -57q15 26 41.5 45t57 27.5t63 7t60 -16
t47.5 -43t27 -71.5l-13 -630v0zM87 970q14 27 24.5 34t19 2.5t15.5 -18.5l15.5 -30.5t18 -32t22.5 -23.5q25 43 37 69t20 35t16.5 1.5t27.5 -29.5q-4 -18 -16 -38.5t-26.5 -41l-30 -40.5t-26.5 -38q-13 -5 -27 11.5t-28.5 41l-30 52t-31.5 45.5z" />
    <glyph glyph-name="ncommaaccent" unicode="&#x146;" horiz-adv-x="385" 
d="M352 30q-3 -15 -12.5 -22.5t-20 -8.5t-19.5 4t-10 15l5 558q3 60 -10.5 95t-36 47.5t-49 4t-49.5 -36t-38.5 -73.5t-15.5 -107v-479q-4 -13 -15.5 -16t-23.5 -0.5t-20 8.5t-5 11l-19 718q-3 19 9 30.5t26.5 9.5t23 -20t-2.5 -57q15 26 41.5 45t57 27.5t63 7t60 -16
t47.5 -43t27 -71.5l-13 -630v0zM161 -228q-11 11 -10 27.5t3.5 35t1.5 37.5t-16 35q3 29 20 33t33.5 -13t24 -54t-8.5 -89q-3 -14 -8.5 -19t-12 -5t-13.5 4z" />
    <glyph glyph-name="ntilde" unicode="&#xf1;" horiz-adv-x="385" 
d="M352 30q-3 -15 -12.5 -22.5t-20 -8.5t-19.5 4t-10 15l5 558q3 60 -10.5 95t-36 47.5t-49 4t-49.5 -36t-38.5 -73.5t-15.5 -107v-479q-4 -13 -15.5 -16t-23.5 -0.5t-20 8.5t-5 11l-19 718q-3 19 9 30.5t26.5 9.5t23 -20t-2.5 -57q15 26 41.5 45t57 27.5t63 7t60 -16
t47.5 -43t27 -71.5l-13 -630v0zM16 908q9 11 18.5 29t22 33.5t29 25t39 4t53 -30.5t70.5 -77q24 -17 39 -16t24.5 13t14.5 29.5t8.5 34.5t5.5 28t7 9q31 -8 39 -30.5t0 -48.5t-29.5 -50.5t-49.5 -36t-59.5 -4.5t-59.5 44l-28 40.5t-26 24t-26.5 -5.5t-28.5 -48
q-9 -18 -21 -20.5t-22.5 4.5t-16.5 21t-3 28z" />
    <glyph glyph-name="oacute" unicode="&#xf3;" horiz-adv-x="367" 
d="M114 24q-26 21 -45 60t-32 89.5t-19.5 109t-7 119.5t4.5 120.5t16 112.5q6 21 21 45t36 44.5t46 34.5t51 16t50.5 -11t45.5 -46q27 -51 43 -113.5t22 -129.5t2.5 -134t-15.5 -126.5t-32 -106.5t-48 -75t-63 -32t-76 23zM85 579q-12 -124 -9 -214t16 -150.5t33 -94
t40.5 -45t39.5 -3t30 31.5q8 8 16.5 38.5t14.5 75.5t9.5 100.5t2.5 113.5t-7.5 113t-19.5 99q-13 39 -37 52t-49.5 3.5t-47.5 -40.5t-32 -80zM202 846q-28 -32 -43.5 -31.5t-18 18.5t7.5 46t33 52q24 8 33.5 0t9.5 -23.5t-7 -33.5t-15 -28z" />
    <glyph glyph-name="obreve" unicode="&#x14f;" horiz-adv-x="367" 
d="M114 24q-26 21 -45 60t-32 89.5t-19.5 109t-7 119.5t4.5 120.5t16 112.5q6 21 21 45t36 44.5t46 34.5t51 16t50.5 -11t45.5 -46q27 -51 43 -113.5t22 -129.5t2.5 -134t-15.5 -126.5t-32 -106.5t-48 -75t-63 -32t-76 23zM85 579q-12 -124 -9 -214t16 -150.5t33 -94
t40.5 -45t39.5 -3t30 31.5q8 8 16.5 38.5t14.5 75.5t9.5 100.5t2.5 113.5t-7.5 113t-19.5 99q-13 39 -37 52t-49.5 3.5t-47.5 -40.5t-32 -80zM68 917q17 32 31.5 38t19.5 -8q15 -40 30 -57t28 -18t24.5 9.5t20.5 25.5t15.5 29.5t10.5 21.5t12 10t16 1t15 -9.5t8 -22.5
q-20 -46 -48 -80t-58.5 -43.5t-63 13t-61.5 90.5z" />
    <glyph glyph-name="ocircumflex" unicode="&#xf4;" horiz-adv-x="367" 
d="M114 24q-26 21 -45 60t-32 89.5t-19.5 109t-7 119.5t4.5 120.5t16 112.5q6 21 21 45t36 44.5t46 34.5t51 16t50.5 -11t45.5 -46q27 -51 43 -113.5t22 -129.5t2.5 -134t-15.5 -126.5t-32 -106.5t-48 -75t-63 -32t-76 23zM85 579q-12 -124 -9 -214t16 -150.5t33 -94
t40.5 -45t39.5 -3t30 31.5q8 8 16.5 38.5t14.5 75.5t9.5 100.5t2.5 113.5t-7.5 113t-19.5 99q-13 39 -37 52t-49.5 3.5t-47.5 -40.5t-32 -80zM291 838q-14 -26 -24.5 -33.5t-19 -3t-15.5 18.5l-15.5 30.5t-18 32t-22.5 23.5q-25 -43 -37 -69t-20 -35t-16.5 -2t-27.5 30
q4 18 16 38.5t26.5 41l30 40.5t26.5 38q13 4 27 -12t28.5 -40.5l30 -52t31.5 -45.5z" />
    <glyph glyph-name="odieresis" unicode="&#xf6;" horiz-adv-x="367" 
d="M114 24q-26 21 -45 60t-32 89.5t-19.5 109t-7 119.5t4.5 120.5t16 112.5q6 21 21 45t36 44.5t46 34.5t51 16t50.5 -11t45.5 -46q27 -51 43 -113.5t22 -129.5t2.5 -134t-15.5 -126.5t-32 -106.5t-48 -75t-63 -32t-76 23zM85 579q-12 -124 -9 -214t16 -150.5t33 -94
t40.5 -45t39.5 -3t30 31.5q8 8 16.5 38.5t14.5 75.5t9.5 100.5t2.5 113.5t-7.5 113t-19.5 99q-13 39 -37 52t-49.5 3.5t-47.5 -40.5t-32 -80zM79 826q-11 16 -3 30.5t23.5 22t32 5.5t23.5 -19q5 -10 -1 -23t-18 -21.5t-27.5 -9t-29.5 14.5zM226 826q-11 16 -3 30.5t23.5 22
t32 5.5t23.5 -19q5 -10 -1 -23t-18 -21.5t-27.5 -9t-29.5 14.5z" />
    <glyph glyph-name="ograve" unicode="&#xf2;" horiz-adv-x="367" 
d="M114 24q-26 21 -45 60t-32 89.5t-19.5 109t-7 119.5t4.5 120.5t16 112.5q6 21 21 45t36 44.5t46 34.5t51 16t50.5 -11t45.5 -46q27 -51 43 -113.5t22 -129.5t2.5 -134t-15.5 -126.5t-32 -106.5t-48 -75t-63 -32t-76 23zM85 579q-12 -124 -9 -214t16 -150.5t33 -94
t40.5 -45t39.5 -3t30 31.5q8 8 16.5 38.5t14.5 75.5t9.5 100.5t2.5 113.5t-7.5 113t-19.5 99q-13 39 -37 52t-49.5 3.5t-47.5 -40.5t-32 -80zM164 846q-8 10 -15 28t-7 33.5t9.5 23.5t33.5 0q23 -24 33 -52t7.5 -46t-18 -18.5t-43.5 31.5z" />
    <glyph glyph-name="ohungarumlaut" unicode="&#x151;" horiz-adv-x="367" 
d="M114 24q-26 21 -45 60t-32 89.5t-19.5 109t-7 119.5t4.5 120.5t16 112.5q6 21 21 45t36 44.5t46 34.5t51 16t50.5 -11t45.5 -46q27 -51 43 -113.5t22 -129.5t2.5 -134t-15.5 -126.5t-32 -106.5t-48 -75t-63 -32t-76 23zM85 579q-12 -124 -9 -214t16 -150.5t33 -94
t40.5 -45t39.5 -3t30 31.5q8 8 16.5 38.5t14.5 75.5t9.5 100.5t2.5 113.5t-7.5 113t-19.5 99q-13 39 -37 52t-49.5 3.5t-47.5 -40.5t-32 -80zM148 846q-28 -32 -43.5 -31.5t-18 18.5t7.5 46t33 52q24 8 33.5 0t9.5 -23.5t-7 -33.5t-15 -28zM257 846q-28 -32 -43.5 -31.5
t-18 18.5t7.5 46t33 52q24 8 33.5 0t9.5 -23.5t-7 -33.5t-15 -28z" />
    <glyph glyph-name="omacron" unicode="&#x14d;" horiz-adv-x="367" 
d="M114 24q-26 21 -45 60t-32 89.5t-19.5 109t-7 119.5t4.5 120.5t16 112.5q6 21 21 45t36 44.5t46 34.5t51 16t50.5 -11t45.5 -46q27 -51 43 -113.5t22 -129.5t2.5 -134t-15.5 -126.5t-32 -106.5t-48 -75t-63 -32t-76 23zM85 579q-12 -124 -9 -214t16 -150.5t33 -94
t40.5 -45t39.5 -3t30 31.5q8 8 16.5 38.5t14.5 75.5t9.5 100.5t2.5 113.5t-7.5 113t-19.5 99q-13 39 -37 52t-49.5 3.5t-47.5 -40.5t-32 -80zM58 805q-7 4 -10 13.5t-1.5 20t8 18.5t17.5 8h193q2 1 10.5 -8t12 -20.5t-5 -22t-39.5 -11.5q-7 0 -34.5 0.5t-58.5 0.5h-58t-34 1
z" />
    <glyph glyph-name="oslash" unicode="&#xf8;" horiz-adv-x="367" 
d="M114 24q-26 21 -45 60t-32 89.5t-19.5 109t-7 119.5t4.5 120.5t16 112.5q6 21 21 45t36 44.5t46 34.5t51 16t50.5 -11t45.5 -46q27 -51 43 -113.5t22 -129.5t2.5 -134t-15.5 -126.5t-32 -106.5t-48 -75t-63 -32t-76 23zM85 579q-12 -124 -9 -214t16 -150.5t33 -94
t40.5 -45t39.5 -3t30 31.5q8 8 16.5 38.5t14.5 75.5t9.5 100.5t2.5 113.5t-7.5 113t-19.5 99q-13 39 -37 52t-49.5 3.5t-47.5 -40.5t-32 -80zM60 24q0 1 0.5 6t5.5 27.5t16.5 67.5l32 126l52.5 204l79 301q1 6 11 10t20.5 5t18.5 -2.5t6 -12.5l-182 -732q-3 -15 -12 -21
t-18.5 -5.5t-18 7.5t-11.5 19z" />
    <glyph glyph-name="oe" unicode="&#x153;" horiz-adv-x="590" 
d="M114 24q-26 21 -45 60t-32 89.5t-19.5 109t-7 119.5t4.5 120.5t16 112.5q6 21 21 45t36 44.5t46 34.5t51 16t50.5 -11t45.5 -46q27 -51 43 -113.5t22 -129.5t2.5 -134t-15.5 -126.5t-32 -106.5t-48 -75t-63 -32t-76 23zM85 579q-12 -124 -9 -214t16 -150.5t33 -94
t40.5 -45t39.5 -3t30 31.5q8 8 16.5 38.5t14.5 75.5t9.5 100.5t2.5 113.5t-7.5 113t-19.5 99q-13 39 -37 52t-49.5 3.5t-47.5 -40.5t-32 -80zM415 11q-41 23 -67 64.5t-40 92.5t-19 107.5t-4.5 109.5t4.5 98.5t7 75.5q10 93 39.5 140.5t66.5 62t75.5 1t66 -43t38 -69.5
t-8.5 -79q-51 -2 -103.5 -5.5t-103.5 -18.5q-5 -36 -10 -89t-4.5 -110t8 -111t26.5 -92.5t51.5 -54.5t82.5 3q23 19 36.5 18.5t16.5 -11.5t-4.5 -29t-26.5 -33t-50.5 -24t-76.5 -3zM508 626q8 12 2.5 27t-19 26.5t-32 17t-36 -0.5t-31 -26t-16.5 -60z" />
    <glyph glyph-name="oslashacute" unicode="&#x1ff;" horiz-adv-x="367" 
d="M114 24q-26 21 -45 60t-32 89.5t-19.5 109t-7 119.5t4.5 120.5t16 112.5q6 21 21 45t36 44.5t46 34.5t51 16t50.5 -11t45.5 -46q27 -51 43 -113.5t22 -129.5t2.5 -134t-15.5 -126.5t-32 -106.5t-48 -75t-63 -32t-76 23zM85 579q-12 -124 -9 -214t16 -150.5t33 -94
t40.5 -45t39.5 -3t30 31.5q8 8 16.5 38.5t14.5 75.5t9.5 100.5t2.5 113.5t-7.5 113t-19.5 99q-13 39 -37 52t-49.5 3.5t-47.5 -40.5t-32 -80zM60 24q0 1 0.5 6t5.5 27.5t16.5 67.5l32 126l52.5 204l79 301q1 6 11 10t20.5 5t18.5 -2.5t6 -12.5l-182 -732q-3 -15 -12 -21
t-18.5 -5.5t-18 7.5t-11.5 19zM202 846q-28 -32 -43.5 -31.5t-18 18.5t7.5 46t33 52q24 8 33.5 0t9.5 -23.5t-7 -33.5t-15 -28z" />
    <glyph glyph-name="otilde" unicode="&#xf5;" horiz-adv-x="367" 
d="M114 24q-26 21 -45 60t-32 89.5t-19.5 109t-7 119.5t4.5 120.5t16 112.5q6 21 21 45t36 44.5t46 34.5t51 16t50.5 -11t45.5 -46q27 -51 43 -113.5t22 -129.5t2.5 -134t-15.5 -126.5t-32 -106.5t-48 -75t-63 -32t-76 23zM85 579q-12 -124 -9 -214t16 -150.5t33 -94
t40.5 -45t39.5 -3t30 31.5q8 8 16.5 38.5t14.5 75.5t9.5 100.5t2.5 113.5t-7.5 113t-19.5 99q-13 39 -37 52t-49.5 3.5t-47.5 -40.5t-32 -80zM18 876q9 11 18.5 29t22 33.5t29 25t39 4t53 -30.5t70.5 -77q24 -17 39 -16t24.5 13t14.5 29.5t8.5 34.5t5.5 28t7 9
q31 -8 39 -30.5t0 -48.5t-29.5 -50.5t-49.5 -36t-59.5 -4.5t-59.5 44l-28 40.5t-26 24t-26.5 -5.5t-28.5 -48q-9 -18 -21 -20.5t-22.5 4.5t-16.5 21t-3 28z" />
    <glyph glyph-name="racute" unicode="&#x155;" horiz-adv-x="347" 
d="M46 8q-2 31 -2 82.5t0.5 115.5t0.5 137t-2.5 148t-8.5 147.5t-17 135.5q1 3 8 9t15 10t15.5 3.5t9.5 -10.5l24 -108q15 15 35.5 37.5t48.5 40.5t65.5 25.5t86.5 -7.5q3 0 9.5 -7t10.5 -16.5t1.5 -19.5t-16.5 -17q-20 1 -42 3.5t-45.5 -2.5t-47 -21t-45.5 -52
q-23 -38 -33 -88.5t-12.5 -107t0.5 -115l6 -112.5t4 -99.5t-4.5 -75t-20.5 -40.5t-44 4zM192 846q-28 -32 -43.5 -31.5t-18 18.5t7.5 46t33 52q24 8 33.5 0t9.5 -23.5t-7 -33.5t-15 -28z" />
    <glyph glyph-name="rcaron" unicode="&#x159;" horiz-adv-x="347" 
d="M46 8q-2 31 -2 82.5t0.5 115.5t0.5 137t-2.5 148t-8.5 147.5t-17 135.5q1 3 8 9t15 10t15.5 3.5t9.5 -10.5l24 -108q15 15 35.5 37.5t48.5 40.5t65.5 25.5t86.5 -7.5q3 0 9.5 -7t10.5 -16.5t1.5 -19.5t-16.5 -17q-20 1 -42 3.5t-45.5 -2.5t-47 -21t-45.5 -52
q-23 -38 -33 -88.5t-12.5 -107t0.5 -115l6 -112.5t4 -99.5t-4.5 -75t-20.5 -40.5t-44 4zM65 948q14 27 24.5 34t19 2.5t15.5 -18.5l15.5 -30.5t18 -32t22.5 -23.5q25 43 37 69t20 35t16.5 1.5t27.5 -29.5q-4 -18 -16 -38.5t-26.5 -41l-30 -40.5t-26.5 -38q-13 -5 -27 11.5
t-28.5 41l-30 52t-31.5 45.5z" />
    <glyph glyph-name="rcommaaccent" unicode="&#x157;" horiz-adv-x="347" 
d="M46 8q-2 31 -2 82.5t0.5 115.5t0.5 137t-2.5 148t-8.5 147.5t-17 135.5q1 3 8 9t15 10t15.5 3.5t9.5 -10.5l24 -108q15 15 35.5 37.5t48.5 40.5t65.5 25.5t86.5 -7.5q3 0 9.5 -7t10.5 -16.5t1.5 -19.5t-16.5 -17q-20 1 -42 3.5t-45.5 -2.5t-47 -21t-45.5 -52
q-23 -38 -33 -88.5t-12.5 -107t0.5 -115l6 -112.5t4 -99.5t-4.5 -75t-20.5 -40.5t-44 4zM142 -228q-11 11 -10 27.5t3.5 35t1.5 37.5t-16 35q3 29 20 33t33.5 -13t24 -54t-8.5 -89q-3 -14 -8.5 -19t-12 -5t-13.5 4z" />
    <glyph glyph-name="sacute" unicode="&#x15b;" horiz-adv-x="292" 
d="M157 -4q-25 -2 -47 6.5t-39 20t-27.5 22.5t-12.5 14q-7 15 -2.5 26t14.5 17t22.5 5t22.5 -10q18 -19 36 -28t34 -6t28.5 18.5t17.5 46.5q-1 16 -3 34.5t-8 43.5t-17 59.5t-30 81t-48 107.5l-70 141q-13 29 -12 57.5t13 52t34 41.5t49.5 25.5t60 3t66.5 -24.5
q10 -10 10 -21.5t-7 -20.5t-17 -14t-19 -1q-17 7 -41.5 12.5t-45 1t-31.5 -22.5t-1 -59q6 -26 23.5 -63.5l39.5 -82l46 -93.5t42 -98t27.5 -95t2.5 -85t-33 -68t-78 -44zM165 846q-28 -32 -43.5 -31.5t-18 18.5t7.5 46t33 52q24 8 33.5 0t9.5 -23.5t-7 -33.5t-15 -28z" />
    <glyph glyph-name="scaron" unicode="&#x161;" horiz-adv-x="292" 
d="M157 -4q-25 -2 -47 6.5t-39 20t-27.5 22.5t-12.5 14q-7 15 -2.5 26t14.5 17t22.5 5t22.5 -10q18 -19 36 -28t34 -6t28.5 18.5t17.5 46.5q-1 16 -3 34.5t-8 43.5t-17 59.5t-30 81t-48 107.5l-70 141q-13 29 -12 57.5t13 52t34 41.5t49.5 25.5t60 3t66.5 -24.5
q10 -10 10 -21.5t-7 -20.5t-17 -14t-19 -1q-17 7 -41.5 12.5t-45 1t-31.5 -22.5t-1 -59q6 -26 23.5 -63.5l39.5 -82l46 -93.5t42 -98t27.5 -95t2.5 -85t-33 -68t-78 -44zM39 948q14 27 24.5 34t19 2.5t15.5 -18.5l15.5 -30.5t18 -32t22.5 -23.5q25 43 37 69t20 35t16.5 1.5
t27.5 -29.5q-4 -18 -16 -38.5t-26.5 -41l-30 -40.5t-26.5 -38q-13 -5 -27 11.5t-28.5 41l-30 52t-31.5 45.5z" />
    <glyph glyph-name="scedilla" unicode="&#x15f;" horiz-adv-x="292" 
d="M157 -4q-25 -2 -47 6.5t-39 20t-27.5 22.5t-12.5 14q-7 15 -2.5 26t14.5 17t22.5 5t22.5 -10q18 -19 36 -28t34 -6t28.5 18.5t17.5 46.5q-1 16 -3 34.5t-8 43.5t-17 59.5t-30 81t-48 107.5l-70 141q-13 29 -12 57.5t13 52t34 41.5t49.5 25.5t60 3t66.5 -24.5
q10 -10 10 -21.5t-7 -20.5t-17 -14t-19 -1q-17 7 -41.5 12.5t-45 1t-31.5 -22.5t-1 -59q6 -26 23.5 -63.5l39.5 -82l46 -93.5t42 -98t27.5 -95t2.5 -85t-33 -68t-78 -44zM209 -232q-22 -1 -41 2.5t-34 8.5t-24.5 9.5l-11.5 5.5q-6 6 -4.5 15.5t7.5 17t15 11.5t18 0
q15 -8 32 -13.5t32 -7t26.5 3t16.5 17.5q0 24 -11.5 40t-29 23.5t-38.5 7.5t-42 -6l-11 120q1 19 10 24.5t18.5 3.5t17 -8t6.5 -9v-68q22 2 46 -10.5t43 -32.5t30.5 -44t9.5 -46.5t-21 -40.5t-60 -24z" />
    <glyph glyph-name="scircumflex" unicode="&#x15d;" horiz-adv-x="292" 
d="M157 -4q-25 -2 -47 6.5t-39 20t-27.5 22.5t-12.5 14q-7 15 -2.5 26t14.5 17t22.5 5t22.5 -10q18 -19 36 -28t34 -6t28.5 18.5t17.5 46.5q-1 16 -3 34.5t-8 43.5t-17 59.5t-30 81t-48 107.5l-70 141q-13 29 -12 57.5t13 52t34 41.5t49.5 25.5t60 3t66.5 -24.5
q10 -10 10 -21.5t-7 -20.5t-17 -14t-19 -1q-17 7 -41.5 12.5t-45 1t-31.5 -22.5t-1 -59q6 -26 23.5 -63.5l39.5 -82l46 -93.5t42 -98t27.5 -95t2.5 -85t-33 -68t-78 -44zM255 838q-14 -26 -24.5 -33.5t-19 -3t-15.5 18.5l-15.5 30.5t-18 32t-22.5 23.5q-25 -43 -37 -69
t-20 -35t-16.5 -2t-27.5 30q4 18 16 38.5t26.5 41l30 40.5t26.5 38q13 4 27 -12t28.5 -40.5l30 -52t31.5 -45.5z" />
    <glyph glyph-name="scommaaccent" unicode="&#x219;" horiz-adv-x="292" 
d="M157 -4q-25 -2 -47 6.5t-39 20t-27.5 22.5t-12.5 14q-7 15 -2.5 26t14.5 17t22.5 5t22.5 -10q18 -19 36 -28t34 -6t28.5 18.5t17.5 46.5q-1 16 -3 34.5t-8 43.5t-17 59.5t-30 81t-48 107.5l-70 141q-13 29 -12 57.5t13 52t34 41.5t49.5 25.5t60 3t66.5 -24.5
q10 -10 10 -21.5t-7 -20.5t-17 -14t-19 -1q-17 7 -41.5 12.5t-45 1t-31.5 -22.5t-1 -59q6 -26 23.5 -63.5l39.5 -82l46 -93.5t42 -98t27.5 -95t2.5 -85t-33 -68t-78 -44zM116 -228q-11 11 -10 27.5t3.5 35t1.5 37.5t-16 35q3 29 20 33t33.5 -13t24 -54t-8.5 -89
q-3 -14 -8.5 -19t-12 -5t-13.5 4z" />
    <glyph glyph-name="tbar" unicode="&#x167;" horiz-adv-x="279" 
d="M256 -30q4 5 9 -9t7 -31.5t-1.5 -32t-17.5 -9.5q-31 10 -57.5 21.5t-47.5 38.5t-36 74.5t-24 129.5t-11 204.5t4 298.5h-102q-15 3 -16.5 20t8.5 46h110l3 125q4 20 21 20t43 -8l-2 -134l123 3q7 0 10.5 -9.5t2.5 -20.5t-7 -20.5t-17 -9.5l-111 -6q-4 -153 -5.5 -261
t1 -181.5t10 -118t21 -70t33.5 -38t49 -22.5zM21 533q-7 4 -10 13.5t-1.5 20t8 18.5t17.5 8h193q2 1 10.5 -8t12 -20.5t-5 -22t-39.5 -11.5q-7 0 -34.5 0.5t-58.5 0.5h-58t-34 1z" />
    <glyph glyph-name="tcaron" unicode="&#x165;" horiz-adv-x="279" 
d="M256 -30q4 5 9 -9t7 -31.5t-1.5 -32t-17.5 -9.5q-31 10 -57.5 21.5t-47.5 38.5t-36 74.5t-24 129.5t-11 204.5t4 298.5h-102q-15 3 -16.5 20t8.5 46h110l3 125q4 20 21 20t43 -8l-2 -134l123 3q7 0 10.5 -9.5t2.5 -20.5t-7 -20.5t-17 -9.5l-111 -6q-4 -153 -5.5 -261
t1 -181.5t10 -118t21 -70t33.5 -38t49 -22.5zM202 791l-6.5 35t-6 27t-8.5 26t-15 33q-5 10 0.5 16t16.5 6t24.5 -6.5t24.5 -22t17 -40.5t1 -62q-1 -9 -8 -16t-15 -9.5t-15.5 0t-9.5 13.5z" />
    <glyph glyph-name="tcommaaccent" unicode="&#x163;" horiz-adv-x="279" 
d="M256 -30q4 5 9 -9t7 -31.5t-1.5 -32t-17.5 -9.5q-31 10 -57.5 21.5t-47.5 38.5t-36 74.5t-24 129.5t-11 204.5t4 298.5h-102q-15 3 -16.5 20t8.5 46h110l3 125q4 20 21 20t43 -8l-2 -134l123 3q7 0 10.5 -9.5t2.5 -20.5t-7 -20.5t-17 -9.5l-111 -6q-4 -153 -5.5 -261
t1 -181.5t10 -118t21 -70t33.5 -38t49 -22.5zM111 -252q-11 11 -10 27.5t3.5 35t1.5 37.5t-16 35q3 29 20 33t33.5 -13t24 -54t-8.5 -89q-3 -14 -8.5 -19t-12 -5t-13.5 4z" />
    <glyph glyph-name="uacute" unicode="&#xfa;" horiz-adv-x="371" 
d="M18 734q2 17 12 27t21 12t20.5 -4t10.5 -21l-5 -538q-2 -21 2 -45.5t13 -45t22.5 -33t30.5 -9.5t36 24.5t40 70.5q7 19 11 55.5t5.5 84t1.5 103v112.5t-0.5 112t1.5 103q6 29 25 33t37 -22q6 -62 5 -131.5t-3 -139.5t-2.5 -137.5t5 -126t20 -104t43.5 -71.5
q6 -11 0.5 -19t-15.5 -11.5t-21.5 -3.5t-17.5 5q-11 2 -20 13.5t-16.5 26t-13.5 29t-10 21.5q-5 -22 -22.5 -44.5t-42 -37.5t-52 -20t-52 8t-43 47t-23.5 97zM204 846q-28 -32 -43.5 -31.5t-18 18.5t7.5 46t33 52q24 8 33.5 0t9.5 -23.5t-7 -33.5t-15 -28z" />
    <glyph glyph-name="ubreve" unicode="&#x16d;" horiz-adv-x="371" 
d="M18 734q2 17 12 27t21 12t20.5 -4t10.5 -21l-5 -538q-2 -21 2 -45.5t13 -45t22.5 -33t30.5 -9.5t36 24.5t40 70.5q7 19 11 55.5t5.5 84t1.5 103v112.5t-0.5 112t1.5 103q6 29 25 33t37 -22q6 -62 5 -131.5t-3 -139.5t-2.5 -137.5t5 -126t20 -104t43.5 -71.5
q6 -11 0.5 -19t-15.5 -11.5t-21.5 -3.5t-17.5 5q-11 2 -20 13.5t-16.5 26t-13.5 29t-10 21.5q-5 -22 -22.5 -44.5t-42 -37.5t-52 -20t-52 8t-43 47t-23.5 97zM70 917q17 32 31.5 38t19.5 -8q15 -40 30 -57t28 -18t24.5 9.5t20.5 25.5t15.5 29.5t10.5 21.5t12 10t16 1
t15 -9.5t8 -22.5q-20 -46 -48 -80t-58.5 -43.5t-63 13t-61.5 90.5z" />
    <glyph glyph-name="ucircumflex" unicode="&#xfb;" horiz-adv-x="371" 
d="M18 734q2 17 12 27t21 12t20.5 -4t10.5 -21l-5 -538q-2 -21 2 -45.5t13 -45t22.5 -33t30.5 -9.5t36 24.5t40 70.5q7 19 11 55.5t5.5 84t1.5 103v112.5t-0.5 112t1.5 103q6 29 25 33t37 -22q6 -62 5 -131.5t-3 -139.5t-2.5 -137.5t5 -126t20 -104t43.5 -71.5
q6 -11 0.5 -19t-15.5 -11.5t-21.5 -3.5t-17.5 5q-11 2 -20 13.5t-16.5 26t-13.5 29t-10 21.5q-5 -22 -22.5 -44.5t-42 -37.5t-52 -20t-52 8t-43 47t-23.5 97zM293 838q-14 -26 -24.5 -33.5t-19 -3t-15.5 18.5l-15.5 30.5t-18 32t-22.5 23.5q-25 -43 -37 -69t-20 -35
t-16.5 -2t-27.5 30q4 18 16 38.5t26.5 41l30 40.5t26.5 38q13 4 27 -12t28.5 -40.5l30 -52t31.5 -45.5z" />
    <glyph glyph-name="udieresis" unicode="&#xfc;" horiz-adv-x="371" 
d="M18 734q2 17 12 27t21 12t20.5 -4t10.5 -21l-5 -538q-2 -21 2 -45.5t13 -45t22.5 -33t30.5 -9.5t36 24.5t40 70.5q7 19 11 55.5t5.5 84t1.5 103v112.5t-0.5 112t1.5 103q6 29 25 33t37 -22q6 -62 5 -131.5t-3 -139.5t-2.5 -137.5t5 -126t20 -104t43.5 -71.5
q6 -11 0.5 -19t-15.5 -11.5t-21.5 -3.5t-17.5 5q-11 2 -20 13.5t-16.5 26t-13.5 29t-10 21.5q-5 -22 -22.5 -44.5t-42 -37.5t-52 -20t-52 8t-43 47t-23.5 97zM81 826q-11 16 -3 30.5t23.5 22t32 5.5t23.5 -19q5 -10 -1 -23t-18 -21.5t-27.5 -9t-29.5 14.5zM228 826
q-11 16 -3 30.5t23.5 22t32 5.5t23.5 -19q5 -10 -1 -23t-18 -21.5t-27.5 -9t-29.5 14.5z" />
    <glyph glyph-name="uhungarumlaut" unicode="&#x171;" horiz-adv-x="371" 
d="M18 734q2 17 12 27t21 12t20.5 -4t10.5 -21l-5 -538q-2 -21 2 -45.5t13 -45t22.5 -33t30.5 -9.5t36 24.5t40 70.5q7 19 11 55.5t5.5 84t1.5 103v112.5t-0.5 112t1.5 103q6 29 25 33t37 -22q6 -62 5 -131.5t-3 -139.5t-2.5 -137.5t5 -126t20 -104t43.5 -71.5
q6 -11 0.5 -19t-15.5 -11.5t-21.5 -3.5t-17.5 5q-11 2 -20 13.5t-16.5 26t-13.5 29t-10 21.5q-5 -22 -22.5 -44.5t-42 -37.5t-52 -20t-52 8t-43 47t-23.5 97zM150 846q-28 -32 -43.5 -31.5t-18 18.5t7.5 46t33 52q24 8 33.5 0t9.5 -23.5t-7 -33.5t-15 -28zM259 846
q-28 -32 -43.5 -31.5t-18 18.5t7.5 46t33 52q24 8 33.5 0t9.5 -23.5t-7 -33.5t-15 -28z" />
    <glyph glyph-name="ugrave" unicode="&#xf9;" horiz-adv-x="371" 
d="M18 734q2 17 12 27t21 12t20.5 -4t10.5 -21l-5 -538q-2 -21 2 -45.5t13 -45t22.5 -33t30.5 -9.5t36 24.5t40 70.5q7 19 11 55.5t5.5 84t1.5 103v112.5t-0.5 112t1.5 103q6 29 25 33t37 -22q6 -62 5 -131.5t-3 -139.5t-2.5 -137.5t5 -126t20 -104t43.5 -71.5
q6 -11 0.5 -19t-15.5 -11.5t-21.5 -3.5t-17.5 5q-11 2 -20 13.5t-16.5 26t-13.5 29t-10 21.5q-5 -22 -22.5 -44.5t-42 -37.5t-52 -20t-52 8t-43 47t-23.5 97zM166 846q-8 10 -15 28t-7 33.5t9.5 23.5t33.5 0q23 -24 33 -52t7.5 -46t-18 -18.5t-43.5 31.5z" />
    <glyph glyph-name="umacron" unicode="&#x16b;" horiz-adv-x="371" 
d="M18 734q2 17 12 27t21 12t20.5 -4t10.5 -21l-5 -538q-2 -21 2 -45.5t13 -45t22.5 -33t30.5 -9.5t36 24.5t40 70.5q7 19 11 55.5t5.5 84t1.5 103v112.5t-0.5 112t1.5 103q6 29 25 33t37 -22q6 -62 5 -131.5t-3 -139.5t-2.5 -137.5t5 -126t20 -104t43.5 -71.5
q6 -11 0.5 -19t-15.5 -11.5t-21.5 -3.5t-17.5 5q-11 2 -20 13.5t-16.5 26t-13.5 29t-10 21.5q-5 -22 -22.5 -44.5t-42 -37.5t-52 -20t-52 8t-43 47t-23.5 97zM60 805q-7 4 -10 13.5t-1.5 20t8 18.5t17.5 8h193q2 1 10.5 -8t12 -20.5t-5 -22t-39.5 -11.5q-7 0 -34.5 0.5
t-58.5 0.5h-58t-34 1z" />
    <glyph glyph-name="uogonek" unicode="&#x173;" horiz-adv-x="371" 
d="M18 734q2 17 12 27t21 12t20.5 -4t10.5 -21l-5 -538q-2 -21 2 -45.5t13 -45t22.5 -33t30.5 -9.5t36 24.5t40 70.5q7 19 11 55.5t5.5 84t1.5 103v112.5t-0.5 112t1.5 103q6 29 25 33t37 -22q6 -62 5 -131.5t-3 -139.5t-2.5 -137.5t5 -126t20 -104t43.5 -71.5
q6 -11 0.5 -19t-15.5 -11.5t-21.5 -3.5t-17.5 5q-11 2 -20 13.5t-16.5 26t-13.5 29t-10 21.5q-5 -22 -22.5 -44.5t-42 -37.5t-52 -20t-52 8t-43 47t-23.5 97zM366 -87q-17 -4 -34 -2t-31 10t-23.5 22.5t-9.5 35.5q1 36 18.5 55t43.5 24l9 -41q-20 -2 -30 -14t-8.5 -25.5
t16.5 -24t46 -10.5z" />
    <glyph glyph-name="uring" unicode="&#x16f;" horiz-adv-x="371" 
d="M18 734q2 17 12 27t21 12t20.5 -4t10.5 -21l-5 -538q-2 -21 2 -45.5t13 -45t22.5 -33t30.5 -9.5t36 24.5t40 70.5q7 19 11 55.5t5.5 84t1.5 103v112.5t-0.5 112t1.5 103q6 29 25 33t37 -22q6 -62 5 -131.5t-3 -139.5t-2.5 -137.5t5 -126t20 -104t43.5 -71.5
q6 -11 0.5 -19t-15.5 -11.5t-21.5 -3.5t-17.5 5q-11 2 -20 13.5t-16.5 26t-13.5 29t-10 21.5q-5 -22 -22.5 -44.5t-42 -37.5t-52 -20t-52 8t-43 47t-23.5 97zM91 850q1 31 14.5 49.5t34.5 26t45 5.5t45 -10t34.5 -21t14.5 -28q0 -11 -11.5 -24t-29.5 -23.5t-40 -17t-43 -5.5
t-38.5 12t-25.5 36zM140 858q1 -9 13 -11t25.5 1.5t25.5 10.5t15 15q4 4 -9 9t-29 5.5t-29.5 -6t-11.5 -24.5z" />
    <glyph glyph-name="utilde" unicode="&#x169;" horiz-adv-x="371" 
d="M18 734q2 17 12 27t21 12t20.5 -4t10.5 -21l-5 -538q-2 -21 2 -45.5t13 -45t22.5 -33t30.5 -9.5t36 24.5t40 70.5q7 19 11 55.5t5.5 84t1.5 103v112.5t-0.5 112t1.5 103q6 29 25 33t37 -22q6 -62 5 -131.5t-3 -139.5t-2.5 -137.5t5 -126t20 -104t43.5 -71.5
q6 -11 0.5 -19t-15.5 -11.5t-21.5 -3.5t-17.5 5q-11 2 -20 13.5t-16.5 26t-13.5 29t-10 21.5q-5 -22 -22.5 -44.5t-42 -37.5t-52 -20t-52 8t-43 47t-23.5 97zM-37 880q9 11 18.5 29t22 33.5t29 25t39 4t53 -30.5t70.5 -77q24 -17 39 -16t24.5 13t14.5 29.5t8.5 34.5t5.5 28
t7 9q31 -8 39 -30.5t0 -48.5t-29.5 -50.5t-49.5 -36t-59.5 -4.5t-59.5 44l-28 40.5t-26 24t-26.5 -5.5t-28.5 -48q-9 -18 -21 -20.5t-22.5 4.5t-16.5 21t-3 28z" />
    <glyph glyph-name="wacute" unicode="&#x1e83;" horiz-adv-x="647" 
d="M94 4q-23 17 -38 60.5t-23 103.5t-11 133t-3 150t1 154t1 145q0 9 8.5 16t19 9.5t20 -1t9.5 -15.5q0 -175 3.5 -295.5t8 -197t9 -115t7.5 -48.5q19 -37 42 -35.5t43.5 57.5t36 174.5t19.5 315.5q1 13 10 16.5t20 1t20 -8t11 -10.5l7 -94t11 -115t17 -119.5t23 -108.5
t30 -81.5t38 -38t47 21t58 95.5q20 76 24 145t-0.5 135t-13 132.5t-13.5 139.5q-1 16 5.5 26.5t17 13.5t21.5 -2t19 -19q6 -47 12 -111.5t9 -135t0 -143.5t-16 -138.5t-37.5 -118t-65.5 -82.5q-56 -26 -87.5 -16.5t-52.5 45.5t-38 95.5t-42 135.5q-8 -59 -22 -115t-35.5 -97
t-53.5 -59.5t-76 -0.5zM342 846q-28 -32 -43.5 -31.5t-18 18.5t7.5 46t33 52q24 8 33.5 0t9.5 -23.5t-7 -33.5t-15 -28z" />
    <glyph glyph-name="wcircumflex" unicode="&#x175;" horiz-adv-x="647" 
d="M94 4q-23 17 -38 60.5t-23 103.5t-11 133t-3 150t1 154t1 145q0 9 8.5 16t19 9.5t20 -1t9.5 -15.5q0 -175 3.5 -295.5t8 -197t9 -115t7.5 -48.5q19 -37 42 -35.5t43.5 57.5t36 174.5t19.5 315.5q1 13 10 16.5t20 1t20 -8t11 -10.5l7 -94t11 -115t17 -119.5t23 -108.5
t30 -81.5t38 -38t47 21t58 95.5q20 76 24 145t-0.5 135t-13 132.5t-13.5 139.5q-1 16 5.5 26.5t17 13.5t21.5 -2t19 -19q6 -47 12 -111.5t9 -135t0 -143.5t-16 -138.5t-37.5 -118t-65.5 -82.5q-56 -26 -87.5 -16.5t-52.5 45.5t-38 95.5t-42 135.5q-8 -59 -22 -115t-35.5 -97
t-53.5 -59.5t-76 -0.5zM431 838q-14 -26 -24.5 -33.5t-19 -3t-15.5 18.5l-15.5 30.5t-18 32t-22.5 23.5q-25 -43 -37 -69t-20 -35t-16.5 -2t-27.5 30q4 18 16 38.5t26.5 41l30 40.5t26.5 38q13 4 27 -12t28.5 -40.5l30 -52t31.5 -45.5z" />
    <glyph glyph-name="wdieresis" unicode="&#x1e85;" horiz-adv-x="647" 
d="M94 4q-23 17 -38 60.5t-23 103.5t-11 133t-3 150t1 154t1 145q0 9 8.5 16t19 9.5t20 -1t9.5 -15.5q0 -175 3.5 -295.5t8 -197t9 -115t7.5 -48.5q19 -37 42 -35.5t43.5 57.5t36 174.5t19.5 315.5q1 13 10 16.5t20 1t20 -8t11 -10.5l7 -94t11 -115t17 -119.5t23 -108.5
t30 -81.5t38 -38t47 21t58 95.5q20 76 24 145t-0.5 135t-13 132.5t-13.5 139.5q-1 16 5.5 26.5t17 13.5t21.5 -2t19 -19q6 -47 12 -111.5t9 -135t0 -143.5t-16 -138.5t-37.5 -118t-65.5 -82.5q-56 -26 -87.5 -16.5t-52.5 45.5t-38 95.5t-42 135.5q-8 -59 -22 -115t-35.5 -97
t-53.5 -59.5t-76 -0.5zM219 826q-11 16 -3 30.5t23.5 22t32 5.5t23.5 -19q5 -10 -1 -23t-18 -21.5t-27.5 -9t-29.5 14.5zM366 826q-11 16 -3 30.5t23.5 22t32 5.5t23.5 -19q5 -10 -1 -23t-18 -21.5t-27.5 -9t-29.5 14.5z" />
    <glyph glyph-name="wgrave" unicode="&#x1e81;" horiz-adv-x="647" 
d="M94 4q-23 17 -38 60.5t-23 103.5t-11 133t-3 150t1 154t1 145q0 9 8.5 16t19 9.5t20 -1t9.5 -15.5q0 -175 3.5 -295.5t8 -197t9 -115t7.5 -48.5q19 -37 42 -35.5t43.5 57.5t36 174.5t19.5 315.5q1 13 10 16.5t20 1t20 -8t11 -10.5l7 -94t11 -115t17 -119.5t23 -108.5
t30 -81.5t38 -38t47 21t58 95.5q20 76 24 145t-0.5 135t-13 132.5t-13.5 139.5q-1 16 5.5 26.5t17 13.5t21.5 -2t19 -19q6 -47 12 -111.5t9 -135t0 -143.5t-16 -138.5t-37.5 -118t-65.5 -82.5q-56 -26 -87.5 -16.5t-52.5 45.5t-38 95.5t-42 135.5q-8 -59 -22 -115t-35.5 -97
t-53.5 -59.5t-76 -0.5zM304 846q-8 10 -15 28t-7 33.5t9.5 23.5t33.5 0q23 -24 33 -52t7.5 -46t-18 -18.5t-43.5 31.5z" />
    <glyph glyph-name="yacute" unicode="&#xfd;" horiz-adv-x="298" 
d="M46 -105q-12 9 -18 23.5t-4 26t12.5 15.5t31.5 -6q35 -29 60.5 -25.5t43.5 29.5t29.5 70.5t17.5 97.5t8 110.5t1 109.5t-4.5 94t-7.5 65q-31 -28 -59.5 -32t-52.5 9t-43 39.5t-31.5 60.5t-17.5 71.5t-2 72.5q5 28 16.5 39t23.5 10.5t20.5 -10t8.5 -23.5
q-7 -12 -8.5 -37.5t2 -54.5t13 -56.5t24.5 -42.5t36.5 -13t49.5 32q8 4 11 25t3.5 49.5t0 58.5t0.5 51q1 12 8 24t16 15.5t18 -4.5t12 -35q13 -133 19.5 -261.5t2.5 -239.5t-19 -198.5t-44 -138.5t-73 -59.5t-105 38.5zM168 846q-28 -32 -43.5 -31.5t-18 18.5t7.5 46t33 52
q24 8 33.5 0t9.5 -23.5t-7 -33.5t-15 -28z" />
    <glyph glyph-name="ycircumflex" unicode="&#x177;" horiz-adv-x="298" 
d="M46 -105q-12 9 -18 23.5t-4 26t12.5 15.5t31.5 -6q35 -29 60.5 -25.5t43.5 29.5t29.5 70.5t17.5 97.5t8 110.5t1 109.5t-4.5 94t-7.5 65q-31 -28 -59.5 -32t-52.5 9t-43 39.5t-31.5 60.5t-17.5 71.5t-2 72.5q5 28 16.5 39t23.5 10.5t20.5 -10t8.5 -23.5
q-7 -12 -8.5 -37.5t2 -54.5t13 -56.5t24.5 -42.5t36.5 -13t49.5 32q8 4 11 25t3.5 49.5t0 58.5t0.5 51q1 12 8 24t16 15.5t18 -4.5t12 -35q13 -133 19.5 -261.5t2.5 -239.5t-19 -198.5t-44 -138.5t-73 -59.5t-105 38.5zM258 838q-14 -26 -24.5 -33.5t-19 -3t-15.5 18.5
l-15.5 30.5t-18 32t-22.5 23.5q-25 -43 -37 -69t-20 -35t-16.5 -2t-27.5 30q4 18 16 38.5t26.5 41l30 40.5t26.5 38q13 4 27 -12t28.5 -40.5l30 -52t31.5 -45.5z" />
    <glyph glyph-name="ydieresis" unicode="&#xff;" horiz-adv-x="298" 
d="M46 -105q-12 9 -18 23.5t-4 26t12.5 15.5t31.5 -6q35 -29 60.5 -25.5t43.5 29.5t29.5 70.5t17.5 97.5t8 110.5t1 109.5t-4.5 94t-7.5 65q-31 -28 -59.5 -32t-52.5 9t-43 39.5t-31.5 60.5t-17.5 71.5t-2 72.5q5 28 16.5 39t23.5 10.5t20.5 -10t8.5 -23.5
q-7 -12 -8.5 -37.5t2 -54.5t13 -56.5t24.5 -42.5t36.5 -13t49.5 32q8 4 11 25t3.5 49.5t0 58.5t0.5 51q1 12 8 24t16 15.5t18 -4.5t12 -35q13 -133 19.5 -261.5t2.5 -239.5t-19 -198.5t-44 -138.5t-73 -59.5t-105 38.5zM45 826q-11 16 -3 30.5t23.5 22t32 5.5t23.5 -19
q5 -10 -1 -23t-18 -21.5t-27.5 -9t-29.5 14.5zM192 826q-11 16 -3 30.5t23.5 22t32 5.5t23.5 -19q5 -10 -1 -23t-18 -21.5t-27.5 -9t-29.5 14.5z" />
    <glyph glyph-name="ygrave" unicode="&#x1ef3;" horiz-adv-x="298" 
d="M46 -105q-12 9 -18 23.5t-4 26t12.5 15.5t31.5 -6q35 -29 60.5 -25.5t43.5 29.5t29.5 70.5t17.5 97.5t8 110.5t1 109.5t-4.5 94t-7.5 65q-31 -28 -59.5 -32t-52.5 9t-43 39.5t-31.5 60.5t-17.5 71.5t-2 72.5q5 28 16.5 39t23.5 10.5t20.5 -10t8.5 -23.5
q-7 -12 -8.5 -37.5t2 -54.5t13 -56.5t24.5 -42.5t36.5 -13t49.5 32q8 4 11 25t3.5 49.5t0 58.5t0.5 51q1 12 8 24t16 15.5t18 -4.5t12 -35q13 -133 19.5 -261.5t2.5 -239.5t-19 -198.5t-44 -138.5t-73 -59.5t-105 38.5zM130 846q-8 10 -15 28t-7 33.5t9.5 23.5t33.5 0
q23 -24 33 -52t7.5 -46t-18 -18.5t-43.5 31.5z" />
    <glyph glyph-name="zacute" unicode="&#x17a;" horiz-adv-x="386" 
d="M24 11q-1 1 0 7.5t6 26l14 55l25.5 96l40.5 148.5l59 213h-101q-9 0 -12 7.5t-1 17.5t8.5 18.5t16.5 10.5q6 1 21.5 3t33 4t33 3.5t21.5 1.5q11 20 20.5 46.5t3.5 50.5h-193q-9 0 -12 7t-1.5 15.5t5.5 16t8 9.5q59 6 125.5 10t127.5 2q22 -15 25 -34t-3 -41t-17 -44.5
t-17 -43.5h96q7 0 10.5 -9.5t3.5 -20.5t-3.5 -20.5t-10.5 -9.5h-120l-137 -478h186q14 0 15 -9t-4 -19.5t-12.5 -20.5t-10.5 -11zM212 846q-28 -32 -43.5 -31.5t-18 18.5t7.5 46t33 52q24 8 33.5 0t9.5 -23.5t-7 -33.5t-15 -28z" />
    <glyph glyph-name="zcaron" unicode="&#x17e;" horiz-adv-x="386" 
d="M24 11q-1 1 0 7.5t6 26l14 55l25.5 96l40.5 148.5l59 213h-101q-9 0 -12 7.5t-1 17.5t8.5 18.5t16.5 10.5q6 1 21.5 3t33 4t33 3.5t21.5 1.5q11 20 20.5 46.5t3.5 50.5h-193q-9 0 -12 7t-1.5 15.5t5.5 16t8 9.5q59 6 125.5 10t127.5 2q22 -15 25 -34t-3 -41t-17 -44.5
t-17 -43.5h96q7 0 10.5 -9.5t3.5 -20.5t-3.5 -20.5t-10.5 -9.5h-120l-137 -478h186q14 0 15 -9t-4 -19.5t-12.5 -20.5t-10.5 -11zM85 948q14 27 24.5 34t19 2.5t15.5 -18.5l15.5 -30.5t18 -32t22.5 -23.5q25 43 37 69t20 35t16.5 1.5t27.5 -29.5q-4 -18 -16 -38.5t-26.5 -41
l-30 -40.5t-26.5 -38q-13 -5 -27 11.5t-28.5 41l-30 52t-31.5 45.5z" />
    <glyph glyph-name="zdotaccent" unicode="&#x17c;" horiz-adv-x="386" 
d="M24 11q-1 1 0 7.5t6 26l14 55l25.5 96l40.5 148.5l59 213h-101q-9 0 -12 7.5t-1 17.5t8.5 18.5t16.5 10.5q6 1 21.5 3t33 4t33 3.5t21.5 1.5q11 20 20.5 46.5t3.5 50.5h-193q-9 0 -12 7t-1.5 15.5t5.5 16t8 9.5q59 6 125.5 10t127.5 2q22 -15 25 -34t-3 -41t-17 -44.5
t-17 -43.5h96q7 0 10.5 -9.5t3.5 -20.5t-3.5 -20.5t-10.5 -9.5h-120l-137 -478h186q14 0 15 -9t-4 -19.5t-12.5 -20.5t-10.5 -11zM162 824q-11 16 -3 30.5t23.5 22t32 5.5t23.5 -19q5 -10 -1 -23t-18 -21.5t-27.5 -9t-29.5 14.5z" />
    <glyph glyph-name="Eth" unicode="&#xd0;" horiz-adv-x="322" 
d="M19 759q13 13 37 16t51 -0.5t51 -12t37 -17.5q27 -23 48.5 -66.5t34.5 -99.5t17.5 -120.5t-2 -128t-24.5 -122.5t-49 -104t-76.5 -72t-107.5 -27zM90 79q28 -2 52.5 27t43 76t30 107t14 122t-4.5 120t-26 100.5t-50.5 64.5t-77.5 11q3 -19 5.5 -62t4.5 -100.5t3.5 -123
t2.5 -129.5t1.5 -120t1.5 -93zM-31 395q-7 4 -10 13.5t-1.5 20t8 18.5t17.5 8h193q2 1 10.5 -8t12 -20.5t-5 -22t-39.5 -11.5q-7 0 -34.5 0.5t-58.5 0.5h-58t-34 1z" />
    <glyph glyph-name="endash" unicode="&#x2013;" horiz-adv-x="308" 
d="M63 276q-7 4 -10 13.5t-1.5 20t8 18.5t17.5 8h193q2 1 10.5 -8t12 -20.5t-5 -22t-39.5 -11.5q-7 0 -34.5 0.5t-58.5 0.5h-58t-34 1z" />
    </font>
</defs>
</svg>
